<svg width="456" height="456" viewBox="0 0 456 456" fill="none" xmlns="http://www.w3.org/2000/svg">
<rect width="456" height="456" fill="#1C201E"/>
<g clip-path="url(#clip0_11_430)">
<path d="M333.124 366H176.373V361.647C175.804 351.676 173.878 341.861 172.729 331.97C171.523 321.563 171.118 311.199 171.346 300.705L164.205 305.115C150.566 312.736 131.277 317.893 115.736 314.611C113.891 314.223 111.322 312.977 109.865 312.773C107.885 312.499 104.697 312.964 102.506 312.77C92.8599 311.913 75.6976 305.186 76.8967 293.165C77.0006 292.113 78.0221 290.225 77.8513 289.552C77.7106 288.996 76.0527 287.784 75.5637 287.131C73.189 283.97 72.0837 279.784 72.6263 275.84C72.854 274.179 74.4885 271.135 74.5153 270.067C74.5388 269.096 73.0248 266.554 72.6966 265.215C69.8697 253.71 75.8551 247.696 86.3956 245.071C88.9612 244.431 91.5737 244.26 94.1628 243.785C94.4207 243.43 92.6824 238.993 92.4646 238.086C90.4785 229.926 91.8283 220.958 97.1873 214.335C102.124 208.231 112.373 203.895 117.766 211.787C123.661 220.419 116.061 228.392 118.603 237.403C120.305 243.433 125.674 246.279 129.318 250.8C130.008 251.654 132.557 255.836 132.831 255.99C134.345 256.834 143.955 254.553 146.229 254.148C143.921 249.628 141.175 245.318 139.138 240.647C134.382 229.748 132.182 219.16 131.827 207.273C131.803 206.443 132.141 203.828 131.297 203.63L113.747 203.754L96.6514 185.016L91.9522 184.996C91.4364 185.94 90.9809 187.38 90.2909 188.19C86.3855 192.788 78.625 191.438 76.2938 185.944C73.2827 178.858 80.1992 172.322 87.176 175.064C89.7014 176.059 90.6191 177.877 91.8417 180.111C93.5163 180.486 100.684 179.628 101.521 180.479C101.846 180.81 101.91 181.838 102.181 181.832L102.684 179.819C102.717 181.48 102.506 183.194 102.858 184.835C107.383 189.701 111.834 194.629 116.768 199.056L131.827 199.244L132.158 195.892H117.923L105.765 183.268L105.517 167.778L98.8921 160.773C98.3529 161.081 97.1705 161.972 96.6547 162.072C89.209 163.479 82.3328 155.292 86.9449 148.849C91.557 142.407 101.702 145.119 102.312 153.246C102.476 155.432 101.629 156.424 101.384 158.356C103.782 159.474 110.267 165.203 110.669 167.684C110.796 168.461 110.377 169.161 110.374 169.931C110.367 171.927 110.069 180.238 110.705 181.346L120.003 191.137L132.46 191.171L133.163 187.193C130.246 186.838 126.973 187.41 124.478 185.662C123.038 184.654 115.78 177.207 114.922 175.794C113.626 173.651 114.413 171.937 114.339 169.948C114.058 162.273 114.567 154.632 114.413 146.914C108.418 143.274 109.999 133.142 116.815 131.504C127.024 129.05 131.267 142.695 122.448 147.014C122.438 146.311 122.08 145.26 122.097 144.151C122.123 142.574 122.626 141.201 122.445 139.48C121.939 134.669 115.743 135.707 115.421 139.859C115.254 142.052 117.464 143.555 119.102 144.573L118.911 173.822L127.707 182.441C129.248 182.11 133.324 183.62 134.118 182.29C134.446 181.741 134.62 180.251 134.841 179.498C135.31 177.891 135.662 176.233 136.174 174.636C142.109 156.102 152.921 139.949 168.636 128.377C166.633 121.931 166.891 113.63 170.679 107.841C172.789 104.62 176.504 101.86 180.54 102.503C182.988 102.892 182.627 107.228 186.08 108.346C190.548 109.79 196.125 107.027 199.725 104.566C205.895 100.347 210.514 95.773 217.678 92.7125C230.372 87.2947 245.086 89.9132 253.302 101.415C261.347 100.866 270.183 102.624 276.516 107.841C280.382 111.025 283.008 116.49 284.401 121.221C289.06 123.652 292.727 126.8 295.33 131.391C297.353 134.953 297.115 135.318 299.979 138.462C306.808 145.963 312.941 154.579 317.104 163.867C319.221 168.592 320.638 173.598 322.734 178.329L330.542 178.423L336.403 172.898L337.154 146.904C330.562 143.823 330.756 134.582 337.458 131.762C346.833 127.824 352.946 141.292 344.844 146.68C343.695 147.443 341.635 147.466 341.518 149.214L341.32 174.8L332.779 183.004L323.743 182.843C323.95 183.934 323.944 185.12 324.078 186.191C324.289 187.849 324.938 189.493 324.744 191.217L337.237 191.147L348.21 180.686C349.402 175.791 348.518 170.721 349.01 165.749C351.278 162.404 354.376 159.692 357.417 157.053C355.039 149.931 361.185 142.39 368.638 145.829C377.745 150.031 372.074 163.991 362.592 161.751C362.103 161.637 360.767 160.134 359.923 160.562C358.278 162.601 353.854 165.672 353.542 168.274C353.133 171.669 354.366 179.957 353.02 182.485C348.374 186.429 344.499 191.181 339.833 195.098C339.595 195.299 339.498 195.601 339.481 195.905H325.414V199.257C330.656 199.093 336.001 199.729 341.156 198.584C340.999 200.067 343.564 198.872 344.006 198.584L360.924 181.678L366.933 181.49C367.636 173.645 378.622 171.766 382.082 178.929C386.219 187.497 375.256 194.904 369.291 189.205C368.849 188.783 367.71 186.335 367.566 186.245C367.254 186.047 363.463 186.128 362.934 186.365L345.343 203.938H325.749C325.689 205.043 325.833 206.185 325.749 207.287C325.595 209.272 325.391 211.342 325.079 213.314H355.391C358.429 208.13 365.308 206.952 369.13 211.968C375.206 219.937 364.441 229.959 356.932 222.823C356.747 222.646 355.609 221.437 355.558 221.35C354.966 220.326 355.187 218.035 353.361 218.032L324.938 217.982C324.49 218.059 324.496 220.818 324.409 221.35C322.761 231.345 318.987 240.821 313.825 249.477L313.835 250.147C318.635 253.201 323.729 255.782 328.398 259.054C339.699 266.966 350.541 278.07 357.166 290.231C363.048 301.023 361.778 305.437 357.391 316.44C351.121 332.161 342.07 347.349 333.118 361.651M292.928 144.332C292.533 138.349 291.136 133.209 286.39 129.274C284.756 127.921 281.453 126.803 280.532 125.755C279.37 124.432 278.265 120.257 277.243 118.328C273.164 110.617 266.043 106.816 257.264 107.506C253.543 107.801 251.5 109.532 248.392 105.986C245.444 102.624 244.741 100.267 240.182 98.1202C217.202 87.3047 203.6 120.381 184.341 114.434C183.3 114.112 182.312 113.637 181.424 112.997C180.627 112.421 178.359 109.458 177.924 109.535C172.753 114.062 171.852 124.761 176.742 129.733C177.897 130.908 180.861 132.937 182.389 131.766C184.221 130.356 181.709 129.562 181.103 128.387C180.496 127.212 180.352 123.354 181.963 122.946C185.4 124.386 188.431 125.628 192.109 126.425C199.156 127.948 206.98 128.397 213.957 126.495C218.82 125.169 222.93 122.333 227.94 121.389C239.094 119.282 263.705 125.986 274.497 130.453C278.422 132.077 284.056 133.456 283.212 138.817L283.553 139.48L292.928 144.336V144.332ZM274.845 149.355C271.921 149.174 267.332 147.416 266.827 144.145C266.502 142.049 267.661 138.432 265.785 137.15C263.635 135.68 255.385 134.012 252.465 133.39C243.736 131.521 233.715 130.192 224.785 129.924C220.97 129.81 221.121 130.573 218.08 131.618C210.416 134.26 202.964 134.284 195.059 132.85C190.625 132.047 189.57 130.008 186.696 135.067C178.443 149.593 172.722 175.496 174.032 192.044C176.256 220.198 197.089 252.692 229.31 245.975C244.302 242.851 257.746 229.179 263.849 215.544C264.549 213.984 266.093 208.469 266.89 207.705C268.18 206.463 273.164 209.369 276.198 208.469C283.734 206.239 294.707 181.892 284.22 177.649C281.926 176.722 279.531 177.763 277.404 178.865C276.369 179.401 274.319 181.313 273.937 181.427C270.789 182.377 267.704 177.984 269.814 175.295C271.472 173.183 279.209 171.475 281.879 171.451C283.855 171.435 285.064 171.85 286.899 172.456L287.529 170.008L283.048 167.092C282.234 167.085 281.695 168.347 281.209 168.769C278.747 170.929 277.833 171.398 274.349 171.107C272.46 170.949 267.898 169.419 267.292 167.447C267.302 163.097 266.77 158.145 267.131 153.855C267.523 149.214 272.028 151.083 275.183 152.027C278.338 152.971 280.861 154.07 282.398 157.036C282.947 158.094 283.024 159.407 283.872 160.251C285.144 161.517 288.688 162.498 290.252 163.747C291.569 159.708 292.292 155.506 292.279 151.247L282.378 145.672C281.443 145.692 280.78 147.399 280.047 148.016C278.523 149.298 276.768 149.469 274.848 149.348L274.845 149.355ZM188.096 240.433C188.776 239.716 185.266 236.549 184.757 235.906C167.096 213.689 164.915 189.145 170.783 162.019C171.252 159.846 173.386 153.691 173.372 152.201C173.366 151.294 171.641 148.016 171.255 146.609C170.532 143.987 170.16 141.208 170.348 138.483C170.468 136.768 171.172 134.977 171.182 133.289C143.988 154.374 131.823 191.592 139.694 225.037C141.968 234.697 146.098 244.23 151.487 252.508C152.244 252.688 156.297 251.128 157.366 250.733C167.471 246.989 177.237 241.853 188.099 240.436L188.096 240.433ZM274.423 135.697C268.18 136.926 271.378 146.877 276.828 143.803C280.787 141.57 279.065 134.782 274.423 135.697ZM340.078 136.028C336.876 136.49 335.958 141.218 338.902 142.407C344.877 144.814 345.584 135.235 340.078 136.028ZM176.373 137.301V142.491C176.373 142.752 176.815 143.612 177.375 143.328C177.529 141.546 178.885 140.157 179.394 138.476L176.373 137.297V137.301ZM271.549 215.377C270.461 217.66 269.443 220.034 268.203 222.244C267.192 224.042 263.608 228.938 263.256 230.388C263.075 231.131 263.41 231.325 264.037 231.653C278.961 235.779 293.829 240.148 307.847 246.792C308.627 246.778 309.337 245.332 309.736 244.676C311.357 242.01 312.817 238.427 313.949 235.494C325.528 205.532 319.787 170.802 299.128 146.345C298.445 149.68 298.699 153.142 298.254 156.517C297.812 159.849 296.68 163.693 295.527 166.851C294.878 168.632 292.044 173.859 291.93 175.004C291.803 176.293 293.571 178.634 294.091 180.174C297.628 190.631 290.594 206.861 281.651 212.912C278.231 215.226 275.692 215.587 271.549 215.373V215.377ZM93.2216 150.095C88.8708 150.942 90.1737 157.649 94.7255 156.993C99.2773 156.337 97.6629 149.234 93.2216 150.095ZM363.838 150.095C360.636 151.043 361.4 158.101 366.3 156.571C370.098 155.386 368.886 148.602 363.838 150.095ZM273.405 157.462C270.652 158.285 269.999 164.999 273.073 165.692C282.217 167.751 279.795 155.546 273.405 157.462ZM86.4927 185.066C89.6847 181.711 84.0477 177.04 81.2442 180.656C78.4408 184.273 83.485 188.227 86.4927 185.066ZM377.232 180.265C374.389 177.619 369.314 181.182 372.128 184.862C375.209 188.894 380.598 183.392 377.232 180.265ZM127.804 285.299C123.336 286.273 127.355 282.567 128.209 281.184C133.062 273.308 130.607 262.781 125.406 255.725C121.119 249.916 115.358 247.117 113.06 239.606C110.568 231.452 114.929 225.395 114.075 217.831C113.422 212.025 107.58 213.321 104.201 215.996C95.6432 222.777 95.5695 236.103 101.826 244.471C113.747 246.725 123.996 252.765 121.286 266.561C121.032 267.85 119.631 271.189 119.755 272.056C119.832 272.595 121.859 275.445 122.281 276.928C123.738 282.078 122.582 288.229 118.483 291.879C121.943 297.913 117.123 301.877 111.958 304.114L103.022 306.729C113.76 308.494 122.629 303.722 126.528 293.566C127.003 292.324 128.869 286.032 127.804 285.299ZM360.361 219.569C362.723 222.147 368.263 218.621 365.463 214.971C362.518 211.134 357.26 216.18 360.361 219.569ZM211.21 252.487C210.493 253.214 215.414 256.281 216 256.569C231.913 264.465 256.973 254.898 259.435 236.08C253.118 242.151 246.205 247.81 237.841 250.82C229.478 253.83 219.754 254.905 211.21 252.487ZM284.223 361.647C284.552 361.225 284.84 358.905 284.89 358.128C285.154 354.093 284.82 349.951 285.225 345.909C270.344 352.245 254.019 354.746 237.818 353.959C234.994 353.822 226.641 352.928 224.363 351.672C222.518 350.654 222.367 347.714 222.243 345.755C221.788 338.694 222.407 331.35 222.605 324.325C223.04 308.829 223.683 292.11 225.981 276.804C226.195 275.384 226.577 271.758 228.185 271.306C231.571 270.867 235.041 271.025 238.414 270.482C248.64 268.845 261.458 260.34 266.304 251.151C267.456 248.972 270.236 242.476 270.467 240.232C270.541 239.519 270.437 239.877 270.015 239.727C268.367 239.137 266.559 238.856 264.961 238.079C261.069 257.386 239.539 268.513 220.97 264.311C213.769 262.68 206.076 257.51 203.748 250.221L196.798 246.792C196.031 257.889 203.711 266.253 214.235 268.423C213.247 276.221 212.011 284.01 211.2 291.832C210.138 302.075 209.492 312.472 209.157 322.671C209.134 323.341 208.856 323.954 208.835 324.63C208.655 331.591 209.733 341.215 208.829 347.724C208.779 348.096 208.413 349.084 208.199 349.348C207.482 350.222 202.063 350.005 200.65 349.918C192.474 349.412 188.498 346.75 181.397 344.721C180.835 344.56 180.292 344.51 179.713 344.567L181.709 361.43C181.793 361.838 182.231 361.577 182.392 361.641C182.724 361.774 182.881 362.267 183.397 361.641H184.402L184.67 361.868L185.072 361.641H192.775L193.177 361.868L193.445 361.641H194.785L195.187 361.868L195.455 361.641H196.46L196.727 361.868L197.129 361.641H202.823C203.044 362.17 204.277 362.17 204.498 361.641H208.182C208.517 362.046 208.852 362.046 209.187 361.641H212.202C212.537 362.046 212.871 362.046 213.206 361.641H215.216C215.625 362.099 216.134 362.109 216.556 361.641H217.561C217.896 362.049 218.227 362.046 218.565 361.641H219.235C219.661 362.109 220.163 362.099 220.575 361.641H221.245L221.65 361.872L221.915 361.641H228.279L228.547 361.868L228.949 361.641H231.628L231.896 361.868L232.298 361.641H248.04C248.375 362.042 248.71 362.046 249.045 361.641H257.753C258.088 362.046 258.423 362.046 258.758 361.641H261.772C261.994 362.17 263.226 362.17 263.447 361.641H264.787C265.212 362.106 265.715 362.099 266.127 361.641H273.495L273.897 361.865L274.165 361.641H276.175C276.51 362.042 276.848 362.046 277.18 361.641H278.184C278.503 362.18 279.856 362.19 280.194 361.641H283.543C283.965 362.089 283.942 361.989 284.213 361.641L284.223 361.647ZM285.801 338.784L292.275 301.552C292.269 301.117 292.021 300.973 291.723 300.742C289.164 298.756 280.881 297.246 280.526 293.509C280.445 292.669 280.412 291.658 281.209 291.155C282.083 290.724 283.312 291.256 284.21 291.514C288.229 292.669 293.216 294.966 297.072 296.737C300.247 298.197 324.078 310.724 324.413 312.267C324.848 314.28 317.898 312.85 316.876 313.761L303.646 342.042C307.632 347.389 313.741 351.086 320.142 353.032C321.917 353.571 327.052 355.011 328.633 354.924C330.04 354.843 333.978 347.962 334.859 346.472C339.354 338.874 343.896 330.055 347.587 322.028C350.22 316.302 355.384 305.37 354.53 299.229C353.907 294.742 345.571 283.558 342.338 279.941C325.049 260.591 300.508 248.161 275.686 241.421L275.003 241.769C270.092 261.669 252.743 276.546 232.003 276.968C227.773 299.517 227.733 322.477 227.96 345.404C228.108 346.516 229.069 346.529 229.95 346.763C236.97 348.652 250.22 348.009 257.592 347.249C267.44 346.234 277.304 343.987 285.801 338.787V338.784ZM203.168 333.52C203.466 320.475 204.19 307.837 205.51 294.842C205.6 293.958 205.433 293.057 205.516 292.17L208.186 272.933C197.716 268.657 190.28 257.58 191.777 246.125C174.853 247.575 160.357 257.507 143.951 260.423C141.054 260.939 138.08 261.11 135.173 261.528C136.03 264.147 137.654 266.591 138.686 269.233C144.139 283.213 142.575 298.124 131.492 308.735C145.877 308.39 159.322 301.321 171.011 293.499C172.163 291.085 171.45 288.346 171.691 285.808C172.012 282.379 172.726 278.686 173.188 275.25C173.657 273.499 176.983 272.689 177.371 274.761C177.572 275.836 177.442 278.234 177.395 279.453C176.762 296.024 175.804 310.962 177.388 327.65C177.663 330.543 178.4 333.483 178.694 336.39C179.207 337.666 182.004 338.908 183.29 339.497C189.295 342.24 196.426 343.438 202.957 343.91C203.376 343.843 203.098 343.365 203.168 343.227C203.235 343.1 203.403 343.077 203.168 342.893V341.553C203.168 340.107 203.165 338.647 203.168 337.2V336.865C203.168 336.641 203.162 336.42 203.168 336.196L203.396 335.794L203.168 335.526C203.182 334.97 203.155 334.408 203.168 333.852V333.517V333.52ZM116.406 269.223C121.112 250.981 95.1944 246.223 82.9122 252.31C77.2987 255.093 76.9537 261.388 79.8877 266.387C89.7516 264.2 101.357 262.874 110.95 266.826C111.901 267.217 115.87 269.672 116.406 269.223ZM89.8923 270.335C87.4975 270.546 82.517 271.413 80.6045 272.769C77.014 275.311 78.5346 282.262 81.5993 284.813C82.3964 285.165 84.7946 283.993 85.92 283.779C95.4121 281.984 106.495 283.695 114.972 288.266C116.048 288.363 117.525 284.964 117.679 284.053C119.97 270.552 98.7514 269.558 89.8923 270.338V270.335ZM135.508 273.583C134.62 273.502 134.965 273.566 134.848 274.085C134.429 275.92 134.124 277.658 133.511 279.453C133.14 280.538 132.068 281.981 131.897 282.875C131.669 284.057 132.225 285.718 132.178 287.161C131.947 294.454 127.506 302.815 121.551 307.007C120.536 307.72 119.447 308.072 118.526 308.661C118.198 308.872 117.93 308.628 118.094 309.411C124.977 310.694 131.364 304.208 134.131 298.489C137.892 290.72 137.886 281.756 135.508 273.583ZM92.3039 300.709C97.1571 301.884 102.158 301.857 107.041 300.879C111.107 300.066 118.597 297.039 112.296 292.94C106.743 289.331 90.311 286.501 84.8214 290.382C78.0992 295.137 89.4 303.97 94.6417 303.719C94.5982 302.778 93.4159 302.517 92.7996 301.713C92.5417 301.378 92.1465 301.291 92.3005 300.709H92.3039ZM290.915 352.941L310.938 311.584L298.451 304.05C297.651 303.903 297.577 305.775 297.443 306.391C294.181 321.67 291.954 337.24 290.246 352.77L290.915 352.941ZM323.746 361.647C324.975 361.627 325.273 361.835 325.421 360.311C316.059 359.183 307.22 355.201 300.803 348.26C298.649 351.411 296.777 354.78 294.894 358.098C294.693 358.453 294.114 358.55 294.024 358.714C293.766 359.189 293.752 360.921 293.267 361.647L293.602 361.982C294.158 361.995 294.72 361.962 295.276 361.982C295.608 361.992 295.95 361.995 296.281 361.982C300.937 361.818 306.39 361.202 311.018 361.647C311.055 361.805 311.199 361.965 311.353 361.982C311.752 362.026 312.278 362.002 312.693 361.982C313.058 361.965 313.537 362.086 313.698 361.647C314.699 361.614 315.711 361.654 316.712 361.647H317.047C317.828 361.647 318.611 361.647 319.392 361.647H323.411C323.569 361.862 323.699 361.647 323.746 361.647Z" fill="#092C2E"/>
<path d="M285.801 338.784C277.304 343.981 267.44 346.227 257.593 347.245C250.221 348.005 236.97 348.648 229.95 346.76C229.073 346.522 228.108 346.512 227.961 345.4C227.733 322.477 227.773 299.516 232.003 276.964C252.743 276.543 270.092 261.665 275.003 241.765L275.686 241.417C300.508 248.158 325.046 260.587 342.339 279.938C345.571 283.554 353.904 294.738 354.53 299.225C355.384 305.366 350.22 316.299 347.587 322.025C343.896 330.051 339.354 338.871 334.859 346.468C333.978 347.958 330.04 354.84 328.633 354.92C327.052 355.01 321.921 353.571 320.142 353.028C313.745 351.083 307.636 347.386 303.646 342.038L316.877 313.757C317.901 312.847 324.848 314.276 324.413 312.264C324.078 310.717 300.247 298.19 297.072 296.734C293.217 294.962 288.229 292.665 284.21 291.51C283.312 291.252 282.083 290.72 281.209 291.152C280.412 291.654 280.445 292.665 280.526 293.506C280.881 297.243 289.167 298.75 291.723 300.739C292.021 300.97 292.269 301.117 292.275 301.549L285.801 338.78V338.784Z" fill="#DCC698"/>
<path d="M274.845 149.355L275.18 152.034C272.028 151.093 267.52 149.221 267.128 153.862C266.766 158.155 267.299 163.107 267.289 167.453C267.895 169.425 272.457 170.952 274.346 171.113C277.829 171.404 278.747 170.932 281.206 168.776L281.875 171.455C279.206 171.478 271.469 173.189 269.811 175.299C267.701 177.991 270.789 182.384 273.934 181.43C274.316 181.312 276.366 179.404 277.401 178.868C279.531 177.766 281.922 176.722 284.217 177.653C294.7 181.895 283.731 206.242 276.195 208.472C273.16 209.369 268.176 206.466 266.887 207.708C266.093 208.472 264.546 213.987 263.846 215.547C257.743 229.182 244.299 242.85 229.307 245.978C197.086 252.695 176.253 220.201 174.029 192.048C172.722 175.496 178.44 149.593 186.693 135.07C189.567 130.011 190.622 132.05 195.056 132.854C202.961 134.287 210.413 134.26 218.076 131.621C221.114 130.573 220.967 129.81 224.782 129.927C233.715 130.195 243.733 131.524 252.461 133.393C255.382 134.019 263.628 135.683 265.782 137.153C267.657 138.435 266.502 142.048 266.823 144.148C267.329 147.419 271.918 149.177 274.842 149.358L274.845 149.355ZM193.371 140.736C189.697 141.218 183.896 144.901 184.75 149.177C185.497 152.921 189.788 148.196 191.141 147.543C191.834 147.208 192.949 146.864 193.706 146.76C196.594 146.368 202.164 148.722 201.845 144.168C201.634 141.161 195.729 140.424 193.371 140.732V140.736ZM251.319 154.967C253.751 146.643 242.751 139.942 235.47 142.638C232.891 143.595 232.492 146.864 234.659 147.838C236.83 148.816 240.253 147.965 243.026 149.184C247.005 150.935 247.156 156.467 251.319 154.963V154.967ZM194.015 159.845C187.54 159.953 186.73 174.699 191.971 175.459C198.536 176.414 200.063 159.742 194.015 159.845ZM236.562 161.483C234.606 161.935 233.139 165.257 232.733 167.028C230.335 177.549 239.891 180.395 242.199 171.133C243.19 167.148 242.008 160.227 236.562 161.483ZM211.78 162.816C211.317 162.956 210.517 163.87 210.249 164.306C208.725 166.767 207.72 170.477 206.116 173.233C204.26 176.424 198.312 182.712 197.829 185.706C197.036 190.621 202.8 195.982 207.389 196.531C210.262 196.876 215.126 195.845 215.548 192.352C216.197 186.968 207.104 190.641 204.82 186.707C203.641 184.678 207.023 181.935 208.129 180.268C210.118 177.257 215.199 167.678 214.489 164.336C214.208 163.01 213.069 162.427 211.776 162.819L211.78 162.816ZM281.808 183.918C278.747 184.229 273.368 188.227 272.856 191.398C272.417 194.124 273.412 196.012 276.309 194.519C277.826 193.735 280.509 189.473 281.443 189.238C282.053 189.084 282.586 189.848 283.379 189.908C287.358 190.213 286.585 183.432 281.805 183.921L281.808 183.918ZM247.966 206.53C249.283 205.093 248.161 200.121 247.32 198.47C246.134 196.146 242.788 193.534 240.189 193.213C239.161 193.086 236.729 192.932 236.384 194.13C235.631 196.735 239.774 197.094 238.334 198.741C237.717 199.444 233.286 201.229 232.154 201.604C221.6 205.127 208.387 205.214 197.739 202.167C196.694 201.869 192.39 200.844 192.149 200.027C191.908 199.21 193.187 196.665 190.618 196.605C187.051 196.521 183.759 205.716 188.803 208.083C189.429 208.378 190.742 208.452 191.037 208.696C191.278 208.897 191.61 210.411 191.938 210.976C201.842 227.97 229.193 225.358 240.156 210.601C241.09 209.342 242.838 205.066 244.486 205.639C244.965 205.806 246.255 208.401 247.97 206.53H247.966ZM204.076 225.757C201.453 227.993 205.121 231.526 207.298 232.788C212.115 235.581 218.626 235.079 222.099 230.394C222.98 229.209 223.657 226.53 221.741 226.359C221.061 226.299 217.752 227.776 216.301 227.95C213.813 228.251 210.855 228 208.454 227.277C206.769 226.771 205.724 225.559 204.076 225.753V225.757Z" fill="#DCC698"/>
<path d="M203.168 343.23C203.098 343.368 203.373 343.847 202.957 343.914C196.426 343.441 189.295 342.243 183.29 339.5C182.004 338.911 179.207 337.672 178.695 336.393C178.4 333.486 177.663 330.55 177.388 327.653C175.804 310.961 176.762 296.027 177.395 279.456C177.442 278.237 177.572 275.839 177.372 274.765C176.983 272.689 173.657 273.502 173.188 275.253C172.726 278.692 172.013 282.382 171.691 285.811C171.453 288.349 172.167 291.092 171.011 293.503C159.322 301.325 145.877 308.393 131.492 308.738C142.575 298.127 144.142 283.213 138.686 269.236C137.655 266.594 136.03 264.15 135.173 261.531C138.08 261.113 141.058 260.942 143.951 260.426C160.353 257.507 174.853 247.575 191.777 246.129C190.28 257.584 197.716 268.66 208.186 272.936L205.516 292.173C205.433 293.057 205.6 293.961 205.51 294.845C204.19 307.841 203.463 320.478 203.168 333.523C203.168 333.634 203.168 333.748 203.168 333.858C203.155 334.414 203.182 334.977 203.168 335.532C203.162 335.757 203.175 335.978 203.168 336.202C203.162 336.426 203.168 336.647 203.168 336.872C203.168 336.982 203.168 337.096 203.168 337.207C203.165 338.653 203.168 340.113 203.168 341.56V343.234V343.23Z" fill="#DCC698"/>
<path d="M188.096 240.433C177.234 241.849 167.467 246.986 157.362 250.729C156.294 251.124 152.241 252.681 151.484 252.504C146.095 244.227 141.965 234.694 139.691 225.033C131.82 191.589 143.985 154.371 171.179 133.286C171.168 134.973 170.462 136.761 170.345 138.479C170.154 141.205 170.529 143.984 171.252 146.606C171.641 148.012 173.362 151.29 173.369 152.198C173.379 153.691 171.249 159.842 170.78 162.015C164.912 189.144 167.092 213.685 184.754 235.902C185.266 236.545 188.773 239.713 188.093 240.429L188.096 240.433Z" fill="#235C57"/>
<path d="M182.402 361.647C182.241 361.583 181.803 361.845 181.719 361.436L179.723 344.573C180.302 344.516 180.845 344.567 181.407 344.727C188.508 346.756 192.484 349.418 200.66 349.924C202.073 350.011 207.492 350.229 208.209 349.355C208.427 349.09 208.789 348.099 208.839 347.731C209.743 341.221 208.665 331.595 208.846 324.637C208.862 323.96 209.144 323.347 209.167 322.678C209.502 312.478 210.148 302.078 211.21 291.838C212.021 284.02 213.257 276.228 214.245 268.429C203.718 266.259 196.041 257.895 196.808 246.798L203.758 250.227C206.086 257.517 213.779 262.687 220.98 264.317C239.546 268.52 261.079 257.393 264.971 238.086C266.569 238.862 268.377 239.144 270.025 239.733C270.444 239.884 270.548 239.525 270.477 240.239C270.246 242.482 267.466 248.978 266.314 251.158C261.464 260.346 248.646 268.851 238.424 270.489C235.051 271.028 231.581 270.874 228.195 271.312C226.587 271.768 226.205 275.391 225.991 276.81C223.693 292.116 223.05 308.835 222.615 324.332C222.417 331.357 221.798 338.7 222.253 345.762C222.38 347.721 222.528 350.661 224.373 351.679C226.651 352.934 235.004 353.828 237.828 353.966C254.029 354.753 270.35 352.251 285.235 345.916C284.83 349.954 285.164 354.1 284.9 358.134C284.85 358.911 284.562 361.232 284.233 361.654H182.412L182.402 361.647Z" fill="#AC3420"/>
<path d="M271.549 215.376C275.689 215.591 278.231 215.229 281.651 212.915C290.597 206.865 297.631 190.635 294.091 180.177C293.568 178.637 291.8 176.296 291.93 175.007C292.044 173.862 294.878 168.635 295.528 166.854C296.68 163.693 297.812 159.849 298.254 156.52C298.703 153.145 298.445 149.683 299.128 146.348C319.791 170.808 325.528 205.539 313.949 235.497C312.817 238.43 311.357 242.013 309.736 244.679C309.337 245.335 308.627 246.782 307.847 246.795C293.83 240.155 278.962 235.785 264.037 231.657C263.41 231.325 263.079 231.131 263.256 230.391C263.608 228.941 267.195 224.045 268.203 222.247C269.443 220.041 270.461 217.663 271.549 215.38V215.376Z" fill="#235C57"/>
<path d="M292.929 144.332L283.554 139.477L283.212 138.814C284.056 133.453 278.422 132.073 274.497 130.449C263.702 125.983 239.094 119.279 227.941 121.385C222.93 122.333 218.82 125.166 213.957 126.491C206.98 128.393 199.159 127.945 192.109 126.421C188.431 125.628 185.397 124.385 181.964 122.942C180.353 123.351 180.49 127.188 181.103 128.383C181.716 129.579 184.221 130.356 182.389 131.762C180.865 132.934 177.897 130.901 176.742 129.729C171.852 124.757 172.753 114.059 177.924 109.532C178.36 109.455 180.627 112.418 181.424 112.994C182.309 113.633 183.3 114.109 184.342 114.43C203.601 120.374 217.202 87.3011 240.183 98.1167C244.741 100.263 245.444 102.62 248.392 105.982C251.5 109.528 253.543 107.797 257.264 107.502C266.043 106.809 273.164 110.613 277.243 118.325C278.265 120.253 279.37 124.429 280.533 125.751C281.454 126.8 284.756 127.918 286.391 129.271C291.14 133.202 292.533 138.345 292.929 144.329V144.332Z" fill="#AC3420"/>
<path d="M127.804 285.299C128.866 286.029 127.003 292.324 126.528 293.566C122.629 303.722 113.76 308.494 103.022 306.729L111.958 304.114C117.123 301.88 121.939 297.916 118.483 291.879C122.582 288.229 123.738 282.081 122.281 276.928C121.862 275.441 119.832 272.595 119.755 272.056C119.631 271.188 121.035 267.85 121.286 266.561C123.996 252.765 113.747 246.721 101.826 244.471C95.5695 236.103 95.6399 222.776 104.201 215.996C107.58 213.317 113.422 212.021 114.075 217.831C114.926 225.395 110.565 231.452 113.06 239.606C115.358 247.116 121.119 249.916 125.406 255.725C130.607 262.78 133.063 273.308 128.209 281.184C127.359 282.566 123.336 286.277 127.804 285.299Z" fill="#DCC698"/>
<path d="M116.406 269.223C115.87 269.675 111.901 267.217 110.95 266.825C101.357 262.874 89.7516 264.197 79.8877 266.387C76.9537 261.387 77.2987 255.092 82.9122 252.31C95.191 246.222 121.112 250.98 116.406 269.223Z" fill="#DCC698"/>
<path d="M89.8925 270.335C98.7516 269.554 119.97 270.549 117.679 284.05C117.525 284.961 116.048 288.359 114.973 288.262C106.495 283.692 95.4123 281.98 85.9201 283.775C84.7947 283.99 82.3932 285.158 81.5994 284.81C78.5348 282.258 77.0141 275.31 80.6047 272.766C82.5172 271.409 87.501 270.542 89.8925 270.331V270.335Z" fill="#DCC698"/>
<path d="M92.3038 300.708C92.1498 301.291 92.545 301.378 92.8029 301.713C93.4192 302.52 94.5982 302.781 94.645 303.719C89.3999 303.97 78.1025 295.137 84.8247 290.382C90.3143 286.501 106.746 289.33 112.3 292.94C118.603 297.038 111.111 300.062 107.044 300.879C102.158 301.857 97.1604 301.884 92.3072 300.708H92.3038Z" fill="#DCC698"/>
<path d="M211.21 252.487C219.751 254.905 229.558 253.8 237.841 250.82C246.124 247.84 253.118 242.151 259.435 236.08C256.973 254.898 231.913 264.465 216 256.569C215.414 256.278 210.494 253.214 211.21 252.487Z" fill="#DCC698"/>
<path d="M293.267 361.647C293.753 360.92 293.763 359.189 294.024 358.714C294.114 358.546 294.694 358.453 294.895 358.098C296.777 354.779 298.649 351.411 300.803 348.26C307.22 355.201 316.059 359.183 325.421 360.311C325.274 361.838 324.975 361.627 323.746 361.647H319.392C318.612 361.647 317.828 361.647 317.047 361.647C316.937 361.647 316.823 361.647 316.713 361.647C315.711 361.654 314.7 361.614 313.698 361.647C313.33 361.66 312.854 361.547 312.693 361.982C312.278 362.002 311.752 362.025 311.353 361.982C311.32 361.824 311.169 361.66 311.019 361.647C306.39 361.202 300.937 361.818 296.281 361.982C296.234 361.48 295.323 361.48 295.276 361.982C294.72 361.962 294.158 361.995 293.602 361.982L293.267 361.647Z" fill="#DCC698"/>
<path d="M122.448 147.011C122.572 155.65 122.013 164.255 122.18 172.894C122.304 173.313 127.734 179.039 128.226 179.24C129.958 179.943 132.912 179.25 134.838 179.494C134.617 180.248 134.442 181.738 134.114 182.287C133.32 183.616 129.244 182.106 127.703 182.438L118.908 173.819L119.099 144.57C117.461 143.555 115.25 142.048 115.418 139.855C115.736 135.703 121.932 134.665 122.442 139.477C122.622 141.198 122.12 142.571 122.093 144.148C122.073 145.256 122.435 146.311 122.445 147.011H122.448Z" fill="#AC3420"/>
<path d="M362.599 161.744L356.754 168.089C356.661 173.306 356.707 178.58 355.984 183.757L341.166 198.577C336.012 199.722 330.666 199.083 325.421 199.25V195.898H339.492C339.508 195.594 339.606 195.292 339.843 195.091C344.509 191.17 348.384 186.422 353.03 182.478C354.376 179.946 353.144 171.662 353.552 168.267C353.864 165.665 358.288 162.595 359.933 160.555C360.777 160.13 362.117 161.63 362.602 161.744H362.599Z" fill="#AC3420"/>
<path d="M96.6582 162.079C97.1774 161.982 98.3597 161.088 98.8956 160.78L105.521 167.785L105.769 183.275L117.927 195.898H132.162L131.83 199.25L116.771 199.063C111.838 194.639 107.386 189.71 102.861 184.842C102.51 183.201 102.721 181.487 102.687 179.826C102.613 176.226 102.801 172.613 102.62 169.01L96.6582 162.079Z" fill="#AC3420"/>
<path d="M274.845 149.355C276.764 149.472 278.519 149.305 280.043 148.022C280.777 147.406 281.44 145.698 282.375 145.678L292.275 151.253C292.289 155.513 291.569 159.715 290.249 163.753C288.685 162.504 285.145 161.523 283.868 160.257C283.021 159.414 282.944 158.104 282.395 157.043C280.857 154.076 278.221 152.941 275.18 152.034L274.845 149.355Z" fill="#AC3420"/>
<path d="M135.508 273.583C137.886 281.756 137.889 290.72 134.131 298.488C131.364 304.208 124.977 310.694 118.094 309.411C117.93 308.628 118.198 308.872 118.526 308.661C119.444 308.072 120.536 307.72 121.551 307.007C127.503 302.815 131.947 294.453 132.178 287.161C132.225 285.721 131.669 284.057 131.897 282.875C132.068 281.98 133.14 280.537 133.511 279.452C134.128 277.661 134.429 275.92 134.848 274.085C134.965 273.566 134.623 273.502 135.508 273.583Z" fill="#DCC698"/>
<path d="M325.756 207.283C325.839 206.181 325.695 205.04 325.756 203.935H345.35L362.941 186.362C363.466 186.124 367.261 186.044 367.573 186.241C367.717 186.332 368.859 188.78 369.298 189.201L363.939 189.369C360.83 193.129 357.139 196.421 353.716 199.91C351.399 202.274 348.491 206.968 345.025 207.293C338.925 207.866 331.949 206.841 325.752 207.28L325.756 207.283Z" fill="#AC3420"/>
<path d="M344.847 146.676C344.938 156.38 344.696 166.074 344.258 175.721C342.409 177.73 340.51 179.839 338.487 181.671C337.107 182.92 333.932 185.997 332.294 186.194C329.758 186.499 326.68 185.957 324.081 186.188C323.947 185.12 323.954 183.931 323.746 182.839L332.783 183L341.324 174.796L341.521 149.211C341.638 147.463 343.702 147.439 344.847 146.676Z" fill="#AC3420"/>
<path d="M131.827 207.283L112.062 206.784C106.783 200.523 100.952 194.73 95.918 188.271L90.2944 188.197C90.9844 187.387 91.4399 185.947 91.9557 185.002L96.6549 185.023L113.75 203.76L131.301 203.637C132.145 203.834 131.803 206.449 131.83 207.28L131.827 207.283Z" fill="#AC3420"/>
<path d="M324.416 221.347C324.503 220.814 324.496 218.055 324.945 217.978L353.368 218.028C355.193 218.028 354.969 220.322 355.565 221.347H324.416Z" fill="#AC3420"/>
<path d="M273.405 157.461C279.795 155.546 282.217 167.748 273.073 165.692C269.999 164.999 270.652 158.288 273.405 157.461Z" fill="#AC3420"/>
<path d="M274.423 135.696C279.065 134.782 280.787 141.57 276.828 143.803C271.379 146.877 268.18 136.929 274.423 135.696Z" fill="#AC3420"/>
<path d="M93.2216 150.095C97.6629 149.231 99.083 156.36 94.7255 156.993C90.368 157.625 88.8708 150.942 93.2216 150.095Z" fill="#AC3420"/>
<path d="M377.232 180.264C380.599 183.392 375.209 188.897 372.128 184.862C369.314 181.179 374.389 177.619 377.232 180.264Z" fill="#AC3420"/>
<path d="M86.4929 185.066C83.4851 188.227 78.5046 184.195 81.2444 180.656C83.9842 177.117 89.6848 181.711 86.4929 185.066Z" fill="#AC3420"/>
<path d="M363.838 150.095C368.886 148.601 370.098 155.385 366.3 156.571C361.4 158.101 360.636 151.042 363.838 150.095Z" fill="#AC3420"/>
<path d="M340.078 136.028C345.584 135.234 344.877 144.814 338.902 142.407C335.955 141.218 336.876 136.49 340.078 136.028Z" fill="#AC3420"/>
<path d="M360.362 219.569C357.257 216.18 362.515 211.134 365.463 214.971C368.41 218.808 362.723 222.147 360.362 219.569Z" fill="#AC3420"/>
<path d="M281.209 168.776C281.695 168.351 282.231 167.092 283.048 167.098L287.529 170.015L286.9 172.462C285.064 171.856 283.855 171.438 281.879 171.458L281.209 168.779V168.776Z" fill="#AC3420"/>
<path d="M176.373 137.3L179.394 138.479C178.885 140.16 177.532 141.55 177.375 143.331C176.815 143.616 176.373 142.755 176.373 142.494V137.304V137.3Z" fill="#AC3420"/>
<path d="M280.204 361.647C279.866 362.196 278.513 362.186 278.195 361.647H280.204Z" fill="#235C57"/>
<path d="M263.457 361.647C263.236 362.176 262.004 362.176 261.782 361.647H263.457Z" fill="#235C57"/>
<path d="M204.508 361.647C204.287 362.176 203.055 362.176 202.833 361.647H204.508Z" fill="#235C57"/>
<path d="M266.137 361.647C265.725 362.106 265.222 362.112 264.797 361.647H266.137Z" fill="#235C57"/>
<path d="M216.566 361.647C216.144 362.116 215.635 362.106 215.226 361.647H216.566Z" fill="#235C57"/>
<path d="M220.585 361.647C220.173 362.106 219.671 362.116 219.245 361.647H220.585Z" fill="#235C57"/>
<path d="M209.197 361.647C208.862 362.052 208.527 362.052 208.192 361.647H209.197Z" fill="#235C57"/>
<path d="M218.576 361.647C218.237 362.052 217.906 362.056 217.571 361.647H218.576Z" fill="#235C57"/>
<path d="M213.216 361.647C212.882 362.052 212.547 362.052 212.212 361.647H213.216Z" fill="#235C57"/>
<path d="M249.055 361.647C248.72 362.052 248.385 362.049 248.05 361.647H249.055Z" fill="#235C57"/>
<path d="M313.698 361.647C313.537 362.086 313.058 361.965 312.693 361.982C312.854 361.547 313.329 361.66 313.698 361.647Z" fill="#235C57"/>
<path d="M296.281 361.982C295.95 361.995 295.608 361.992 295.276 361.982C295.323 361.48 296.234 361.48 296.281 361.982Z" fill="#235C57"/>
<path d="M258.768 361.647C258.433 362.052 258.098 362.052 257.763 361.647H258.768Z" fill="#235C57"/>
<path d="M183.407 361.647C182.891 362.273 182.734 361.781 182.402 361.647H183.407Z" fill="#235C57"/>
<path d="M277.19 361.647C276.858 362.052 276.52 362.049 276.185 361.647H277.19Z" fill="#235C57"/>
<path d="M228.959 361.647L228.553 361.875L228.289 361.647H228.959Z" fill="#235C57"/>
<path d="M232.308 361.647L231.903 361.875L231.638 361.647H232.308Z" fill="#235C57"/>
<path d="M221.925 361.647L221.657 361.878L221.255 361.647H221.925Z" fill="#235C57"/>
<path d="M197.14 361.647L196.734 361.875L196.47 361.647H197.14Z" fill="#235C57"/>
<path d="M195.465 361.647L195.197 361.875L194.795 361.647H195.465Z" fill="#235C57"/>
<path d="M193.455 361.647L193.187 361.875L192.785 361.647H193.455Z" fill="#235C57"/>
<path d="M284.223 361.647C283.952 361.995 283.975 362.096 283.553 361.647H284.223Z" fill="#235C57"/>
<path d="M185.082 361.647L184.676 361.875L184.412 361.647H185.082Z" fill="#235C57"/>
<path d="M203.168 336.199C203.175 335.974 203.162 335.753 203.168 335.529L203.396 335.797L203.168 336.199Z" fill="#235C57"/>
<path d="M274.175 361.647L273.907 361.875L273.505 361.647H274.175Z" fill="#235C57"/>
<path d="M311.353 361.982C311.199 361.965 311.055 361.804 311.019 361.647C311.169 361.66 311.32 361.824 311.353 361.982Z" fill="#235C57"/>
<path d="M323.411 361.647H323.746C323.699 361.647 323.569 361.861 323.411 361.647Z" fill="#235C57"/>
<path d="M203.168 343.23V342.896C203.403 343.08 203.235 343.103 203.168 343.23Z" fill="#235C57"/>
<path d="M247.966 206.53C246.248 208.401 244.962 205.806 244.483 205.639C242.839 205.066 241.09 209.342 240.152 210.601C229.19 225.358 201.839 227.97 191.935 210.976C191.603 210.411 191.275 208.897 191.034 208.696C190.742 208.452 189.426 208.375 188.8 208.083C183.756 205.716 187.048 196.521 190.615 196.605C193.184 196.665 191.915 199.25 192.146 200.027C192.387 200.844 196.691 201.865 197.736 202.167C208.383 205.214 221.597 205.13 232.151 201.604C233.283 201.226 237.714 199.444 238.33 198.741C239.771 197.097 235.627 196.739 236.381 194.13C236.729 192.932 239.158 193.086 240.186 193.213C242.785 193.538 246.131 196.149 247.317 198.47C248.161 200.121 249.283 205.093 247.963 206.53H247.966ZM237.999 203.603C226.145 208.12 214.643 209.413 202.1 207.179C199.997 206.804 197.558 205.853 195.612 205.622C195.113 205.562 195.03 205.572 195.12 206.114C195.375 207.631 196.162 208.699 197.123 209.801C204.95 218.798 223.596 217.124 232.744 210.903C235.162 209.259 237.784 206.64 237.995 203.6L237.999 203.603Z" fill="#092C2E"/>
<path d="M211.78 162.816C213.073 162.424 214.211 163.01 214.493 164.332C215.199 167.674 210.122 177.257 208.132 180.264C207.027 181.932 203.644 184.674 204.823 186.703C207.111 190.638 216.204 186.965 215.551 192.349C215.129 195.845 210.266 196.873 207.392 196.528C202.803 195.979 197.039 190.618 197.833 185.702C198.315 182.705 204.264 176.42 206.119 173.229C207.724 170.473 208.732 166.763 210.252 164.302C210.52 163.87 211.321 162.953 211.783 162.812L211.78 162.816Z" fill="#092C2E"/>
<path d="M236.562 161.483C242.008 160.224 243.19 167.148 242.199 171.133C239.891 180.395 230.335 177.552 232.733 167.028C233.139 165.253 234.606 161.935 236.562 161.483Z" fill="#092C2E"/>
<path d="M251.319 154.967C247.156 156.47 247.005 150.939 243.026 149.187C240.253 147.969 236.83 148.816 234.659 147.841C232.492 146.867 232.891 143.595 235.47 142.641C242.751 139.942 253.751 146.646 251.319 154.97V154.967Z" fill="#092C2E"/>
<path d="M194.015 159.845C200.064 159.745 198.536 176.414 191.971 175.459C186.726 174.696 187.54 159.953 194.015 159.845Z" fill="#092C2E"/>
<path d="M204.076 225.757C205.724 225.562 206.772 226.774 208.454 227.28C210.855 228 213.813 228.251 216.301 227.953C217.752 227.779 221.057 226.302 221.741 226.363C223.657 226.533 222.977 229.212 222.099 230.397C218.626 235.082 212.115 235.584 207.298 232.792C205.121 231.529 201.457 227.997 204.076 225.76V225.757Z" fill="#092C2E"/>
<path d="M193.372 140.736C195.729 140.428 201.638 141.164 201.845 144.171C202.164 148.729 196.594 146.371 193.706 146.763C192.949 146.867 191.834 147.208 191.141 147.547C189.791 148.2 185.497 152.924 184.75 149.181C183.896 144.905 189.697 141.221 193.372 140.739V140.736Z" fill="#092C2E"/>
<path d="M281.808 183.918C286.588 183.429 287.362 190.209 283.383 189.905C282.589 189.844 282.056 189.081 281.447 189.235C280.512 189.473 277.829 193.732 276.312 194.515C273.415 196.012 272.42 194.12 272.859 191.395C273.371 188.224 278.747 184.226 281.812 183.914L281.808 183.918Z" fill="#092C2E"/>
<path d="M237.999 203.603C237.784 206.64 235.162 209.262 232.747 210.906C223.6 217.128 204.954 218.802 197.126 209.804C196.168 208.703 195.378 207.635 195.123 206.118C195.033 205.575 195.116 205.565 195.616 205.626C197.562 205.857 200 206.808 202.103 207.183C214.643 209.416 226.148 208.127 238.002 203.606L237.999 203.603Z" fill="#DCC698"/>
</g>
<defs>
<clipPath id="clip0_11_430">
<rect width="311" height="276" fill="white" transform="translate(72 90)"/>
</clipPath>
</defs>
</svg>
