<svg width="456" height="456" viewBox="0 0 456 456" fill="none" xmlns="http://www.w3.org/2000/svg">
<g clip-path="url(#clip0_6_239)">
<rect width="456" height="532" fill="#235C57"/>
<rect y="-55" width="456" height="185" fill="#DDAD2E"/>
<g clip-path="url(#clip1_6_239)">
<path d="M368.445 456.001H159.276V450.197C158.516 436.902 155.946 423.816 154.413 410.627C152.804 396.751 152.263 382.933 152.567 368.941L143.038 374.821C124.839 384.983 99.0994 391.858 78.3612 387.483C75.8986 386.965 72.4705 385.304 70.5263 385.032C67.8849 384.666 63.63 385.286 60.707 385.027C47.835 383.884 24.9337 374.915 26.5337 358.887C26.6723 357.485 28.0355 354.967 27.8075 354.07C27.6198 353.329 25.4074 351.712 24.7549 350.842C21.5861 346.627 20.1112 341.046 20.8352 335.787C21.1391 333.573 23.3202 329.514 23.356 328.09C23.3873 326.795 21.3671 323.407 20.9291 321.621C17.1569 306.281 25.1437 298.262 39.209 294.762C42.6326 293.909 46.1188 293.681 49.5736 293.047C49.9178 292.574 47.5982 286.659 47.3076 285.449C44.6573 274.568 46.4584 262.612 53.6095 253.781C60.1975 245.642 73.8739 239.861 81.0697 250.384C88.9359 261.893 78.7948 272.524 82.1871 284.538C84.4575 292.579 91.622 296.374 96.4848 302.401C97.4055 303.539 100.807 309.116 101.173 309.321C103.193 310.446 116.016 307.406 119.051 306.865C115.971 300.838 112.307 295.092 109.589 288.864C103.243 274.332 100.306 260.215 99.8324 244.365C99.8011 243.258 100.253 239.771 99.1262 239.508L75.7064 239.673L52.8944 214.689L46.6238 214.662C45.9355 215.921 45.3277 217.841 44.407 218.922C39.1956 225.051 28.84 223.252 25.7292 215.926C21.7112 206.479 30.9406 197.764 40.2504 201.42C43.6204 202.746 44.845 205.171 46.4763 208.148C48.711 208.648 58.2756 207.505 59.393 208.64C59.8265 209.082 59.9114 210.452 60.2735 210.443L60.9439 207.76C60.9886 209.974 60.707 212.26 61.1763 214.448C67.2145 220.935 73.1544 227.507 79.7378 233.409L99.8324 233.659L100.275 229.19H81.2798L65.0557 212.359L64.725 191.705L55.8845 182.365C55.1649 182.776 53.5872 183.964 52.8989 184.098C42.9634 185.973 33.7876 175.057 39.942 166.467C46.0964 157.877 59.6343 161.493 60.4478 172.329C60.6668 175.244 59.536 176.566 59.2097 179.142C62.4098 180.633 71.0627 188.272 71.599 191.58C71.7688 192.616 71.2101 193.549 71.2057 194.576C71.1967 197.237 70.799 208.318 71.6482 209.796L84.0553 222.85L100.677 222.895L101.616 217.591C97.7228 217.118 93.3562 217.881 90.0264 215.551C88.1046 214.207 78.4193 204.278 77.2752 202.394C75.5455 199.536 76.5958 197.25 76.4975 194.598C76.1221 184.365 76.8014 174.177 76.5958 163.886C68.5955 159.033 70.7051 145.523 79.8004 143.34C93.4232 140.068 99.086 158.261 87.318 164.02C87.3046 163.083 86.8263 161.681 86.8487 160.203C86.8844 158.1 87.5549 156.27 87.3135 153.975C86.6386 147.559 78.3702 148.943 77.9411 154.479C77.7176 157.404 80.6675 159.408 82.853 160.765L82.5983 199.764L94.335 211.256C96.3909 210.814 101.83 212.827 102.889 211.055C103.327 210.323 103.56 208.336 103.855 207.331C104.481 205.188 104.95 202.978 105.634 200.849C113.554 176.137 127.981 154.6 148.951 139.17C146.279 130.576 146.623 119.508 151.678 111.789C154.494 107.494 159.45 103.815 164.836 104.672C168.103 105.19 167.62 110.972 172.228 112.463C178.19 114.387 185.632 110.704 190.437 107.422C198.669 101.797 204.833 95.6983 214.393 91.6176C231.332 84.3939 250.966 87.8852 261.93 103.221C272.665 102.489 284.456 104.833 292.907 111.789C298.065 116.035 301.569 123.321 303.428 129.629C309.645 132.871 314.539 137.067 318.012 143.188C320.712 147.939 320.394 148.425 324.216 152.618C333.329 162.618 341.512 174.106 347.068 186.491C349.892 192.79 351.783 199.465 354.581 205.773L364.999 205.898L372.821 198.532L373.822 163.873C365.026 159.765 365.285 147.443 374.229 143.684C386.738 138.434 394.895 156.39 384.084 163.574C382.551 164.592 379.802 164.623 379.645 166.953L379.382 201.068L367.985 212.006L355.926 211.792C356.203 213.247 356.194 214.827 356.373 216.256C356.655 218.466 357.522 220.658 357.263 222.958L373.934 222.864L388.575 208.916C390.167 202.389 388.987 195.63 389.644 189C392.669 184.54 396.804 180.923 400.862 177.405C397.689 167.909 405.89 157.855 415.834 162.44C427.987 168.043 420.42 186.656 407.767 183.669C407.115 183.517 405.331 181.513 404.205 182.084C402.011 184.803 396.106 188.897 395.691 192.366C395.145 196.893 396.79 207.943 394.994 211.314C388.794 216.573 383.623 222.908 377.397 228.132C377.08 228.4 376.95 228.802 376.928 229.208H358.156V233.677C365.151 233.458 372.284 234.307 379.163 232.78C378.953 234.757 382.376 233.164 382.966 232.78L405.541 210.238L413.56 209.988C414.498 199.527 429.158 197.023 433.775 206.572C439.295 217.997 424.666 227.873 416.706 220.274C416.116 219.712 414.596 216.448 414.404 216.328C413.989 216.064 408.929 216.171 408.223 216.488L384.75 239.919H358.603C358.523 241.392 358.715 242.914 358.603 244.383C358.398 247.031 358.125 249.79 357.71 252.419H398.158C402.212 245.508 411.392 243.937 416.491 250.625C424.599 261.25 410.234 274.613 400.214 265.099C399.968 264.862 398.448 263.251 398.381 263.135C397.59 261.768 397.885 258.715 395.449 258.71L357.522 258.643C356.923 258.746 356.932 262.425 356.816 263.135C354.617 276.461 349.58 289.096 342.692 300.637L342.706 301.53C349.11 305.602 355.908 309.044 362.139 313.406C377.219 323.956 391.686 338.761 400.527 354.976C408.375 369.365 406.681 375.25 400.826 389.921C392.459 410.882 380.383 431.133 368.436 450.202M314.807 160.444C314.28 152.466 312.416 145.613 306.083 140.367C303.902 138.563 299.495 137.072 298.266 135.674C296.715 133.911 295.24 128.343 293.877 125.772C288.433 115.49 278.931 110.423 267.217 111.342C262.251 111.735 259.525 114.043 255.377 109.315C251.444 104.833 250.506 101.69 244.423 98.828C213.758 84.4073 195.608 128.509 169.909 120.58C168.519 120.151 167.2 119.517 166.016 118.664C164.952 117.896 161.926 113.945 161.345 114.048C154.444 120.084 153.242 134.348 159.767 140.978C161.309 142.545 165.265 145.251 167.303 143.688C169.748 141.809 166.396 140.751 165.587 139.184C164.778 137.616 164.585 132.473 166.735 131.929C171.321 133.848 175.366 135.505 180.273 136.567C189.677 138.599 200.117 139.197 209.427 136.661C215.917 134.893 221.401 131.112 228.087 129.853C242.97 127.044 275.812 135.982 290.212 141.938C295.45 144.104 302.968 145.943 301.842 153.091L302.298 153.975L314.807 160.449V160.444ZM290.677 167.141C286.775 166.9 280.652 164.556 279.977 160.194C279.544 157.399 281.09 152.577 278.587 150.867C275.718 148.907 264.71 146.684 260.812 145.854C249.165 143.362 235.792 141.59 223.877 141.233C218.786 141.081 218.987 142.099 214.929 143.492C204.703 147.015 194.759 147.046 184.211 145.135C178.293 144.063 176.885 141.344 173.051 148.09C162.038 167.458 154.404 201.996 156.152 224.06C159.119 261.599 186.919 304.923 229.915 295.967C249.92 291.802 267.861 273.573 276.004 255.393C276.938 253.312 278.998 245.959 280.062 244.941C281.783 243.285 288.433 247.16 292.483 245.959C302.539 242.986 317.181 210.524 303.187 204.867C300.125 203.63 296.93 205.019 294.092 206.488C292.711 207.202 289.975 209.751 289.466 209.903C285.265 211.171 281.148 205.313 283.964 201.728C286.176 198.911 296.501 196.634 300.063 196.603C302.7 196.581 304.313 197.134 306.763 197.942L307.603 194.679L301.623 190.79C300.537 190.781 299.817 192.464 299.169 193.027C295.884 195.906 294.664 196.531 290.016 196.143C287.495 195.933 281.407 193.893 280.598 191.263C280.612 185.464 279.901 178.861 280.384 173.141C280.907 166.953 286.918 169.445 291.128 170.704C295.339 171.963 298.704 173.427 300.756 177.383C301.489 178.794 301.591 180.544 302.722 181.669C304.421 183.356 309.149 184.665 311.236 186.33C312.993 180.946 313.958 175.342 313.94 169.663L300.729 162.23C299.482 162.257 298.597 164.534 297.618 165.355C295.584 167.065 293.242 167.293 290.682 167.132L290.677 167.141ZM174.919 288.578C175.826 287.623 171.142 283.399 170.463 282.542C146.895 252.92 143.986 220.194 151.816 184.026C152.442 181.129 155.289 172.923 155.271 170.936C155.262 169.726 152.96 165.355 152.447 163.48C151.481 159.984 150.985 156.279 151.235 152.644C151.396 150.358 152.335 147.97 152.348 145.72C116.061 173.833 99.8279 223.458 110.331 268.05C113.366 280.93 118.877 293.641 126.068 304.678C127.078 304.919 132.486 302.838 133.912 302.311C147.396 297.32 160.429 290.471 174.923 288.583L174.919 288.578ZM290.114 148.93C281.783 150.568 286.051 163.837 293.323 159.739C298.606 156.761 296.309 147.711 290.114 148.93ZM377.724 149.372C373.451 149.988 372.226 156.292 376.155 157.877C384.128 161.087 385.071 148.314 377.724 149.372ZM159.276 151.068V157.989C159.276 158.337 159.866 159.484 160.612 159.105C160.818 156.729 162.628 154.877 163.307 152.635L159.276 151.064V151.068ZM286.279 255.17C284.827 258.215 283.468 261.38 281.814 264.327C280.464 266.724 275.682 273.251 275.213 275.185C274.971 276.176 275.418 276.435 276.254 276.872C296.17 282.373 316.01 288.199 334.714 297.057C335.756 297.039 336.703 295.11 337.235 294.235C339.398 290.681 341.347 285.904 342.858 281.993C358.308 242.044 350.648 195.737 323.08 163.127C322.169 167.574 322.508 172.19 321.914 176.691C321.324 181.133 319.813 186.258 318.276 190.469C317.409 192.844 313.628 199.813 313.476 201.34C313.306 203.059 315.666 206.18 316.358 208.233C321.078 222.176 311.692 243.816 299.759 251.884C295.196 254.969 291.808 255.451 286.279 255.165V255.17ZM48.3177 168.128C42.5119 169.257 44.2505 178.2 50.3245 177.325C56.3985 176.45 54.2442 166.98 48.3177 168.128ZM409.43 168.128C405.157 169.391 406.176 178.803 412.715 176.762C417.783 175.182 416.165 166.136 409.43 168.128ZM288.755 177.95C285.081 179.048 284.21 188 288.313 188.924C300.514 191.67 297.283 175.396 288.755 177.95ZM39.3386 214.756C43.598 210.282 36.076 204.054 32.3351 208.876C28.5941 213.698 35.3251 218.971 39.3386 214.756ZM427.303 208.354C423.508 204.827 416.737 209.577 420.492 214.484C424.603 219.859 431.795 212.524 427.303 208.354ZM94.4646 348.4C88.5024 349.699 93.8657 344.757 95.0054 342.913C101.482 332.412 98.2055 318.375 91.2645 308.968C85.5436 301.222 77.8562 297.49 74.7902 287.476C71.4649 276.604 77.2841 268.528 76.1444 258.442C75.2729 250.701 67.4782 252.428 62.9685 255.996C51.5491 265.036 51.4508 282.806 59.7997 293.963C75.7064 296.967 89.3829 305.022 85.7671 323.416C85.4274 325.135 83.5592 329.586 83.7246 330.742C83.8274 331.461 86.5314 335.26 87.0945 337.238C89.0387 344.105 87.4968 352.306 82.0262 357.173C86.6431 365.218 80.2116 370.504 73.3197 373.486L61.3953 376.973C75.7243 379.326 87.5593 372.964 92.7617 359.423C93.3964 357.766 95.8859 349.377 94.4646 348.4ZM404.791 260.759C407.941 264.197 415.334 259.496 411.597 254.629C407.669 249.513 400.652 256.241 404.791 260.759ZM205.762 304.651C204.806 305.62 211.371 309.709 212.154 310.093C233.388 320.621 266.828 307.865 270.113 282.774C261.684 290.869 252.459 298.414 241.299 302.428C230.139 306.441 217.164 307.874 205.762 304.651ZM303.191 450.197C303.629 449.635 304.014 446.541 304.081 445.505C304.434 440.125 303.987 434.602 304.528 429.214C284.67 437.661 262.886 440.996 241.267 439.947C237.5 439.763 226.353 438.571 223.314 436.897C220.851 435.54 220.65 431.62 220.485 429.008C219.877 419.592 220.704 409.801 220.967 400.435C221.548 379.772 222.406 357.481 225.473 337.073C225.759 335.18 226.268 330.345 228.413 329.742C232.932 329.157 237.562 329.367 242.063 328.644C255.708 326.461 272.813 315.12 279.28 302.87C280.817 299.963 284.527 291.302 284.835 288.31C284.934 287.36 284.795 287.837 284.232 287.636C282.033 286.851 279.62 286.476 277.488 285.44C272.294 311.183 243.565 326.019 218.786 320.416C209.177 318.241 198.911 311.348 195.804 301.628L186.53 297.057C185.507 311.852 195.755 323.005 209.798 325.898C208.48 336.296 206.831 346.681 205.749 357.11C204.332 370.767 203.47 384.63 203.023 398.229C202.991 399.122 202.62 399.939 202.594 400.841C202.352 410.123 203.791 422.954 202.585 431.633C202.518 432.129 202.03 433.446 201.744 433.799C200.788 434.964 193.556 434.674 191.67 434.558C180.76 433.884 175.455 430.334 165.98 427.629C165.229 427.414 164.505 427.347 163.732 427.423L166.396 449.907C166.507 450.452 167.093 450.104 167.307 450.188C167.75 450.367 167.96 451.023 168.648 450.188H169.989L170.347 450.492L170.883 450.188H181.163L181.699 450.492L182.056 450.188H183.844L184.381 450.492L184.738 450.188H186.079L186.437 450.492L186.973 450.188H194.571C194.866 450.894 196.511 450.894 196.806 450.188H201.722C202.169 450.729 202.616 450.729 203.063 450.188H207.085C207.532 450.729 207.979 450.729 208.426 450.188H211.108C211.653 450.8 212.332 450.813 212.896 450.188H214.236C214.683 450.733 215.126 450.729 215.577 450.188H216.471C217.039 450.813 217.709 450.8 218.259 450.188H219.153L219.694 450.496L220.047 450.188H228.539L228.896 450.492L229.432 450.188H233.008L233.366 450.492L233.902 450.188H254.908C255.355 450.724 255.802 450.729 256.249 450.188H267.87C268.316 450.729 268.763 450.729 269.21 450.188H273.233C273.528 450.894 275.173 450.894 275.468 450.188H277.255C277.823 450.809 278.493 450.8 279.043 450.188H288.876L289.412 450.487L289.77 450.188H292.451C292.898 450.724 293.35 450.729 293.792 450.188H295.133C295.558 450.907 297.363 450.921 297.815 450.188H302.284C302.847 450.787 302.816 450.653 303.178 450.188L303.191 450.197ZM305.297 419.713L313.936 370.071C313.927 369.49 313.596 369.299 313.198 368.99C309.784 366.343 298.731 364.329 298.257 359.347C298.15 358.226 298.105 356.878 299.169 356.208C300.335 355.632 301.976 356.342 303.174 356.686C308.537 358.226 315.192 361.289 320.336 363.651C324.573 365.597 356.373 382.299 356.82 384.358C357.401 387.041 348.127 385.134 346.764 386.349L329.11 424.057C334.428 431.187 342.581 436.116 351.122 438.71C353.49 439.429 360.342 441.348 362.452 441.232C364.329 441.125 369.585 431.95 370.76 429.964C376.758 419.833 382.819 408.074 387.744 397.372C391.257 389.738 398.149 375.161 397.009 366.972C396.178 360.99 385.054 346.078 380.741 341.256C357.669 315.455 324.922 298.883 291.799 289.895L290.887 290.36C284.335 316.893 261.183 336.729 233.509 337.292C227.864 367.356 227.81 397.97 228.114 428.539C228.311 430.022 229.593 430.04 230.769 430.352C240.137 432.87 257.818 432.013 267.655 430.999C280.795 429.647 293.958 426.651 305.297 419.717V419.713ZM195.031 412.695C195.429 395.3 196.394 378.451 198.155 361.124C198.276 359.945 198.053 358.744 198.164 357.561L201.726 331.912C187.755 326.211 177.833 311.442 179.831 296.168C157.247 298.101 137.903 311.343 116.012 315.232C112.146 315.92 108.177 316.147 104.297 316.705C105.442 320.197 107.609 323.456 108.986 326.978C116.262 345.618 114.175 365.499 99.3854 379.647C118.582 379.188 136.522 369.763 152.12 359.334C153.658 356.115 152.706 352.462 153.028 349.078C153.457 344.507 154.409 339.582 155.025 335.001C155.651 332.666 160.089 331.586 160.608 334.35C160.876 335.783 160.702 338.979 160.639 340.604C159.794 362.7 158.516 382.616 160.63 404.868C160.997 408.725 161.98 412.645 162.373 416.521C163.057 418.222 166.789 419.878 168.505 420.664C176.519 424.32 186.034 425.919 194.75 426.548C195.308 426.459 194.937 425.82 195.031 425.637C195.121 425.468 195.344 425.437 195.031 425.191V423.405C195.031 421.476 195.027 419.53 195.031 417.601V417.155C195.031 416.856 195.022 416.561 195.031 416.262L195.335 415.726L195.031 415.369C195.049 414.628 195.013 413.878 195.031 413.137V412.69V412.695ZM79.2551 326.965C85.5347 302.642 50.9502 296.298 34.5608 304.414C27.0701 308.124 26.6097 316.518 30.5249 323.184C43.6874 320.268 59.174 318.5 71.9744 323.768C73.2437 324.291 78.54 327.563 79.2551 326.965ZM43.8751 328.447C40.6795 328.729 34.0334 329.885 31.4814 331.693C26.6902 335.082 28.7193 344.35 32.8088 347.752C33.8725 348.221 37.0726 346.658 38.5744 346.373C51.2407 343.98 66.0301 346.261 77.3422 352.355C78.7769 352.485 80.7479 347.953 80.9535 346.739C84.0106 328.738 55.6968 327.412 43.8751 328.452V328.447ZM104.744 332.778C103.56 332.671 104.02 332.756 103.864 333.448C103.305 335.894 102.898 338.211 102.081 340.604C101.584 342.051 100.154 343.975 99.9262 345.167C99.6223 346.743 100.364 348.958 100.302 350.882C99.9933 360.606 94.0668 371.754 86.1202 377.344C84.7659 378.295 83.3134 378.764 82.0843 379.549C81.6463 379.831 81.2887 379.505 81.5077 380.549C90.6924 382.259 99.2156 373.611 102.907 365.986C107.927 355.628 107.918 343.676 104.744 332.778ZM47.0931 368.946C53.5693 370.513 60.2422 370.477 66.7586 369.174C72.1845 368.089 82.1781 364.053 73.7711 358.588C66.3608 353.775 44.4338 350.002 37.1084 355.177C28.1383 361.517 43.2181 373.294 50.2128 372.96C50.1547 371.705 48.577 371.357 47.7546 370.285C47.4104 369.839 46.883 369.723 47.0886 368.946H47.0931ZM312.121 438.589L338.84 383.447L322.178 373.402C321.109 373.205 321.011 375.701 320.832 376.522C316.479 396.894 313.507 417.655 311.227 438.362L312.121 438.589ZM355.931 450.197C357.571 450.17 357.969 450.447 358.165 448.416C345.673 446.911 333.879 441.603 325.315 432.348C322.441 436.549 319.943 441.04 317.431 445.465C317.163 445.938 316.39 446.067 316.269 446.286C315.925 446.92 315.907 449.228 315.259 450.197L315.706 450.644C316.448 450.662 317.199 450.617 317.941 450.644C318.383 450.657 318.839 450.662 319.281 450.644C325.494 450.425 332.77 449.603 338.947 450.197C338.996 450.407 339.188 450.621 339.394 450.644C339.926 450.702 340.627 450.671 341.182 450.644C341.669 450.621 342.308 450.782 342.522 450.197C343.859 450.153 345.209 450.206 346.545 450.197H346.992C348.033 450.197 349.079 450.197 350.12 450.197H355.484C355.694 450.483 355.868 450.197 355.931 450.197Z" fill="#092C2E"/>
<path d="M305.297 419.712C293.958 426.641 280.796 429.636 267.656 430.994C257.818 432.007 240.137 432.864 230.769 430.346C229.598 430.029 228.311 430.016 228.114 428.534C227.811 397.969 227.864 367.355 233.509 337.286C261.184 336.723 284.335 316.887 290.888 290.354L291.799 289.89C324.922 298.877 357.665 315.45 380.741 341.251C385.054 346.072 396.174 360.984 397.01 366.967C398.149 375.155 391.258 389.732 387.745 397.366C382.819 408.068 376.759 419.828 370.761 429.958C369.585 431.945 364.329 441.119 362.452 441.227C360.343 441.347 353.495 439.427 351.122 438.704C342.586 436.11 334.433 431.181 329.11 424.051L346.764 386.343C348.132 385.129 357.402 387.035 356.821 384.352C356.374 382.289 324.574 365.587 320.337 363.645C315.192 361.283 308.537 358.221 303.174 356.68C301.976 356.336 300.336 355.627 299.169 356.203C298.106 356.872 298.15 358.221 298.258 359.341C298.731 364.324 309.789 366.333 313.199 368.985C313.597 369.293 313.928 369.489 313.936 370.065L305.297 419.707V419.712Z" fill="#EDD598"/>
<path d="M290.678 167.14L291.125 170.711C286.919 169.457 280.903 166.961 280.38 173.149C279.897 178.873 280.608 185.476 280.595 191.271C281.404 193.901 287.491 195.936 290.012 196.151C294.66 196.539 295.885 195.91 299.165 193.034L300.059 196.606C296.497 196.637 286.173 198.919 283.96 201.731C281.144 205.321 285.265 211.179 289.462 209.906C289.972 209.75 292.707 207.205 294.088 206.491C296.93 205.022 300.122 203.629 303.183 204.87C317.172 210.527 302.535 242.989 292.479 245.962C288.43 247.159 281.779 243.288 280.058 244.944C278.999 245.962 276.934 253.316 276 255.396C267.857 273.576 249.916 291.801 229.911 295.97C186.915 304.927 159.116 261.602 156.148 224.063C154.405 201.995 162.034 167.457 173.047 148.094C176.882 141.348 178.289 144.067 184.207 145.138C194.755 147.049 204.699 147.013 214.925 143.495C218.979 142.098 218.782 141.08 223.873 141.236C235.793 141.593 249.161 143.366 260.808 145.857C264.706 146.692 275.71 148.911 278.583 150.871C281.086 152.581 279.544 157.398 279.973 160.197C280.648 164.559 286.771 166.903 290.673 167.144L290.678 167.14ZM181.959 155.648C177.056 156.291 169.315 161.202 170.454 166.903C171.451 171.895 177.177 165.595 178.982 164.724C179.907 164.278 181.396 163.818 182.406 163.68C186.258 163.157 193.691 166.296 193.266 160.224C192.985 156.215 185.105 155.233 181.959 155.643V155.648ZM259.284 174.622C262.529 163.523 247.852 154.59 238.135 158.184C234.694 159.461 234.162 163.818 237.053 165.117C239.95 166.421 244.517 165.287 248.218 166.912C253.528 169.247 253.729 176.623 259.284 174.618V174.622ZM182.817 181.127C174.178 181.27 173.096 200.932 180.091 201.946C188.851 203.218 190.889 180.989 182.817 181.127ZM239.592 183.311C236.982 183.913 235.024 188.342 234.484 190.704C231.283 204.732 244.035 208.527 247.114 196.178C248.437 190.865 246.859 181.636 239.592 183.311ZM206.523 185.087C205.906 185.275 204.838 186.494 204.48 187.074C202.447 190.356 201.106 195.302 198.965 198.977C196.489 203.232 188.551 211.616 187.908 215.608C186.848 222.162 194.54 229.309 200.663 230.042C204.498 230.501 210.988 229.126 211.551 224.47C212.418 217.291 200.283 222.188 197.235 216.942C195.662 214.237 200.176 210.58 201.651 208.357C204.306 204.343 211.086 191.57 210.139 187.114C209.763 185.346 208.244 184.57 206.518 185.092L206.523 185.087ZM299.97 213.223C295.885 213.639 288.707 218.969 288.023 223.197C287.437 226.832 288.765 229.35 292.631 227.358C294.655 226.314 298.235 220.63 299.482 220.318C300.296 220.112 301.007 221.13 302.066 221.211C307.375 221.617 306.343 212.576 299.965 213.228L299.97 213.223ZM254.811 243.373C256.567 241.458 255.07 234.828 253.948 232.627C252.366 229.528 247.901 226.046 244.432 225.617C243.06 225.448 239.816 225.242 239.355 226.84C238.35 230.314 243.878 230.792 241.956 232.988C241.134 233.926 235.221 236.305 233.71 236.805C219.627 241.502 201.995 241.618 187.787 237.556C186.392 237.158 180.649 235.792 180.327 234.703C180.006 233.613 181.713 230.22 178.285 230.14C173.525 230.028 169.132 242.288 175.863 245.444C176.698 245.837 178.45 245.936 178.844 246.262C179.165 246.529 179.608 248.547 180.046 249.302C193.262 271.96 229.759 268.477 244.388 248.802C245.635 247.123 247.968 241.422 250.167 242.185C250.806 242.409 252.527 245.869 254.815 243.373H254.811ZM196.243 269.009C192.744 271.991 197.638 276.701 200.543 278.384C206.97 282.108 215.658 281.438 220.293 275.192C221.469 273.612 222.371 270.04 219.815 269.812C218.908 269.732 214.492 271.701 212.557 271.933C209.236 272.335 205.289 272 202.085 271.036C199.837 270.361 198.442 268.745 196.243 269.004V269.009Z" fill="#EDD598"/>
<path d="M195.032 425.641C194.938 425.824 195.304 426.462 194.75 426.551C186.035 425.922 176.519 424.324 168.506 420.667C166.789 419.881 163.057 418.229 162.374 416.524C161.98 412.649 160.997 408.733 160.631 404.871C158.517 382.615 159.795 362.703 160.64 340.608C160.702 338.983 160.876 335.786 160.608 334.353C160.09 331.585 155.652 332.67 155.026 335.005C154.409 339.59 153.457 344.51 153.028 349.082C152.711 352.466 153.663 356.122 152.121 359.337C136.522 369.766 118.582 379.191 99.386 379.651C114.175 365.502 116.267 345.617 108.986 326.982C107.61 323.459 105.442 320.2 104.298 316.709C108.177 316.151 112.151 315.923 116.012 315.235C137.899 311.342 157.247 298.1 179.831 296.171C177.833 311.445 187.756 326.214 201.727 331.915L198.165 357.564C198.053 358.743 198.277 359.948 198.156 361.127C196.395 378.454 195.425 395.304 195.032 412.698C195.032 412.845 195.032 412.997 195.032 413.144C195.014 413.885 195.05 414.635 195.032 415.377C195.023 415.676 195.041 415.97 195.032 416.269C195.023 416.569 195.032 416.863 195.032 417.162C195.032 417.31 195.032 417.461 195.032 417.609C195.027 419.538 195.032 421.484 195.032 423.413V425.645V425.641Z" fill="#EDD598"/>
<path d="M174.919 288.577C160.425 290.466 147.392 297.314 133.908 302.306C132.482 302.833 127.074 304.909 126.064 304.672C118.873 293.635 113.362 280.925 110.327 268.044C99.8241 223.452 116.057 173.828 152.344 145.714C152.331 147.964 151.388 150.348 151.231 152.639C150.977 156.273 151.477 159.978 152.443 163.474C152.961 165.349 155.258 169.72 155.267 170.93C155.281 172.921 152.438 181.123 151.812 184.02C143.982 220.193 146.892 252.914 170.459 282.536C171.143 283.394 175.822 287.617 174.915 288.573L174.919 288.577Z" fill="#235C57"/>
<path d="M167.321 450.196C167.107 450.111 166.521 450.459 166.41 449.915L163.746 427.431C164.519 427.355 165.243 427.422 165.994 427.636C175.469 430.342 180.774 433.891 191.684 434.565C193.57 434.681 200.802 434.972 201.758 433.806C202.049 433.454 202.532 432.132 202.599 431.641C203.805 422.962 202.366 410.126 202.608 400.849C202.63 399.947 203.005 399.13 203.037 398.237C203.484 384.638 204.346 370.771 205.763 357.118C206.845 346.693 208.494 336.304 209.812 325.906C195.765 323.013 185.521 311.86 186.544 297.064L195.818 301.636C198.925 311.356 209.191 318.249 218.8 320.423C243.574 326.026 272.308 311.19 277.502 285.447C279.634 286.483 282.047 286.858 284.246 287.644C284.805 287.845 284.943 287.367 284.85 288.318C284.541 291.309 280.832 299.971 279.294 302.877C272.822 315.128 255.718 326.468 242.077 328.651C237.576 329.37 232.946 329.165 228.427 329.75C226.282 330.357 225.773 335.188 225.487 337.081C222.421 357.488 221.562 379.78 220.981 400.442C220.718 409.809 219.891 419.6 220.499 429.016C220.669 431.628 220.865 435.548 223.328 436.905C226.367 438.579 237.514 439.771 241.282 439.954C262.9 441.003 284.68 437.668 304.542 429.221C304.001 434.606 304.448 440.133 304.095 445.513C304.028 446.548 303.644 449.642 303.206 450.205H167.335L167.321 450.196Z" fill="#DDAD2E"/>
<path d="M286.28 255.168C291.804 255.454 295.196 254.972 299.76 251.887C311.697 243.819 321.083 222.179 316.359 208.236C315.662 206.183 313.302 203.062 313.476 201.343C313.628 199.816 317.409 192.847 318.276 190.472C319.814 186.257 321.325 181.132 321.915 176.694C322.513 172.194 322.169 167.577 323.081 163.13C350.653 195.744 358.309 242.051 342.858 281.996C341.348 285.907 339.399 290.684 337.236 294.238C336.704 295.113 335.756 297.042 334.715 297.06C316.01 288.207 296.171 282.38 276.255 276.875C275.419 276.433 274.977 276.174 275.213 275.188C275.683 273.255 280.469 266.727 281.815 264.33C283.468 261.388 284.827 258.218 286.28 255.173V255.168Z" fill="#235C57"/>
<path d="M314.808 160.443L302.298 153.969L301.842 153.085C302.969 145.937 295.451 144.098 290.213 141.933C275.808 135.977 242.971 127.039 228.088 129.847C221.401 131.11 215.917 134.887 209.428 136.655C200.118 139.191 189.682 138.593 180.274 136.562C175.366 135.503 171.317 133.847 166.736 131.923C164.586 132.468 164.769 137.584 165.587 139.178C166.405 140.772 169.748 141.807 167.303 143.683C165.27 145.245 161.31 142.535 159.768 140.973C153.243 134.343 154.445 120.078 161.346 114.042C161.927 113.939 164.953 117.891 166.016 118.658C167.196 119.511 168.519 120.145 169.909 120.574C195.608 128.498 213.759 84.4015 244.424 98.8222C250.506 101.684 251.445 104.827 255.378 109.31C259.526 114.038 262.252 111.729 267.218 111.337C278.932 110.412 288.434 115.484 293.878 125.766C295.241 128.338 296.716 133.905 298.267 135.669C299.496 137.066 303.903 138.557 306.084 140.361C312.421 145.602 314.281 152.46 314.808 160.438V160.443Z" fill="#DDAD2E"/>
<path d="M94.4651 348.398C95.8819 349.372 93.3969 357.765 92.7623 359.422C87.5599 372.963 75.7248 379.325 61.3958 376.972L73.3203 373.485C80.2121 370.507 86.6392 365.221 82.0267 357.171C87.4973 352.305 89.0392 344.108 87.095 337.237C86.5364 335.255 83.8279 331.46 83.7251 330.741C83.5597 329.585 85.4324 325.133 85.7676 323.414C89.3834 305.02 75.7069 296.962 59.8002 293.961C51.4513 282.804 51.5452 265.035 62.9691 255.994C67.4787 252.423 75.2734 250.695 76.1449 258.441C77.2802 268.527 71.461 276.603 74.7907 287.474C77.8567 297.488 85.5442 301.221 91.265 308.967C98.206 318.374 101.482 332.411 95.0059 342.911C93.8707 344.755 88.5029 349.702 94.4651 348.398Z" fill="#EDD598"/>
<path d="M79.2557 326.964C78.5406 327.567 73.2443 324.29 71.975 323.767C59.1746 318.499 43.688 320.262 30.5255 323.182C26.6103 316.517 27.0706 308.123 34.5614 304.413C50.9463 296.296 85.5352 302.641 79.2557 326.964Z" fill="#EDD598"/>
<path d="M43.8757 328.446C55.6973 327.406 84.0112 328.732 80.9541 346.733C80.7485 347.948 78.7775 352.479 77.3428 352.35C66.0307 346.255 51.2413 343.974 38.5749 346.367C37.0732 346.653 33.8686 348.211 32.8094 347.747C28.7199 344.345 26.6907 335.081 31.482 331.687C34.034 329.879 40.6845 328.723 43.8757 328.442V328.446Z" fill="#EDD598"/>
<path d="M47.0937 368.945C46.8881 369.721 47.4155 369.837 47.7596 370.284C48.582 371.36 50.1553 371.708 50.2178 372.958C43.2187 373.293 28.1433 361.515 37.1135 355.176C44.4389 350.001 66.3659 353.774 73.7762 358.587C82.1877 364.051 72.1895 368.083 66.7637 369.172C60.2428 370.476 53.5744 370.512 47.0982 368.945H47.0937Z" fill="#EDD598"/>
<path d="M205.763 304.65C217.16 307.873 230.246 306.4 241.299 302.426C252.352 298.453 261.684 290.867 270.114 282.773C266.829 307.864 233.388 320.62 212.154 310.092C211.372 309.704 204.806 305.619 205.763 304.65Z" fill="#EDD598"/>
<path d="M315.26 450.196C315.908 449.227 315.921 446.919 316.27 446.285C316.39 446.062 317.163 445.937 317.432 445.464C319.943 441.039 322.442 436.548 325.316 432.347C333.879 441.602 345.674 446.91 358.166 448.415C357.969 450.451 357.572 450.169 355.931 450.196H350.121C349.08 450.196 348.034 450.196 346.992 450.196C346.845 450.196 346.693 450.196 346.546 450.196C345.209 450.205 343.859 450.151 342.523 450.196C342.031 450.214 341.397 450.062 341.182 450.642C340.628 450.669 339.926 450.701 339.394 450.642C339.35 450.433 339.149 450.214 338.948 450.196C332.771 449.602 325.495 450.424 319.282 450.642C319.219 449.973 318.004 449.973 317.941 450.642C317.199 450.616 316.448 450.66 315.706 450.642L315.26 450.196Z" fill="#EDD598"/>
<path d="M87.3186 164.014C87.484 175.533 86.7376 187.007 86.9611 198.526C87.1264 199.084 94.3714 206.718 95.0284 206.986C97.3391 207.924 101.281 207 103.851 207.326C103.556 208.33 103.324 210.317 102.886 211.049C101.826 212.822 96.3871 210.808 94.3311 211.25L82.5944 199.758L82.8492 160.76C80.6636 159.407 77.7138 157.398 77.9373 154.474C78.3619 148.937 86.6303 147.553 87.3097 153.969C87.551 156.264 86.8806 158.094 86.8448 160.197C86.818 161.675 87.3007 163.081 87.3141 164.014H87.3186Z" fill="#DDAD2E"/>
<path d="M407.777 183.659L399.978 192.119C399.852 199.075 399.915 206.107 398.95 213.009L379.177 232.769C372.298 234.296 365.165 233.444 358.166 233.667V229.198H376.942C376.964 228.792 377.094 228.39 377.411 228.122C383.637 222.894 388.808 216.563 395.008 211.304C396.804 207.928 395.159 196.883 395.705 192.356C396.12 188.887 402.025 184.793 404.219 182.074C405.345 181.507 407.133 183.507 407.781 183.659H407.777Z" fill="#DDAD2E"/>
<path d="M52.9039 184.105C53.5967 183.976 55.1744 182.784 55.8895 182.373L64.73 191.713L65.0608 212.366L81.2848 229.198H100.28L99.8374 233.667L79.7429 233.417C73.1594 227.519 67.2195 220.947 61.1813 214.456C60.712 212.268 60.9936 209.982 60.9489 207.768C60.8506 202.968 61.1009 198.151 60.8595 193.347L52.9039 184.105Z" fill="#DDAD2E"/>
<path d="M290.678 167.14C293.239 167.296 295.581 167.073 297.614 165.363C298.593 164.541 299.478 162.264 300.725 162.238L313.937 169.671C313.954 175.35 312.993 180.953 311.233 186.338C309.145 184.672 304.421 183.364 302.718 181.676C301.587 180.551 301.485 178.806 300.752 177.39C298.7 173.435 295.183 171.921 291.125 170.711L290.678 167.14Z" fill="#DDAD2E"/>
<path d="M104.745 332.777C107.918 343.675 107.923 355.627 102.908 365.985C99.2162 373.61 90.693 382.258 81.5083 380.548C81.2893 379.503 81.6469 379.829 82.0849 379.548C83.3095 378.762 84.7665 378.293 86.1208 377.342C94.0629 371.753 99.9939 360.605 100.302 350.881C100.365 348.961 99.6229 346.742 99.9268 345.166C100.155 343.974 101.585 342.05 102.081 340.603C102.903 338.215 103.306 335.893 103.864 333.446C104.021 332.754 103.565 332.67 104.745 332.777Z" fill="#EDD598"/>
<path d="M358.613 244.377C358.725 242.909 358.533 241.386 358.613 239.913H384.759L408.233 216.483C408.934 216.166 413.998 216.058 414.414 216.322C414.606 216.442 416.13 219.706 416.716 220.269L409.564 220.492C405.417 225.506 400.492 229.894 395.924 234.546C392.831 237.698 388.951 243.958 384.326 244.391C376.187 245.154 366.877 243.788 358.608 244.373L358.613 244.377Z" fill="#DDAD2E"/>
<path d="M384.089 163.568C384.209 176.506 383.888 189.431 383.302 202.294C380.835 204.973 378.301 207.785 375.601 210.228C373.76 211.893 369.523 215.996 367.337 216.259C363.954 216.666 359.846 215.942 356.378 216.25C356.199 214.826 356.208 213.241 355.931 211.786L367.99 212L379.387 201.062L379.651 166.948C379.807 164.617 382.56 164.586 384.089 163.568Z" fill="#DDAD2E"/>
<path d="M99.8329 244.377L73.4588 243.712C66.415 235.363 58.6337 227.64 51.9162 219.027L44.412 218.929C45.3327 217.849 45.9405 215.929 46.6288 214.67L52.8994 214.697L75.7114 239.681L99.1312 239.515C100.258 239.779 99.8016 243.266 99.8374 244.373L99.8329 244.377Z" fill="#DDAD2E"/>
<path d="M356.825 263.129C356.941 262.419 356.932 258.74 357.531 258.637L395.459 258.704C397.895 258.704 397.595 261.763 398.391 263.129H356.825Z" fill="#DDAD2E"/>
<path d="M288.756 177.949C297.283 175.395 300.515 191.664 288.313 188.923C284.21 187.998 285.082 179.051 288.756 177.949Z" fill="#DDAD2E"/>
<path d="M290.114 148.929C296.309 147.71 298.606 156.759 293.323 159.737C286.052 163.836 281.783 150.572 290.114 148.929Z" fill="#DDAD2E"/>
<path d="M48.3183 168.126C54.2447 166.974 56.1398 176.48 50.3251 177.323C44.5103 178.167 42.5125 169.256 48.3183 168.126Z" fill="#DDAD2E"/>
<path d="M427.304 208.353C431.795 212.522 424.604 219.862 420.492 214.482C416.738 209.571 423.509 204.825 427.304 208.353Z" fill="#DDAD2E"/>
<path d="M39.3392 214.755C35.3257 218.969 28.6796 213.594 32.3356 208.875C35.9916 204.156 43.5986 210.281 39.3392 214.755Z" fill="#DDAD2E"/>
<path d="M409.43 168.126C416.166 166.135 417.784 175.18 412.715 176.761C406.177 178.801 405.158 169.39 409.43 168.126Z" fill="#DDAD2E"/>
<path d="M377.724 149.371C385.072 148.312 384.129 161.086 376.155 157.876C372.222 156.291 373.451 149.987 377.724 149.371Z" fill="#DDAD2E"/>
<path d="M404.791 260.758C400.648 256.24 407.665 249.512 411.598 254.628C415.531 259.745 407.942 264.196 404.791 260.758Z" fill="#DDAD2E"/>
<path d="M299.17 193.034C299.818 192.467 300.533 190.789 301.623 190.798L307.603 194.686L306.763 197.95C304.314 197.142 302.7 196.584 300.063 196.611L299.17 193.039V193.034Z" fill="#DDAD2E"/>
<path d="M159.276 151.067L163.308 152.639C162.628 154.88 160.823 156.733 160.613 159.108C159.866 159.487 159.276 158.34 159.276 157.992V151.072V151.067Z" fill="#DDAD2E"/>
<path d="M297.829 450.196C297.377 450.928 295.572 450.915 295.147 450.196H297.829Z" fill="#235C57"/>
<path d="M275.482 450.196C275.187 450.901 273.542 450.901 273.247 450.196H275.482Z" fill="#235C57"/>
<path d="M196.82 450.196C196.525 450.901 194.88 450.901 194.585 450.196H196.82Z" fill="#235C57"/>
<path d="M279.057 450.196C278.507 450.808 277.837 450.817 277.269 450.196H279.057Z" fill="#235C57"/>
<path d="M212.91 450.196C212.346 450.821 211.667 450.808 211.122 450.196H212.91Z" fill="#235C57"/>
<path d="M218.273 450.196C217.723 450.808 217.053 450.821 216.485 450.196H218.273Z" fill="#235C57"/>
<path d="M203.077 450.196C202.63 450.736 202.183 450.736 201.736 450.196H203.077Z" fill="#235C57"/>
<path d="M215.591 450.196C215.14 450.736 214.697 450.741 214.25 450.196H215.591Z" fill="#235C57"/>
<path d="M208.44 450.196C207.993 450.736 207.546 450.736 207.099 450.196H208.44Z" fill="#235C57"/>
<path d="M256.263 450.196C255.816 450.736 255.369 450.732 254.922 450.196H256.263Z" fill="#235C57"/>
<path d="M342.523 450.196C342.308 450.781 341.669 450.62 341.182 450.642C341.397 450.062 342.031 450.214 342.523 450.196Z" fill="#235C57"/>
<path d="M319.282 450.642C318.84 450.66 318.384 450.656 317.941 450.642C318.004 449.973 319.219 449.973 319.282 450.642Z" fill="#235C57"/>
<path d="M269.224 450.196C268.777 450.736 268.33 450.736 267.884 450.196H269.224Z" fill="#235C57"/>
<path d="M168.662 450.196C167.974 451.031 167.764 450.375 167.321 450.196H168.662Z" fill="#235C57"/>
<path d="M293.806 450.196C293.364 450.736 292.912 450.732 292.465 450.196H293.806Z" fill="#235C57"/>
<path d="M229.446 450.196L228.906 450.5L228.552 450.196H229.446Z" fill="#235C57"/>
<path d="M233.916 450.196L233.375 450.5L233.022 450.196H233.916Z" fill="#235C57"/>
<path d="M220.061 450.196L219.703 450.504L219.167 450.196H220.061Z" fill="#235C57"/>
<path d="M186.987 450.196L186.446 450.5L186.093 450.196H186.987Z" fill="#235C57"/>
<path d="M184.752 450.196L184.395 450.5L183.858 450.196H184.752Z" fill="#235C57"/>
<path d="M182.071 450.196L181.713 450.5L181.177 450.196H182.071Z" fill="#235C57"/>
<path d="M303.192 450.196C302.83 450.66 302.861 450.794 302.298 450.196H303.192Z" fill="#235C57"/>
<path d="M170.897 450.196L170.356 450.5L170.003 450.196H170.897Z" fill="#235C57"/>
<path d="M195.032 416.265C195.041 415.966 195.023 415.671 195.032 415.372L195.336 415.729L195.032 416.265Z" fill="#235C57"/>
<path d="M289.784 450.196L289.426 450.5L288.89 450.196H289.784Z" fill="#235C57"/>
<path d="M339.394 450.642C339.189 450.62 338.997 450.406 338.948 450.196C339.149 450.214 339.35 450.433 339.394 450.642Z" fill="#235C57"/>
<path d="M355.484 450.196H355.931C355.869 450.196 355.694 450.482 355.484 450.196Z" fill="#235C57"/>
<path d="M195.032 425.641V425.194C195.345 425.44 195.121 425.471 195.032 425.641Z" fill="#235C57"/>
<path d="M254.81 243.373C252.518 245.869 250.801 242.409 250.162 242.185C247.968 241.422 245.635 247.123 244.383 248.802C229.755 268.477 193.257 271.96 180.041 249.302C179.599 248.547 179.161 246.529 178.839 246.262C178.45 245.936 176.694 245.833 175.858 245.444C169.127 242.288 173.52 230.028 178.28 230.14C181.708 230.22 180.015 233.667 180.323 234.703C180.645 235.792 186.388 237.154 187.782 237.556C201.991 241.618 219.623 241.507 233.706 236.805C235.216 236.301 241.13 233.926 241.952 232.988C243.874 230.796 238.345 230.318 239.351 226.84C239.816 225.242 243.056 225.447 244.428 225.617C247.896 226.05 252.361 229.533 253.943 232.627C255.07 234.828 256.567 241.458 254.806 243.373H254.81ZM241.509 239.471C225.692 245.494 210.344 247.217 193.606 244.239C190.799 243.739 187.546 242.471 184.949 242.163C184.283 242.083 184.171 242.096 184.292 242.819C184.631 244.842 185.682 246.266 186.965 247.735C197.41 259.731 222.291 257.499 234.497 249.204C237.724 247.012 241.223 243.52 241.505 239.466L241.509 239.471Z" fill="#092C2E"/>
<path d="M206.523 185.087C208.248 184.565 209.768 185.346 210.143 187.11C211.086 191.566 204.31 204.343 201.656 208.353C200.181 210.576 195.667 214.232 197.24 216.938C200.292 222.184 212.427 217.286 211.555 224.465C210.992 229.126 204.503 230.497 200.668 230.037C194.545 229.305 186.853 222.157 187.912 215.603C188.556 211.607 196.493 203.227 198.969 198.972C201.11 195.298 202.456 190.351 204.485 187.07C204.842 186.494 205.91 185.27 206.527 185.083L206.523 185.087Z" fill="#092C2E"/>
<path d="M239.592 183.311C246.859 181.632 248.437 190.865 247.114 196.178C244.035 208.527 231.283 204.736 234.484 190.704C235.024 188.338 236.982 183.913 239.592 183.311Z" fill="#092C2E"/>
<path d="M259.284 174.622C253.729 176.627 253.528 169.251 248.218 166.916C244.517 165.291 239.95 166.421 237.053 165.122C234.162 163.822 234.694 159.461 238.135 158.188C247.852 154.59 262.529 163.528 259.284 174.627V174.622Z" fill="#092C2E"/>
<path d="M182.817 181.127C190.889 180.993 188.851 203.218 180.09 201.946C173.091 200.928 174.177 181.27 182.817 181.127Z" fill="#092C2E"/>
<path d="M196.243 269.009C198.442 268.75 199.841 270.366 202.085 271.04C205.289 272 209.236 272.335 212.556 271.937C214.492 271.705 218.903 269.736 219.815 269.817C222.371 270.044 221.464 273.616 220.293 275.197C215.658 281.443 206.97 282.112 200.543 278.389C197.637 276.706 192.748 271.996 196.243 269.013V269.009Z" fill="#092C2E"/>
<path d="M181.959 155.648C185.105 155.237 192.989 156.219 193.266 160.228C193.691 166.305 186.258 163.162 182.406 163.684C181.396 163.822 179.907 164.278 178.982 164.729C177.181 165.599 171.451 171.899 170.454 166.908C169.315 161.206 177.056 156.295 181.959 155.652V155.648Z" fill="#092C2E"/>
<path d="M299.97 213.223C306.347 212.572 307.38 221.612 302.07 221.206C301.011 221.126 300.3 220.108 299.487 220.313C298.24 220.63 294.66 226.309 292.635 227.354C288.769 229.35 287.442 226.827 288.027 223.193C288.711 218.965 295.885 213.634 299.974 213.219L299.97 213.223Z" fill="#092C2E"/>
<path d="M241.509 239.471C241.223 243.52 237.724 247.016 234.501 249.208C222.295 257.503 197.414 259.736 186.969 247.739C185.691 246.27 184.636 244.846 184.296 242.824C184.176 242.1 184.287 242.087 184.953 242.167C187.55 242.476 190.804 243.743 193.611 244.243C210.344 247.221 225.697 245.503 241.514 239.475L241.509 239.471Z" fill="#EDD598"/>
</g>
</g>
<defs>
<clipPath id="clip0_6_239">
<rect width="456" height="456" fill="white"/>
</clipPath>
<clipPath id="clip1_6_239">
<rect width="415" height="368" fill="white" transform="translate(20 88)"/>
</clipPath>
</defs>
</svg>
