<svg width="456" height="456" viewBox="0 0 456 456" fill="none" xmlns="http://www.w3.org/2000/svg">
<g clip-path="url(#clip0_6_239)">
<rect y="-44" width="456" height="126" fill="#DDAD2E"/>
<g clip-path="url(#clip1_6_239)">
<path d="M368.445 412.001H159.276V406.197C158.516 392.902 155.946 379.816 154.413 366.627C152.804 352.751 152.263 338.933 152.567 324.941L143.038 330.821C124.839 340.983 99.0994 347.858 78.3612 343.483C75.8986 342.965 72.4705 341.304 70.5263 341.032C67.8849 340.666 63.63 341.286 60.707 341.027C47.835 339.884 24.9337 330.915 26.5337 314.887C26.6723 313.485 28.0355 310.967 27.8075 310.07C27.6198 309.329 25.4074 307.712 24.7549 306.842C21.5861 302.627 20.1112 297.046 20.8352 291.787C21.1391 289.573 23.3202 285.514 23.356 284.09C23.3873 282.795 21.3671 279.407 20.9291 277.621C17.1569 262.281 25.1437 254.262 39.209 250.762C42.6326 249.909 46.1188 249.681 49.5736 249.047C49.9178 248.574 47.5982 242.659 47.3076 241.449C44.6573 230.568 46.4584 218.612 53.6095 209.781C60.1975 201.642 73.8739 195.861 81.0697 206.384C88.9359 217.893 78.7948 228.524 82.1871 240.538C84.4575 248.579 91.622 252.374 96.4848 258.401C97.4055 259.539 100.807 265.116 101.173 265.321C103.193 266.446 116.016 263.406 119.051 262.865C115.971 256.838 112.307 251.092 109.589 244.864C103.243 230.332 100.306 216.215 99.8324 200.365C99.8011 199.258 100.253 195.771 99.1262 195.508L75.7064 195.673L52.8944 170.689L46.6238 170.662C45.9355 171.921 45.3277 173.841 44.407 174.922C39.1956 181.051 28.84 179.252 25.7292 171.926C21.7112 162.479 30.9406 153.764 40.2504 157.42C43.6204 158.746 44.845 161.171 46.4763 164.148C48.711 164.648 58.2756 163.505 59.393 164.64C59.8265 165.082 59.9114 166.452 60.2735 166.443L60.9439 163.76C60.9886 165.974 60.707 168.26 61.1763 170.448C67.2145 176.935 73.1544 183.507 79.7378 189.409L99.8324 189.659L100.275 185.19H81.2798L65.0557 168.359L64.725 147.705L55.8845 138.365C55.1649 138.776 53.5872 139.964 52.8989 140.098C42.9634 141.973 33.7876 131.057 39.942 122.467C46.0964 113.877 59.6343 117.493 60.4478 128.329C60.6668 131.244 59.536 132.566 59.2097 135.142C62.4098 136.633 71.0627 144.272 71.599 147.58C71.7688 148.616 71.2101 149.549 71.2057 150.576C71.1967 153.237 70.799 164.318 71.6482 165.796L84.0553 178.85L100.677 178.895L101.616 173.591C97.7228 173.118 93.3562 173.881 90.0264 171.551C88.1046 170.207 78.4193 160.278 77.2752 158.394C75.5455 155.536 76.5958 153.25 76.4975 150.598C76.1221 140.365 76.8014 130.177 76.5958 119.886C68.5955 115.033 70.7051 101.523 79.8004 99.3401C93.4232 96.0676 99.086 114.261 87.318 120.02C87.3046 119.083 86.8263 117.681 86.8487 116.203C86.8844 114.1 87.5549 112.27 87.3135 109.975C86.6386 103.559 78.3702 104.943 77.9411 110.479C77.7176 113.404 80.6675 115.408 82.853 116.765L82.5983 155.764L94.335 167.256C96.3909 166.814 101.83 168.827 102.889 167.055C103.327 166.323 103.56 164.336 103.855 163.331C104.481 161.188 104.95 158.978 105.634 156.849C113.554 132.137 127.981 110.6 148.951 95.1702C146.279 86.5758 146.623 75.508 151.678 67.7887C154.494 63.4938 159.45 59.8149 164.836 60.6721C168.103 61.19 167.62 66.9717 172.228 68.4629C178.19 70.3871 185.632 66.7038 190.437 63.4223C198.669 57.7969 204.833 51.6983 214.393 47.6176C231.332 40.3939 250.966 43.8852 261.93 59.2211C272.665 58.4889 284.456 60.8329 292.907 67.7887C298.065 72.0346 301.569 79.3208 303.428 85.6293C309.645 88.8706 314.539 93.0673 318.012 99.1883C320.712 103.939 320.394 104.425 324.216 108.618C333.329 118.618 341.512 130.106 347.068 142.491C349.892 148.79 351.783 155.465 354.581 161.773L364.999 161.898L372.821 154.532L373.822 119.873C365.026 115.765 365.285 103.443 374.229 99.6839C386.738 94.4335 394.895 112.39 384.084 119.574C382.551 120.592 379.802 120.623 379.645 122.953L379.382 157.068L367.985 168.006L355.926 167.792C356.203 169.247 356.194 170.827 356.373 172.256C356.655 174.466 357.522 176.658 357.263 178.958L373.934 178.864L388.575 164.916C390.167 158.389 388.987 151.63 389.644 145C392.669 140.54 396.804 136.923 400.862 133.405C397.689 123.909 405.89 113.855 415.834 118.44C427.987 124.043 420.42 142.656 407.767 139.669C407.115 139.517 405.331 137.513 404.205 138.084C402.011 140.803 396.106 144.897 395.691 148.366C395.145 152.893 396.79 163.943 394.994 167.314C388.794 172.573 383.623 178.908 377.397 184.132C377.08 184.4 376.95 184.802 376.928 185.208H358.156V189.677C365.151 189.458 372.284 190.307 379.163 188.78C378.953 190.757 382.376 189.164 382.966 188.78L405.541 166.238L413.56 165.988C414.498 155.527 429.158 153.023 433.775 162.572C439.295 173.997 424.666 183.873 416.706 176.274C416.116 175.712 414.596 172.448 414.404 172.328C413.989 172.064 408.929 172.171 408.223 172.488L384.75 195.919H358.603C358.523 197.392 358.715 198.914 358.603 200.383C358.398 203.031 358.125 205.79 357.71 208.419H398.158C402.212 201.508 411.392 199.937 416.491 206.625C424.599 217.25 410.234 230.613 400.214 221.099C399.968 220.862 398.448 219.251 398.381 219.135C397.59 217.768 397.885 214.715 395.449 214.71L357.522 214.643C356.923 214.746 356.932 218.425 356.816 219.135C354.617 232.461 349.58 245.096 342.692 256.637L342.706 257.53C349.11 261.602 355.908 265.044 362.139 269.406C377.219 279.956 391.686 294.761 400.527 310.976C408.375 325.365 406.681 331.25 400.826 345.921C392.459 366.882 380.383 387.133 368.436 406.202M314.807 116.444C314.28 108.466 312.416 101.613 306.083 96.3667C303.902 94.563 299.495 93.0718 298.266 91.6744C296.715 89.9109 295.24 84.3435 293.877 81.7719C288.433 71.4899 278.931 66.4226 267.217 67.3423C262.251 67.7351 259.525 70.0434 255.377 65.3153C251.444 60.8329 250.506 57.6898 244.423 54.828C213.758 40.4073 195.608 84.5087 169.909 76.5795C168.519 76.1509 167.2 75.517 166.016 74.6642C164.952 73.8963 161.926 69.9451 161.345 70.0478C154.444 76.084 153.242 90.3484 159.767 96.9783C161.309 98.5454 165.265 101.251 167.303 99.6884C169.748 97.8088 166.396 96.7506 165.587 95.1836C164.778 93.6165 164.585 88.4733 166.735 87.9286C171.321 89.8484 175.366 91.5047 180.273 92.5673C189.677 94.5987 200.117 95.197 209.427 92.6611C215.917 90.8931 221.401 87.1116 228.087 85.8525C242.97 83.0443 275.812 91.9824 290.212 97.9382C295.45 100.104 302.968 101.943 301.842 109.091L302.298 109.975L314.807 116.449V116.444ZM290.677 123.141C286.775 122.9 280.652 120.556 279.977 116.194C279.544 113.399 281.09 108.577 278.587 106.867C275.718 104.907 264.71 102.684 260.812 101.854C249.165 99.3624 235.792 97.59 223.877 97.2328C218.786 97.081 218.987 98.099 214.929 99.4919C204.703 103.014 194.759 103.046 184.211 101.135C178.293 100.063 176.885 97.3444 173.051 104.09C162.038 123.458 154.404 157.996 156.152 180.06C159.119 217.599 186.919 260.923 229.915 251.967C249.92 247.802 267.861 229.573 276.004 211.393C276.938 209.312 278.998 201.959 280.062 200.941C281.783 199.285 288.433 203.16 292.483 201.959C302.539 198.986 317.181 166.524 303.187 160.867C300.125 159.63 296.93 161.019 294.092 162.488C292.711 163.202 289.975 165.751 289.466 165.903C285.265 167.171 281.148 161.313 283.964 157.728C286.176 154.911 296.501 152.634 300.063 152.603C302.7 152.581 304.313 153.134 306.763 153.942L307.603 150.679L301.623 146.79C300.537 146.781 299.817 148.464 299.169 149.027C295.884 151.906 294.664 152.531 290.016 152.143C287.495 151.933 281.407 149.893 280.598 147.263C280.612 141.464 279.901 134.861 280.384 129.141C280.907 122.953 286.918 125.445 291.128 126.704C295.339 127.963 298.704 129.427 300.756 133.383C301.489 134.794 301.591 136.544 302.722 137.669C304.421 139.356 309.149 140.665 311.236 142.33C312.993 136.946 313.958 131.342 313.94 125.663L300.729 118.23C299.482 118.257 298.597 120.534 297.618 121.355C295.584 123.065 293.242 123.293 290.682 123.132L290.677 123.141ZM174.919 244.578C175.826 243.623 171.142 239.399 170.463 238.542C146.895 208.92 143.986 176.194 151.816 140.026C152.442 137.129 155.289 128.923 155.271 126.936C155.262 125.726 152.96 121.355 152.447 119.48C151.481 115.984 150.985 112.279 151.235 108.644C151.396 106.358 152.335 103.97 152.348 101.72C116.061 129.833 99.8279 179.458 110.331 224.05C113.366 236.93 118.877 249.641 126.068 260.678C127.078 260.919 132.486 258.838 133.912 258.311C147.396 253.32 160.429 246.471 174.923 244.583L174.919 244.578ZM290.114 104.93C281.783 106.568 286.051 119.837 293.323 115.739C298.606 112.761 296.309 103.711 290.114 104.93ZM377.724 105.372C373.451 105.988 372.226 112.292 376.155 113.877C384.128 117.087 385.071 104.314 377.724 105.372ZM159.276 107.068V113.989C159.276 114.337 159.866 115.484 160.612 115.105C160.818 112.729 162.628 110.877 163.307 108.635L159.276 107.064V107.068ZM286.279 211.17C284.827 214.215 283.468 217.38 281.814 220.327C280.464 222.724 275.682 229.251 275.213 231.185C274.971 232.176 275.418 232.435 276.254 232.872C296.17 238.373 316.01 244.199 334.714 253.057C335.756 253.039 336.703 251.11 337.235 250.235C339.398 246.681 341.347 241.904 342.858 237.993C358.308 198.044 350.648 151.737 323.08 119.127C322.169 123.574 322.508 128.19 321.914 132.691C321.324 137.133 319.813 142.258 318.276 146.469C317.409 148.844 313.628 155.813 313.476 157.34C313.306 159.059 315.666 162.18 316.358 164.233C321.078 178.176 311.692 199.816 299.759 207.884C295.196 210.969 291.808 211.451 286.279 211.165V211.17ZM48.3177 124.128C42.5119 125.257 44.2505 134.2 50.3245 133.325C56.3985 132.45 54.2442 122.98 48.3177 124.128ZM409.43 124.128C405.157 125.391 406.176 134.803 412.715 132.762C417.783 131.182 416.165 122.136 409.43 124.128ZM288.755 133.95C285.081 135.048 284.21 144 288.313 144.924C300.514 147.67 297.283 131.396 288.755 133.95ZM39.3386 170.756C43.598 166.282 36.076 160.054 32.3351 164.876C28.5941 169.698 35.3251 174.971 39.3386 170.756ZM427.303 164.354C423.508 160.827 416.737 165.577 420.492 170.484C424.603 175.859 431.795 168.524 427.303 164.354ZM94.4646 304.4C88.5024 305.699 93.8657 300.757 95.0054 298.913C101.482 288.412 98.2055 274.375 91.2645 264.968C85.5436 257.222 77.8562 253.49 74.7902 243.476C71.4649 232.604 77.2841 224.528 76.1444 214.442C75.2729 206.701 67.4782 208.428 62.9685 211.996C51.5491 221.036 51.4508 238.806 59.7997 249.963C75.7064 252.967 89.3829 261.022 85.7671 279.416C85.4274 281.135 83.5592 285.586 83.7246 286.742C83.8274 287.461 86.5314 291.26 87.0945 293.238C89.0387 300.105 87.4968 308.306 82.0262 313.173C86.6431 321.218 80.2116 326.504 73.3197 329.486L61.3953 332.973C75.7243 335.326 87.5593 328.964 92.7617 315.423C93.3964 313.766 95.8859 305.377 94.4646 304.4ZM404.791 216.759C407.941 220.197 415.334 215.496 411.597 210.629C407.669 205.513 400.652 212.241 404.791 216.759ZM205.762 260.651C204.806 261.62 211.371 265.709 212.154 266.093C233.388 276.621 266.828 263.865 270.113 238.774C261.684 246.869 252.459 254.414 241.299 258.428C230.139 262.441 217.164 263.874 205.762 260.651ZM303.191 406.197C303.629 405.635 304.014 402.541 304.081 401.505C304.434 396.125 303.987 390.602 304.528 385.214C284.67 393.661 262.886 396.996 241.267 395.947C237.5 395.763 226.353 394.571 223.314 392.897C220.851 391.54 220.65 387.62 220.485 385.008C219.877 375.592 220.704 365.801 220.967 356.435C221.548 335.772 222.406 313.481 225.473 293.073C225.759 291.18 226.268 286.345 228.413 285.742C232.932 285.157 237.562 285.367 242.063 284.644C255.708 282.461 272.813 271.12 279.28 258.87C280.817 255.963 284.527 247.302 284.835 244.31C284.934 243.36 284.795 243.837 284.232 243.636C282.033 242.851 279.62 242.476 277.488 241.44C272.294 267.183 243.565 282.019 218.786 276.416C209.177 274.241 198.911 267.348 195.804 257.628L186.53 253.057C185.507 267.852 195.755 279.005 209.798 281.898C208.48 292.296 206.831 302.681 205.749 313.11C204.332 326.767 203.47 340.63 203.023 354.229C202.991 355.122 202.62 355.939 202.594 356.841C202.352 366.123 203.791 378.954 202.585 387.633C202.518 388.129 202.03 389.446 201.744 389.799C200.788 390.964 193.556 390.674 191.67 390.558C180.76 389.884 175.455 386.334 165.98 383.629C165.229 383.414 164.505 383.347 163.732 383.423L166.396 405.907C166.507 406.452 167.093 406.103 167.307 406.188C167.75 406.367 167.96 407.023 168.648 406.188H169.989L170.347 406.492L170.883 406.188H181.163L181.699 406.492L182.056 406.188H183.844L184.381 406.492L184.738 406.188H186.079L186.437 406.492L186.973 406.188H194.571C194.866 406.894 196.511 406.894 196.806 406.188H201.722C202.169 406.729 202.616 406.729 203.063 406.188H207.085C207.532 406.729 207.979 406.729 208.426 406.188H211.108C211.653 406.8 212.332 406.813 212.896 406.188H214.236C214.683 406.733 215.126 406.729 215.577 406.188H216.471C217.039 406.813 217.709 406.8 218.259 406.188H219.153L219.694 406.496L220.047 406.188H228.539L228.896 406.492L229.432 406.188H233.008L233.366 406.492L233.902 406.188H254.908C255.355 406.724 255.802 406.729 256.249 406.188H267.87C268.316 406.729 268.763 406.729 269.21 406.188H273.233C273.528 406.894 275.173 406.894 275.468 406.188H277.255C277.823 406.809 278.493 406.8 279.043 406.188H288.876L289.412 406.487L289.77 406.188H292.451C292.898 406.724 293.35 406.729 293.792 406.188H295.133C295.558 406.907 297.363 406.921 297.815 406.188H302.284C302.847 406.787 302.816 406.653 303.178 406.188L303.191 406.197ZM305.297 375.713L313.936 326.071C313.927 325.49 313.596 325.299 313.198 324.99C309.784 322.343 298.731 320.329 298.257 315.347C298.15 314.226 298.105 312.878 299.169 312.208C300.335 311.632 301.976 312.342 303.174 312.686C308.537 314.226 315.192 317.289 320.336 319.651C324.573 321.597 356.373 338.299 356.82 340.358C357.401 343.041 348.127 341.134 346.764 342.349L329.11 380.057C334.428 387.187 342.581 392.116 351.122 394.71C353.49 395.429 360.342 397.348 362.452 397.232C364.329 397.125 369.585 387.95 370.76 385.964C376.758 375.833 382.819 364.074 387.744 353.372C391.257 345.738 398.149 331.161 397.009 322.972C396.178 316.99 385.054 302.078 380.741 297.256C357.669 271.455 324.922 254.883 291.799 245.895L290.887 246.36C284.335 272.893 261.183 292.729 233.509 293.292C227.864 323.356 227.81 353.97 228.114 384.539C228.311 386.022 229.593 386.04 230.769 386.352C240.137 388.87 257.818 388.013 267.655 386.999C280.795 385.647 293.958 382.651 305.297 375.717V375.713ZM195.031 368.695C195.429 351.3 196.394 334.451 198.155 317.124C198.276 315.945 198.053 314.744 198.164 313.561L201.726 287.912C187.755 282.211 177.833 267.442 179.831 252.168C157.247 254.101 137.903 267.343 116.012 271.232C112.146 271.92 108.177 272.147 104.297 272.705C105.442 276.197 107.609 279.456 108.986 282.978C116.262 301.618 114.175 321.499 99.3854 335.647C118.582 335.188 136.522 325.763 152.12 315.334C153.658 312.115 152.706 308.462 153.028 305.078C153.457 300.507 154.409 295.582 155.025 291.001C155.651 288.666 160.089 287.586 160.608 290.35C160.876 291.783 160.702 294.979 160.639 296.604C159.794 318.7 158.516 338.616 160.63 360.868C160.997 364.725 161.98 368.645 162.373 372.521C163.057 374.222 166.789 375.878 168.505 376.664C176.519 380.32 186.034 381.919 194.75 382.548C195.308 382.459 194.937 381.82 195.031 381.637C195.121 381.468 195.344 381.437 195.031 381.191V379.405C195.031 377.476 195.027 375.53 195.031 373.601V373.155C195.031 372.856 195.022 372.561 195.031 372.262L195.335 371.726L195.031 371.369C195.049 370.628 195.013 369.878 195.031 369.137V368.69V368.695ZM79.2551 282.965C85.5347 258.642 50.9502 252.298 34.5608 260.414C27.0701 264.124 26.6097 272.518 30.5249 279.184C43.6874 276.268 59.174 274.5 71.9744 279.768C73.2437 280.291 78.54 283.563 79.2551 282.965ZM43.8751 284.447C40.6795 284.729 34.0334 285.885 31.4814 287.693C26.6902 291.082 28.7193 300.35 32.8088 303.752C33.8725 304.221 37.0726 302.658 38.5744 302.373C51.2407 299.98 66.0301 302.261 77.3422 308.355C78.7769 308.485 80.7479 303.953 80.9535 302.739C84.0106 284.738 55.6968 283.412 43.8751 284.452V284.447ZM104.744 288.778C103.56 288.671 104.02 288.756 103.864 289.448C103.305 291.894 102.898 294.211 102.081 296.604C101.584 298.051 100.154 299.975 99.9262 301.167C99.6223 302.743 100.364 304.958 100.302 306.882C99.9933 316.606 94.0668 327.754 86.1202 333.344C84.7659 334.295 83.3134 334.764 82.0843 335.549C81.6463 335.831 81.2887 335.505 81.5077 336.549C90.6924 338.259 99.2156 329.611 102.907 321.986C107.927 311.628 107.918 299.676 104.744 288.778ZM47.0931 324.946C53.5693 326.513 60.2422 326.477 66.7586 325.174C72.1845 324.089 82.1781 320.053 73.7711 314.588C66.3608 309.775 44.4338 306.002 37.1084 311.177C28.1383 317.517 43.2181 329.294 50.2128 328.96C50.1547 327.705 48.577 327.357 47.7546 326.285C47.4104 325.839 46.883 325.723 47.0886 324.946H47.0931ZM312.121 394.589L338.84 339.447L322.178 329.401C321.109 329.205 321.011 331.701 320.832 332.522C316.479 352.894 313.507 373.655 311.227 394.362L312.121 394.589ZM355.931 406.197C357.571 406.17 357.969 406.447 358.165 404.416C345.673 402.911 333.879 397.603 325.315 388.348C322.441 392.549 319.943 397.04 317.431 401.465C317.163 401.938 316.39 402.067 316.269 402.286C315.925 402.92 315.907 405.228 315.259 406.197L315.706 406.644C316.448 406.662 317.199 406.617 317.941 406.644C318.383 406.657 318.839 406.662 319.281 406.644C325.494 406.425 332.77 405.603 338.947 406.197C338.996 406.407 339.188 406.621 339.394 406.644C339.926 406.702 340.627 406.671 341.182 406.644C341.669 406.621 342.308 406.782 342.522 406.197C343.859 406.153 345.209 406.206 346.545 406.197H346.992C348.033 406.197 349.079 406.197 350.12 406.197H355.484C355.694 406.483 355.868 406.197 355.931 406.197Z" fill="#092C2E"/>
<path d="M305.297 375.712C293.958 382.641 280.796 385.636 267.656 386.994C257.818 388.007 240.137 388.864 230.769 386.346C229.598 386.029 228.311 386.016 228.114 384.534C227.811 353.969 227.864 323.355 233.509 293.286C261.184 292.723 284.335 272.887 290.888 246.354L291.799 245.89C324.922 254.877 357.665 271.45 380.741 297.251C385.054 302.072 396.174 316.984 397.01 322.967C398.149 331.155 391.258 345.732 387.745 353.366C382.819 364.068 376.759 375.828 370.761 385.958C369.585 387.945 364.329 397.119 362.452 397.227C360.343 397.347 353.495 395.427 351.122 394.704C342.586 392.11 334.433 387.181 329.11 380.051L346.764 342.343C348.132 341.129 357.402 343.035 356.821 340.352C356.374 338.289 324.574 321.587 320.337 319.645C315.192 317.283 308.537 314.221 303.174 312.68C301.976 312.336 300.336 311.627 299.169 312.203C298.106 312.872 298.15 314.221 298.258 315.341C298.731 320.324 309.789 322.333 313.199 324.985C313.597 325.293 313.928 325.489 313.936 326.065L305.297 375.707V375.712Z" fill="#EDD598"/>
<path d="M290.678 123.14L291.125 126.711C286.919 125.457 280.903 122.961 280.38 129.149C279.897 134.873 280.608 141.476 280.595 147.271C281.404 149.901 287.491 151.936 290.012 152.151C294.66 152.539 295.885 151.91 299.165 149.034L300.059 152.606C296.497 152.637 286.173 154.919 283.96 157.731C281.144 161.321 285.265 167.179 289.462 165.906C289.972 165.75 292.707 163.205 294.088 162.491C296.93 161.022 300.122 159.629 303.183 160.87C317.172 166.527 302.535 198.989 292.479 201.962C288.43 203.159 281.779 199.288 280.058 200.944C278.999 201.962 276.934 209.316 276 211.396C267.857 229.576 249.916 247.801 229.911 251.97C186.915 260.926 159.116 217.602 156.148 180.063C154.405 157.995 162.034 123.457 173.047 104.094C176.882 97.3476 178.289 100.067 184.207 101.138C194.755 103.049 204.699 103.013 214.925 99.4951C218.979 98.0977 218.782 97.0798 223.873 97.236C235.793 97.5932 249.161 99.3656 260.808 101.857C264.706 102.692 275.71 104.911 278.583 106.871C281.086 108.581 279.544 113.398 279.973 116.197C280.648 120.559 286.771 122.903 290.673 123.144L290.678 123.14ZM181.959 111.648C177.056 112.291 169.315 117.202 170.454 122.903C171.451 127.894 177.177 121.595 178.982 120.724C179.907 120.278 181.396 119.818 182.406 119.68C186.258 119.157 193.691 122.296 193.266 116.224C192.985 112.215 185.105 111.233 181.959 111.643V111.648ZM259.284 130.622C262.529 119.523 247.852 110.59 238.135 114.184C234.694 115.461 234.162 119.818 237.053 121.117C239.95 122.421 244.517 121.287 248.218 122.912C253.528 125.247 253.729 132.623 259.284 130.618V130.622ZM182.817 137.127C174.178 137.27 173.096 156.932 180.091 157.946C188.851 159.218 190.889 136.989 182.817 137.127ZM239.592 139.311C236.982 139.913 235.024 144.342 234.484 146.704C231.283 160.732 244.035 164.527 247.114 152.178C248.437 146.865 246.859 137.636 239.592 139.311ZM206.523 141.087C205.906 141.275 204.838 142.494 204.48 143.074C202.447 146.356 201.106 151.302 198.965 154.977C196.489 159.232 188.551 167.616 187.908 171.607C186.848 178.162 194.54 185.309 200.663 186.042C204.498 186.501 210.988 185.126 211.551 180.47C212.418 173.291 200.283 178.188 197.235 172.942C195.662 170.237 200.176 166.58 201.651 164.357C204.306 160.343 211.086 147.57 210.139 143.114C209.763 141.346 208.244 140.57 206.518 141.092L206.523 141.087ZM299.97 169.223C295.885 169.639 288.707 174.969 288.023 179.197C287.437 182.832 288.765 185.35 292.631 183.358C294.655 182.314 298.235 176.63 299.482 176.318C300.296 176.112 301.007 177.13 302.066 177.211C307.375 177.617 306.343 168.576 299.965 169.228L299.97 169.223ZM254.811 199.373C256.567 197.458 255.07 190.828 253.948 188.627C252.366 185.528 247.901 182.046 244.432 181.617C243.06 181.447 239.816 181.242 239.355 182.84C238.35 186.314 243.878 186.792 241.956 188.988C241.134 189.926 235.221 192.305 233.71 192.805C219.627 197.502 201.995 197.618 187.787 193.556C186.392 193.158 180.649 191.792 180.327 190.703C180.006 189.613 181.713 186.22 178.285 186.14C173.525 186.028 169.132 198.288 175.863 201.444C176.698 201.837 178.45 201.936 178.844 202.262C179.165 202.529 179.608 204.547 180.046 205.302C193.262 227.96 229.759 224.477 244.388 204.802C245.635 203.123 247.968 197.422 250.167 198.185C250.806 198.409 252.527 201.869 254.815 199.373H254.811ZM196.243 225.009C192.744 227.991 197.638 232.701 200.543 234.384C206.97 238.108 215.658 237.438 220.293 231.192C221.469 229.612 222.371 226.04 219.815 225.812C218.908 225.732 214.492 227.701 212.557 227.933C209.236 228.335 205.289 228 202.085 227.036C199.837 226.361 198.442 224.745 196.243 225.004V225.009Z" fill="#EDD598"/>
<path d="M195.032 381.641C194.938 381.824 195.304 382.462 194.75 382.551C186.035 381.922 176.519 380.324 168.506 376.667C166.789 375.881 163.057 374.229 162.374 372.524C161.98 368.649 160.997 364.733 160.631 360.871C158.517 338.615 159.795 318.703 160.64 296.608C160.702 294.983 160.876 291.786 160.608 290.353C160.09 287.585 155.652 288.67 155.026 291.005C154.409 295.59 153.457 300.51 153.028 305.082C152.711 308.466 153.663 312.122 152.121 315.337C136.522 325.766 118.582 335.191 99.386 335.651C114.175 321.502 116.267 301.617 108.986 282.982C107.61 279.459 105.442 276.2 104.298 272.709C108.177 272.151 112.151 271.923 116.012 271.235C137.899 267.342 157.247 254.1 179.831 252.171C177.833 267.445 187.756 282.214 201.727 287.915L198.165 313.564C198.053 314.743 198.277 315.948 198.156 317.127C196.395 334.454 195.425 351.304 195.032 368.698C195.032 368.845 195.032 368.997 195.032 369.144C195.014 369.885 195.05 370.635 195.032 371.377C195.023 371.676 195.041 371.97 195.032 372.269C195.023 372.569 195.032 372.863 195.032 373.162C195.032 373.31 195.032 373.461 195.032 373.609C195.027 375.538 195.032 377.484 195.032 379.413V381.645V381.641Z" fill="#EDD598"/>
<path d="M174.919 244.577C160.425 246.466 147.392 253.314 133.908 258.306C132.482 258.833 127.074 260.909 126.064 260.672C118.873 249.635 113.362 236.925 110.327 224.044C99.8241 179.452 116.057 129.828 152.344 101.714C152.331 103.964 151.388 106.348 151.231 108.639C150.977 112.273 151.477 115.978 152.443 119.474C152.961 121.349 155.258 125.72 155.267 126.93C155.281 128.921 152.438 137.123 151.812 140.02C143.982 176.193 146.892 208.914 170.459 238.536C171.143 239.394 175.822 243.617 174.915 244.573L174.919 244.577Z" fill="#235C57"/>
<path d="M167.321 406.196C167.107 406.111 166.521 406.459 166.41 405.915L163.746 383.431C164.519 383.355 165.243 383.422 165.994 383.636C175.469 386.342 180.774 389.891 191.684 390.565C193.57 390.681 200.802 390.972 201.758 389.806C202.049 389.454 202.532 388.132 202.599 387.641C203.805 378.962 202.366 366.126 202.608 356.849C202.63 355.947 203.005 355.13 203.037 354.237C203.484 340.638 204.346 326.771 205.763 313.118C206.845 302.693 208.494 292.304 209.812 281.906C195.765 279.013 185.521 267.86 186.544 253.064L195.818 257.636C198.925 267.356 209.191 274.249 218.8 276.423C243.574 282.026 272.308 267.19 277.502 241.447C279.634 242.483 282.047 242.858 284.246 243.644C284.805 243.845 284.943 243.367 284.85 244.318C284.541 247.309 280.832 255.971 279.294 258.877C272.822 271.128 255.718 282.468 242.077 284.651C237.576 285.37 232.946 285.165 228.427 285.75C226.282 286.357 225.773 291.188 225.487 293.081C222.421 313.488 221.562 335.78 220.981 356.442C220.718 365.809 219.891 375.6 220.499 385.016C220.669 387.628 220.865 391.548 223.328 392.905C226.367 394.579 237.514 395.771 241.282 395.954C262.9 397.003 284.68 393.668 304.542 385.221C304.001 390.606 304.448 396.133 304.095 401.513C304.028 402.548 303.644 405.642 303.206 406.205H167.335L167.321 406.196Z" fill="#DDAD2E"/>
<path d="M286.28 211.168C291.804 211.454 295.196 210.972 299.76 207.887C311.697 199.819 321.083 178.179 316.359 164.236C315.662 162.183 313.302 159.062 313.476 157.343C313.628 155.816 317.409 148.847 318.276 146.472C319.814 142.257 321.325 137.132 321.915 132.694C322.513 128.194 322.169 123.577 323.081 119.13C350.653 151.744 358.309 198.051 342.858 237.996C341.348 241.907 339.399 246.684 337.236 250.238C336.704 251.113 335.756 253.042 334.715 253.06C316.01 244.207 296.171 238.38 276.255 232.875C275.419 232.433 274.977 232.174 275.213 231.188C275.683 229.255 280.469 222.727 281.815 220.33C283.468 217.388 284.827 214.218 286.28 211.173V211.168Z" fill="#235C57"/>
<path d="M314.808 116.443L302.298 109.969L301.842 109.085C302.969 101.937 295.451 100.098 290.213 97.9325C275.808 91.9767 242.971 83.0386 228.088 85.8468C221.401 87.1103 215.917 90.8873 209.428 92.6553C200.118 95.1912 189.682 94.593 180.274 92.5616C175.366 91.5035 171.317 89.8471 166.736 87.9228C164.586 88.4675 164.769 93.584 165.587 95.1778C166.405 96.7717 169.748 97.8075 167.303 99.6826C165.27 101.245 161.31 98.5352 159.768 96.9726C153.243 90.3427 154.445 76.0782 161.346 70.0421C161.927 69.9394 164.953 73.8906 166.016 74.6585C167.196 75.5112 168.519 76.1452 169.909 76.5738C195.608 84.4985 213.759 40.4015 244.424 54.8222C250.506 57.684 251.445 60.8271 255.378 65.3096C259.526 70.0376 262.252 67.7294 267.218 67.3365C278.932 66.4123 288.434 71.4841 293.878 81.7661C295.241 84.3378 296.716 89.9051 298.267 91.6687C299.496 93.0661 303.903 94.5573 306.084 96.361C312.421 101.602 314.281 108.46 314.808 116.438V116.443Z" fill="#DDAD2E"/>
<path d="M94.4651 304.398C95.8819 305.372 93.3969 313.765 92.7623 315.422C87.5599 328.963 75.7248 335.325 61.3958 332.972L73.3203 329.485C80.2121 326.507 86.6392 321.221 82.0267 313.171C87.4973 308.305 89.0392 300.108 87.095 293.237C86.5364 291.255 83.8279 287.46 83.7251 286.741C83.5597 285.585 85.4324 281.133 85.7676 279.414C89.3834 261.02 75.7069 252.962 59.8002 249.961C51.4513 238.804 51.5452 221.035 62.9691 211.994C67.4787 208.423 75.2734 206.695 76.1449 214.441C77.2802 224.527 71.461 232.603 74.7907 243.474C77.8567 253.488 85.5442 257.221 91.265 264.967C98.206 274.374 101.482 288.411 95.0059 298.911C93.8707 300.755 88.5029 305.702 94.4651 304.398Z" fill="#EDD598"/>
<path d="M79.2557 282.964C78.5406 283.567 73.2443 280.29 71.975 279.767C59.1746 274.499 43.688 276.262 30.5255 279.182C26.6103 272.517 27.0706 264.123 34.5614 260.413C50.9463 252.296 85.5352 258.641 79.2557 282.964Z" fill="#EDD598"/>
<path d="M43.8757 284.446C55.6973 283.406 84.0112 284.732 80.9541 302.733C80.7485 303.948 78.7775 308.479 77.3428 308.35C66.0307 302.255 51.2413 299.974 38.5749 302.367C37.0732 302.653 33.8686 304.211 32.8094 303.747C28.7199 300.345 26.6907 291.081 31.482 287.687C34.034 285.879 40.6845 284.723 43.8757 284.442V284.446Z" fill="#EDD598"/>
<path d="M47.0937 324.945C46.8881 325.721 47.4155 325.837 47.7596 326.284C48.582 327.36 50.1553 327.708 50.2178 328.958C43.2187 329.293 28.1433 317.515 37.1135 311.176C44.4389 306.001 66.3659 309.774 73.7762 314.587C82.1877 320.051 72.1895 324.083 66.7637 325.172C60.2428 326.476 53.5744 326.512 47.0982 324.945H47.0937Z" fill="#EDD598"/>
<path d="M205.763 260.65C217.16 263.873 230.246 262.4 241.299 258.426C252.352 254.453 261.684 246.867 270.114 238.773C266.829 263.864 233.388 276.62 212.154 266.092C211.372 265.704 204.806 261.619 205.763 260.65Z" fill="#EDD598"/>
<path d="M315.26 406.196C315.908 405.227 315.921 402.919 316.27 402.285C316.39 402.062 317.163 401.937 317.432 401.464C319.943 397.039 322.442 392.548 325.316 388.347C333.879 397.602 345.674 402.91 358.166 404.415C357.969 406.451 357.572 406.169 355.931 406.196H350.121C349.08 406.196 348.034 406.196 346.992 406.196C346.845 406.196 346.693 406.196 346.546 406.196C345.209 406.205 343.859 406.151 342.523 406.196C342.031 406.214 341.397 406.062 341.182 406.642C340.628 406.669 339.926 406.701 339.394 406.642C339.35 406.433 339.149 406.214 338.948 406.196C332.771 405.602 325.495 406.424 319.282 406.642C319.219 405.973 318.004 405.973 317.941 406.642C317.199 406.616 316.448 406.66 315.706 406.642L315.26 406.196Z" fill="#EDD598"/>
<path d="M87.3186 120.014C87.484 131.533 86.7376 143.007 86.9611 154.526C87.1264 155.084 94.3714 162.718 95.0284 162.986C97.3391 163.924 101.281 163 103.851 163.326C103.556 164.33 103.324 166.317 102.886 167.049C101.826 168.822 96.3871 166.808 94.3311 167.25L82.5944 155.758L82.8492 116.76C80.6636 115.407 77.7138 113.398 77.9373 110.474C78.3619 104.937 86.6303 103.553 87.3097 109.969C87.551 112.264 86.8806 114.094 86.8448 116.197C86.818 117.675 87.3007 119.081 87.3141 120.014H87.3186Z" fill="#DDAD2E"/>
<path d="M407.777 139.659L399.978 148.119C399.852 155.075 399.915 162.107 398.95 169.009L379.177 188.769C372.298 190.296 365.165 189.444 358.166 189.667V185.198H376.942C376.964 184.792 377.094 184.39 377.411 184.122C383.637 178.894 388.808 172.563 395.008 167.304C396.804 163.928 395.159 152.883 395.705 148.356C396.12 144.887 402.025 140.793 404.219 138.074C405.345 137.507 407.133 139.507 407.781 139.659H407.777Z" fill="#DDAD2E"/>
<path d="M52.9039 140.105C53.5967 139.976 55.1744 138.784 55.8895 138.373L64.73 147.713L65.0608 168.366L81.2848 185.198H100.28L99.8374 189.667L79.7429 189.417C73.1594 183.519 67.2195 176.947 61.1813 170.456C60.712 168.268 60.9936 165.982 60.9489 163.768C60.8506 158.968 61.1009 154.151 60.8595 149.347L52.9039 140.105Z" fill="#DDAD2E"/>
<path d="M290.678 123.14C293.239 123.296 295.581 123.073 297.614 121.363C298.593 120.541 299.478 118.264 300.725 118.238L313.937 125.671C313.954 131.35 312.993 136.953 311.233 142.338C309.145 140.672 304.421 139.364 302.718 137.676C301.587 136.551 301.485 134.806 300.752 133.39C298.7 129.435 295.183 127.921 291.125 126.711L290.678 123.14Z" fill="#DDAD2E"/>
<path d="M104.745 288.777C107.918 299.675 107.923 311.627 102.908 321.985C99.2162 329.61 90.693 338.258 81.5083 336.548C81.2893 335.503 81.6469 335.829 82.0849 335.548C83.3095 334.762 84.7665 334.293 86.1208 333.342C94.0629 327.753 99.9939 316.605 100.302 306.881C100.365 304.961 99.6229 302.742 99.9268 301.166C100.155 299.974 101.585 298.05 102.081 296.603C102.903 294.215 103.306 291.893 103.864 289.446C104.021 288.754 103.565 288.67 104.745 288.777Z" fill="#EDD598"/>
<path d="M358.613 200.377C358.725 198.909 358.533 197.386 358.613 195.913H384.759L408.233 172.483C408.934 172.166 413.998 172.058 414.414 172.322C414.606 172.442 416.13 175.706 416.716 176.269L409.564 176.492C405.417 181.506 400.492 185.894 395.924 190.546C392.831 193.698 388.951 199.958 384.326 200.391C376.187 201.154 366.877 199.788 358.608 200.373L358.613 200.377Z" fill="#DDAD2E"/>
<path d="M384.089 119.568C384.209 132.506 383.888 145.431 383.302 158.294C380.835 160.973 378.301 163.785 375.601 166.228C373.76 167.893 369.523 171.996 367.337 172.259C363.954 172.666 359.846 171.942 356.378 172.25C356.199 170.826 356.208 169.241 355.931 167.786L367.99 168L379.387 157.062L379.651 122.948C379.807 120.617 382.56 120.586 384.089 119.568Z" fill="#DDAD2E"/>
<path d="M99.8329 200.377L73.4588 199.712C66.415 191.363 58.6337 183.64 51.9162 175.027L44.412 174.929C45.3327 173.849 45.9405 171.929 46.6288 170.67L52.8994 170.697L75.7114 195.681L99.1312 195.515C100.258 195.779 99.8016 199.266 99.8374 200.373L99.8329 200.377Z" fill="#DDAD2E"/>
<path d="M356.825 219.129C356.941 218.419 356.932 214.74 357.531 214.637L395.459 214.704C397.895 214.704 397.595 217.763 398.391 219.129H356.825Z" fill="#DDAD2E"/>
<path d="M288.756 133.949C297.283 131.395 300.515 147.664 288.313 144.923C284.21 143.998 285.082 135.051 288.756 133.949Z" fill="#DDAD2E"/>
<path d="M290.114 104.929C296.309 103.71 298.606 112.759 293.323 115.737C286.052 119.836 281.783 106.572 290.114 104.929Z" fill="#DDAD2E"/>
<path d="M48.3183 124.126C54.2447 122.974 56.1398 132.48 50.3251 133.323C44.5103 134.167 42.5125 125.256 48.3183 124.126Z" fill="#DDAD2E"/>
<path d="M427.304 164.353C431.795 168.522 424.604 175.862 420.492 170.482C416.738 165.571 423.509 160.825 427.304 164.353Z" fill="#DDAD2E"/>
<path d="M39.3392 170.755C35.3257 174.969 28.6796 169.594 32.3356 164.875C35.9916 160.156 43.5986 166.281 39.3392 170.755Z" fill="#DDAD2E"/>
<path d="M409.43 124.126C416.166 122.135 417.784 131.18 412.715 132.761C406.177 134.801 405.158 125.39 409.43 124.126Z" fill="#DDAD2E"/>
<path d="M377.724 105.371C385.072 104.312 384.129 117.086 376.155 113.876C372.222 112.291 373.451 105.987 377.724 105.371Z" fill="#DDAD2E"/>
<path d="M404.791 216.758C400.648 212.24 407.665 205.512 411.598 210.628C415.531 215.745 407.942 220.196 404.791 216.758Z" fill="#DDAD2E"/>
<path d="M299.17 149.034C299.818 148.467 300.533 146.789 301.623 146.798L307.603 150.686L306.763 153.95C304.314 153.142 302.7 152.584 300.063 152.611L299.17 149.039V149.034Z" fill="#DDAD2E"/>
<path d="M159.276 107.067L163.308 108.639C162.628 110.88 160.823 112.733 160.613 115.108C159.866 115.487 159.276 114.34 159.276 113.992V107.072V107.067Z" fill="#DDAD2E"/>
<path d="M297.829 406.196C297.377 406.928 295.572 406.915 295.147 406.196H297.829Z" fill="#235C57"/>
<path d="M275.482 406.196C275.187 406.901 273.542 406.901 273.247 406.196H275.482Z" fill="#235C57"/>
<path d="M196.82 406.196C196.525 406.901 194.88 406.901 194.585 406.196H196.82Z" fill="#235C57"/>
<path d="M279.057 406.196C278.507 406.808 277.837 406.817 277.269 406.196H279.057Z" fill="#235C57"/>
<path d="M212.91 406.196C212.346 406.821 211.667 406.808 211.122 406.196H212.91Z" fill="#235C57"/>
<path d="M218.273 406.196C217.723 406.808 217.053 406.821 216.485 406.196H218.273Z" fill="#235C57"/>
<path d="M203.077 406.196C202.63 406.736 202.183 406.736 201.736 406.196H203.077Z" fill="#235C57"/>
<path d="M215.591 406.196C215.14 406.736 214.697 406.741 214.25 406.196H215.591Z" fill="#235C57"/>
<path d="M208.44 406.196C207.993 406.736 207.546 406.736 207.099 406.196H208.44Z" fill="#235C57"/>
<path d="M256.263 406.196C255.816 406.736 255.369 406.732 254.922 406.196H256.263Z" fill="#235C57"/>
<path d="M342.523 406.196C342.308 406.781 341.669 406.62 341.182 406.642C341.397 406.062 342.031 406.214 342.523 406.196Z" fill="#235C57"/>
<path d="M319.282 406.642C318.84 406.66 318.384 406.656 317.941 406.642C318.004 405.973 319.219 405.973 319.282 406.642Z" fill="#235C57"/>
<path d="M269.224 406.196C268.777 406.736 268.33 406.736 267.884 406.196H269.224Z" fill="#235C57"/>
<path d="M168.662 406.196C167.974 407.031 167.764 406.375 167.321 406.196H168.662Z" fill="#235C57"/>
<path d="M293.806 406.196C293.364 406.736 292.912 406.732 292.465 406.196H293.806Z" fill="#235C57"/>
<path d="M229.446 406.196L228.906 406.5L228.552 406.196H229.446Z" fill="#235C57"/>
<path d="M233.916 406.196L233.375 406.5L233.022 406.196H233.916Z" fill="#235C57"/>
<path d="M220.061 406.196L219.703 406.504L219.167 406.196H220.061Z" fill="#235C57"/>
<path d="M186.987 406.196L186.446 406.5L186.093 406.196H186.987Z" fill="#235C57"/>
<path d="M184.752 406.196L184.395 406.5L183.858 406.196H184.752Z" fill="#235C57"/>
<path d="M182.071 406.196L181.713 406.5L181.177 406.196H182.071Z" fill="#235C57"/>
<path d="M303.192 406.196C302.83 406.66 302.861 406.794 302.298 406.196H303.192Z" fill="#235C57"/>
<path d="M170.897 406.196L170.356 406.5L170.003 406.196H170.897Z" fill="#235C57"/>
<path d="M195.032 372.265C195.041 371.966 195.023 371.671 195.032 371.372L195.336 371.729L195.032 372.265Z" fill="#235C57"/>
<path d="M289.784 406.196L289.426 406.5L288.89 406.196H289.784Z" fill="#235C57"/>
<path d="M339.394 406.642C339.189 406.62 338.997 406.406 338.948 406.196C339.149 406.214 339.35 406.433 339.394 406.642Z" fill="#235C57"/>
<path d="M355.484 406.196H355.931C355.869 406.196 355.694 406.482 355.484 406.196Z" fill="#235C57"/>
<path d="M195.032 381.641V381.194C195.345 381.44 195.121 381.471 195.032 381.641Z" fill="#235C57"/>
<path d="M254.81 199.373C252.518 201.869 250.801 198.409 250.162 198.185C247.968 197.422 245.635 203.123 244.383 204.802C229.755 224.477 193.257 227.96 180.041 205.302C179.599 204.547 179.161 202.529 178.839 202.262C178.45 201.936 176.694 201.833 175.858 201.444C169.127 198.288 173.52 186.028 178.28 186.14C181.708 186.22 180.015 189.667 180.323 190.703C180.645 191.792 186.388 193.154 187.782 193.556C201.991 197.618 219.623 197.507 233.706 192.805C235.216 192.301 241.13 189.926 241.952 188.988C243.874 186.796 238.345 186.318 239.351 182.84C239.816 181.242 243.056 181.447 244.428 181.617C247.896 182.05 252.361 185.533 253.943 188.627C255.07 190.828 256.567 197.458 254.806 199.373H254.81ZM241.509 195.471C225.692 201.494 210.344 203.217 193.606 200.239C190.799 199.739 187.546 198.471 184.949 198.163C184.283 198.083 184.171 198.096 184.292 198.819C184.631 200.842 185.682 202.266 186.965 203.735C197.41 215.731 222.291 213.499 234.497 205.204C237.724 203.012 241.223 199.52 241.505 195.466L241.509 195.471Z" fill="#092C2E"/>
<path d="M206.523 141.087C208.248 140.565 209.768 141.346 210.143 143.11C211.086 147.566 204.31 160.343 201.656 164.353C200.181 166.576 195.667 170.232 197.24 172.938C200.292 178.184 212.427 173.286 211.555 180.465C210.992 185.126 204.503 186.497 200.668 186.037C194.545 185.305 186.853 178.157 187.912 171.603C188.556 167.607 196.493 159.227 198.969 154.972C201.11 151.298 202.456 146.351 204.485 143.07C204.842 142.494 205.91 141.27 206.527 141.083L206.523 141.087Z" fill="#092C2E"/>
<path d="M239.592 139.311C246.859 137.632 248.437 146.865 247.114 152.178C244.035 164.527 231.283 160.736 234.484 146.704C235.024 144.338 236.982 139.913 239.592 139.311Z" fill="#092C2E"/>
<path d="M259.284 130.622C253.729 132.627 253.528 125.251 248.218 122.916C244.517 121.291 239.95 122.421 237.053 121.122C234.162 119.822 234.694 115.461 238.135 114.188C247.852 110.59 262.529 119.528 259.284 130.627V130.622Z" fill="#092C2E"/>
<path d="M182.817 137.127C190.889 136.993 188.851 159.218 180.09 157.946C173.091 156.928 174.177 137.27 182.817 137.127Z" fill="#092C2E"/>
<path d="M196.243 225.009C198.442 224.75 199.841 226.366 202.085 227.04C205.289 228 209.236 228.335 212.556 227.937C214.492 227.705 218.903 225.736 219.815 225.817C222.371 226.044 221.464 229.616 220.293 231.197C215.658 237.443 206.97 238.112 200.543 234.389C197.637 232.706 192.748 227.996 196.243 225.013V225.009Z" fill="#092C2E"/>
<path d="M181.959 111.648C185.105 111.237 192.989 112.219 193.266 116.228C193.691 122.305 186.258 119.162 182.406 119.684C181.396 119.822 179.907 120.278 178.982 120.729C177.181 121.599 171.451 127.899 170.454 122.908C169.315 117.206 177.056 112.295 181.959 111.652V111.648Z" fill="#092C2E"/>
<path d="M299.97 169.223C306.347 168.572 307.38 177.612 302.07 177.206C301.011 177.126 300.3 176.108 299.487 176.313C298.24 176.63 294.66 182.309 292.635 183.354C288.769 185.35 287.442 182.827 288.027 179.193C288.711 174.965 295.885 169.634 299.974 169.219L299.97 169.223Z" fill="#092C2E"/>
<path d="M241.509 195.471C241.223 199.52 237.724 203.016 234.501 205.208C222.295 213.503 197.414 215.736 186.969 203.739C185.691 202.27 184.636 200.846 184.296 198.824C184.176 198.101 184.287 198.087 184.953 198.167C187.55 198.476 190.804 199.743 193.611 200.244C210.344 203.221 225.697 201.503 241.514 195.475L241.509 195.471Z" fill="#EDD598"/>
</g>
<rect y="406" width="456" height="126" fill="#092C2E"/>
</g>
<defs>
<clipPath id="clip0_6_239">
<rect width="456" height="456" fill="white"/>
</clipPath>
<clipPath id="clip1_6_239">
<rect width="415" height="368" fill="white" transform="translate(20 44)"/>
</clipPath>
</defs>
</svg>
