<svg width="426" height="578" viewBox="0 0 426 578" fill="none" xmlns="http://www.w3.org/2000/svg">
<path d="M392.058 431.067C389.354 425.215 379.821 426.15 379.232 432.447C378.047 445.225 396.705 441.131 392.058 431.067ZM378.78 484.432C375.151 478.857 362.135 484.326 367.841 492.813C372.263 499.393 384.5 493.222 378.78 484.432ZM328.914 527.153C332.335 520.22 322.657 512.555 317.246 520.019C311.318 528.194 324.87 535.358 328.914 527.153ZM244.406 517.273C240.837 523.247 250.711 531.822 256.072 524.401C261.708 516.599 249.098 509.425 244.406 517.273Z" fill="#092C2E"/>
<path fill-rule="evenodd" clip-rule="evenodd" d="M364.586 355.88C354.181 373.183 341.255 389.79 325.924 403.018C318.126 409.745 309.393 415.295 301.57 421.988L305.837 436.95L319.703 445.003L369.667 431.664C371.784 417.326 389.507 412.446 398.696 423.641C411.538 439.306 389.354 458.631 374.473 446.221C372.364 444.461 371.147 440.541 367.749 441.311L318.879 455.472L298.382 443.825L293.543 426.478C291.581 427.495 289.318 428.155 287.352 429.02C284.314 430.365 281.551 432.54 278.154 433.149L285.402 456.965L311.584 471.974C321.592 471.469 330.749 466.899 340.506 465.014C348.172 467.443 355.104 471.818 361.864 476.126C374.083 467.538 391.953 474.989 389.643 491.173C386.82 510.952 356.989 508.056 355.858 488.677C355.797 487.678 357.901 484.272 356.604 482.904C351.781 480.922 343.41 474.218 338.275 475.102C331.572 476.251 316.48 483.314 310.896 482.18C300.734 475.55 289.472 470.85 279.35 464.167C278.832 463.827 278.202 463.813 277.612 463.954L269.602 437.092L263.214 438.997C266.512 448.913 268.343 459.482 273.461 468.675C270.544 469.217 274.283 473.437 275.084 474.117L316.935 496.815L320.714 508.183C336.065 505.068 345.9 524.978 334.221 535.655C320.247 548.423 299.89 531.699 307.354 517.069C307.906 515.985 311.923 512.42 312.013 512.093C312.212 511.386 309.9 504.192 309.146 503.317L265.641 479.712L254.484 442.297C252.344 442.809 250.25 443.733 248.103 444.199C244.231 445.033 240.172 445.819 236.236 446.345L253.496 504.227C265.103 507.082 271.267 519.55 263.884 529.698C252.157 545.828 226.929 530.967 236.251 512.573C236.484 512.12 238.139 509.259 238.277 509.113C239.892 507.399 244.382 506.52 243.349 503.032L227.26 448.729C226.858 447.916 221.604 449.496 220.54 449.633C200.554 452.166 180.346 450.343 160.912 445.405L159.642 445.805L162.625 432.463C163.095 433.946 166.256 434.479 167.734 434.868C173.736 436.449 181.396 437.201 187.63 437.696C251.321 442.78 314.237 412.082 349.08 358.735L364.586 355.88ZM392.058 431.067C389.354 425.215 379.821 426.15 379.232 432.447C378.047 445.225 396.705 441.131 392.058 431.067ZM378.78 484.432C375.151 478.857 362.135 484.326 367.841 492.813C372.263 499.393 384.5 493.222 378.78 484.432ZM328.914 527.153C332.335 520.22 322.657 512.555 317.246 520.019C311.318 528.194 324.87 535.358 328.914 527.153ZM244.406 517.273C240.837 523.247 250.711 531.822 256.072 524.401C261.708 516.599 249.098 509.425 244.406 517.273Z" fill="#092C2E"/>
<path fill-rule="evenodd" clip-rule="evenodd" d="M96.9357 148.901H129.515L130.205 138.032L101.696 137.955L80.4158 115.415C78.9593 112.864 79.6415 93.7311 79.6569 89.1369C79.6645 87.364 80.6228 85.7529 80.3315 83.9645C79.4116 78.2526 64.5705 65.0634 59.0818 62.4888C59.6414 58.041 61.5808 55.7593 61.2052 50.7257C59.81 32.0172 36.5902 25.7734 26.0344 40.6045C15.4785 55.4355 31.2165 74.2827 48.2576 71.0451C49.4382 70.8139 52.1442 68.7634 53.3784 68.0543L68.5414 84.1804L69.1087 119.84L96.9357 148.901ZM40.4001 43.472C30.4422 45.4222 33.4242 60.8623 43.8421 59.3514C54.26 57.8406 50.565 41.4909 40.4001 43.472Z" fill="#092C2E"/>
<path d="M111.938 125.351C117.649 129.375 125.138 128.057 131.815 128.874L134 117.589C132.183 120.649 122.854 117.173 119.328 117.936L99.1971 98.0941L99.6341 30.7608C95.8855 28.4174 90.826 24.9563 91.2093 19.9072C91.9452 10.3488 106.127 7.95915 107.285 19.0362C107.699 22.9983 106.549 26.1588 106.487 29.7895C106.449 32.341 107.269 34.7615 107.292 36.3802C127.476 26.4363 117.764 -4.97565 94.3983 0.674653C78.7983 4.44409 75.18 27.7699 88.9019 36.149C89.2545 53.917 88.0893 71.5077 88.7332 89.1754C88.9019 93.7543 87.1004 97.701 90.0671 102.634C92.0295 105.887 108.641 123.031 111.938 125.351Z" fill="#092C2E"/>
<path fill-rule="evenodd" clip-rule="evenodd" d="M87.3764 167L127.545 166.715L128.757 156.617L94.291 156.185C82.9992 145.994 72.8113 134.648 62.4547 123.447L60.9063 116.533C60.2853 116.548 60.1397 114.182 59.3961 113.419C57.4796 111.461 41.0747 113.434 37.2418 112.571C34.4438 107.429 32.3433 103.243 26.5633 100.954C10.5954 94.6407 -5.23458 109.688 1.657 125.999C6.99243 138.648 24.7542 141.755 33.6925 131.171C35.2717 129.306 36.3142 125.991 37.4948 123.817L48.25 123.863L87.3764 167ZM24.9995 123.979C32.305 116.255 19.4034 105.502 12.9871 113.827C6.57081 122.152 18.1156 131.256 24.9995 123.979Z" fill="#092C2E"/>
<mask id="mask0_6_238" style="mask-type:alpha" maskUnits="userSpaceOnUse" x="30" y="93" width="360" height="360">
<circle cx="210" cy="273" r="180" fill="#D9D9D9"/>
</mask>
<g mask="url(#mask0_6_238)">
<rect x="4" y="93" width="441" height="124" fill="#DDAD2E"/>
<rect x="-10" y="352" width="440" height="120" fill="#092C2E"/>
</g>
<g clip-path="url(#clip0_6_238)">
<path d="M268.416 353H181.724V350.587C181.409 345.059 180.344 339.619 179.709 334.136C179.042 328.367 178.818 322.622 178.944 316.804L174.994 319.249C167.451 323.474 156.783 326.332 148.188 324.513C147.168 324.298 145.747 323.607 144.941 323.494C143.846 323.342 142.083 323.6 140.871 323.492C135.537 323.017 126.045 319.288 126.708 312.624C126.765 312.041 127.33 310.994 127.236 310.621C127.158 310.313 126.241 309.641 125.971 309.279C124.657 307.527 124.046 305.207 124.346 303.02C124.472 302.099 125.376 300.412 125.391 299.82C125.404 299.282 124.567 297.873 124.385 297.13C122.822 290.752 126.132 287.419 131.961 285.963C133.38 285.609 134.825 285.514 136.257 285.251C136.4 285.054 135.438 282.594 135.318 282.091C134.219 277.568 134.966 272.597 137.93 268.925C140.66 265.541 146.329 263.137 149.311 267.513C152.571 272.298 148.368 276.718 149.774 281.713C150.715 285.056 153.684 286.633 155.7 289.139C156.081 289.613 157.491 291.931 157.643 292.016C158.48 292.484 163.795 291.22 165.053 290.995C163.776 288.49 162.257 286.101 161.131 283.511C158.501 277.469 157.284 271.6 157.087 265.01C157.074 264.55 157.261 263.1 156.795 262.991L147.088 263.06L137.633 252.672L135.035 252.661C134.749 253.184 134.497 253.983 134.116 254.432C131.956 256.98 127.664 256.232 126.375 253.186C124.709 249.259 128.534 245.635 132.393 247.156C133.79 247.707 134.297 248.715 134.973 249.953C135.9 250.161 139.864 249.686 140.327 250.157C140.506 250.341 140.542 250.911 140.692 250.907L140.97 249.791C140.988 250.712 140.871 251.662 141.066 252.572C143.568 255.269 146.03 258.001 148.759 260.455L157.087 260.559L157.271 258.701H149.398L142.674 251.703L142.537 243.116L138.873 239.233C138.574 239.404 137.921 239.898 137.635 239.953C133.517 240.733 129.714 236.195 132.265 232.623C134.816 229.052 140.427 230.555 140.764 235.06C140.855 236.273 140.386 236.822 140.251 237.893C141.577 238.513 145.163 241.689 145.386 243.064C145.456 243.495 145.225 243.883 145.223 244.31C145.219 245.416 145.054 250.023 145.406 250.638L150.548 256.065L157.437 256.084L157.826 253.879C156.213 253.682 154.403 253.999 153.023 253.03C152.227 252.472 148.212 248.343 147.738 247.56C147.021 246.372 147.457 245.422 147.416 244.319C147.26 240.065 147.542 235.829 147.457 231.55C144.141 229.533 145.015 223.916 148.785 223.008C154.431 221.647 156.778 229.212 151.901 231.606C151.895 231.216 151.697 230.633 151.706 230.019C151.721 229.145 151.999 228.384 151.899 227.43C151.619 224.762 148.192 225.338 148.014 227.639C147.922 228.855 149.144 229.689 150.05 230.253L149.944 246.467L154.809 251.245C155.661 251.061 157.915 251.898 158.354 251.161C158.536 250.857 158.632 250.031 158.754 249.613C159.014 248.722 159.208 247.803 159.492 246.918C162.774 236.644 168.754 227.689 177.445 221.274C176.337 217.701 176.48 213.1 178.575 209.89C179.742 208.105 181.796 206.575 184.028 206.931C185.382 207.147 185.182 209.551 187.092 210.171C189.563 210.971 192.648 209.439 194.639 208.075C198.051 205.736 200.605 203.2 204.568 201.504C211.588 198.501 219.726 199.952 224.27 206.328C228.719 206.024 233.606 206.998 237.109 209.89C239.246 211.655 240.699 214.685 241.469 217.308C244.046 218.655 246.074 220.4 247.514 222.945C248.632 224.92 248.501 225.122 250.085 226.865C253.862 231.023 257.253 235.799 259.556 240.948C260.727 243.567 261.51 246.343 262.67 248.965L266.988 249.017L270.229 245.955L270.644 231.545C266.999 229.837 267.106 224.714 270.813 223.151C275.998 220.968 279.378 228.434 274.897 231.42C274.262 231.844 273.123 231.857 273.058 232.826L272.949 247.009L268.225 251.557L263.227 251.467C263.342 252.073 263.338 252.73 263.413 253.324C263.529 254.243 263.889 255.154 263.781 256.11L270.691 256.071L276.759 250.272C277.418 247.558 276.929 244.748 277.202 241.992C278.456 240.137 280.169 238.634 281.851 237.171C280.536 233.223 283.935 229.043 288.057 230.949C293.093 233.278 289.957 241.017 284.713 239.775C284.443 239.712 283.704 238.879 283.237 239.116C282.327 240.247 279.88 241.949 279.708 243.391C279.482 245.273 280.164 249.867 279.419 251.269C276.85 253.456 274.707 256.089 272.126 258.261C271.995 258.373 271.941 258.54 271.932 258.709H264.152V260.567C267.051 260.476 270.007 260.828 272.858 260.194C272.771 261.016 274.19 260.353 274.434 260.194L283.791 250.822L287.114 250.718C287.503 246.368 293.579 245.327 295.492 249.298C297.78 254.048 291.717 258.154 288.418 254.994C288.173 254.76 287.544 253.404 287.464 253.353C287.292 253.244 285.195 253.288 284.902 253.42L275.173 263.162H264.337C264.304 263.774 264.383 264.407 264.337 265.018C264.252 266.119 264.139 267.266 263.966 268.359H280.731C282.411 265.486 286.215 264.832 288.329 267.613C291.689 272.031 285.736 277.586 281.583 273.631C281.481 273.532 280.851 272.862 280.823 272.814C280.495 272.246 280.618 270.976 279.608 270.974L263.889 270.947C263.64 270.989 263.644 272.519 263.596 272.814C262.685 278.355 260.597 283.608 257.742 288.406L257.748 288.777C260.402 290.47 263.22 291.901 265.802 293.715C272.052 298.101 278.048 304.256 281.712 310.998C284.965 316.981 284.263 319.427 281.836 325.527C278.369 334.241 273.364 342.661 268.412 350.589M246.185 230.119C245.967 226.802 245.194 223.953 242.569 221.772C241.666 221.022 239.839 220.402 239.33 219.821C238.687 219.088 238.076 216.773 237.511 215.704C235.254 211.429 231.316 209.322 226.461 209.705C224.403 209.868 223.273 210.828 221.554 208.862C219.924 206.998 219.535 205.691 217.014 204.502C204.305 198.506 196.782 216.842 186.131 213.545C185.555 213.367 185.008 213.103 184.517 212.749C184.077 212.43 182.822 210.787 182.582 210.829C179.722 213.339 179.223 219.27 181.928 222.026C182.567 222.678 184.206 223.803 185.051 223.153C186.064 222.371 184.675 221.931 184.34 221.28C184.004 220.628 183.925 218.49 184.816 218.264C186.716 219.062 188.393 219.75 190.427 220.192C194.324 221.037 198.651 221.286 202.51 220.231C205.199 219.496 207.472 217.924 210.243 217.4C216.412 216.233 230.023 219.949 235.992 222.425C238.163 223.325 241.278 224.09 240.812 227.062L241.001 227.43L246.185 230.121V230.119ZM236.184 232.904C234.567 232.803 232.029 231.829 231.75 230.015C231.57 228.853 232.211 226.849 231.174 226.138C229.984 225.323 225.422 224.398 223.807 224.053C218.979 223.017 213.437 222.28 208.498 222.132C206.389 222.069 206.472 222.492 204.79 223.071C200.552 224.536 196.43 224.549 192.059 223.754C189.606 223.309 189.022 222.178 187.433 224.983C182.869 233.035 179.705 247.395 180.429 256.568C181.659 272.175 193.181 290.188 211.001 286.464C219.292 284.733 226.728 277.154 230.103 269.595C230.49 268.73 231.344 265.673 231.785 265.25C232.498 264.561 235.254 266.172 236.933 265.673C241.101 264.437 247.169 250.94 241.369 248.589C240.1 248.074 238.776 248.652 237.6 249.262C237.027 249.559 235.893 250.619 235.682 250.682C233.941 251.209 232.235 248.774 233.402 247.284C234.319 246.112 238.598 245.166 240.074 245.153C241.167 245.143 241.836 245.374 242.851 245.71L243.199 244.353L240.721 242.736C240.271 242.732 239.972 243.432 239.704 243.666C238.342 244.863 237.837 245.123 235.91 244.961C234.865 244.874 232.342 244.026 232.007 242.933C232.013 240.521 231.718 237.776 231.918 235.398C232.135 232.826 234.626 233.861 236.371 234.385C238.116 234.908 239.511 235.517 240.361 237.162C240.665 237.748 240.708 238.476 241.176 238.944C241.88 239.645 243.84 240.189 244.705 240.882C245.433 238.643 245.833 236.313 245.826 233.952L240.35 230.862C239.833 230.873 239.467 231.82 239.061 232.161C238.218 232.872 237.248 232.967 236.186 232.9L236.184 232.904ZM188.207 283.392C188.583 282.995 186.642 281.239 186.361 280.883C176.593 268.567 175.387 254.961 178.632 239.924C178.892 238.719 180.072 235.307 180.064 234.481C180.061 233.978 179.107 232.161 178.894 231.381C178.493 229.928 178.288 228.387 178.392 226.876C178.458 225.926 178.847 224.933 178.853 223.997C163.813 235.686 157.085 256.318 161.438 274.858C162.696 280.213 164.98 285.497 167.961 290.086C168.379 290.186 170.621 289.321 171.212 289.102C176.8 287.027 182.202 284.179 188.209 283.394L188.207 283.392ZM235.951 225.332C232.498 226.013 234.267 231.53 237.281 229.826C239.47 228.588 238.518 224.825 235.951 225.332ZM272.261 225.516C270.491 225.772 269.983 228.393 271.611 229.052C274.916 230.387 275.307 225.076 272.261 225.516ZM181.724 226.221V229.098C181.724 229.243 181.969 229.72 182.278 229.562C182.363 228.575 183.113 227.805 183.395 226.873L181.724 226.219V226.221ZM234.362 269.502C233.76 270.768 233.196 272.084 232.511 273.31C231.952 274.306 229.97 277.02 229.775 277.824C229.675 278.236 229.86 278.344 230.207 278.525C238.461 280.812 246.684 283.235 254.436 286.917C254.867 286.91 255.26 286.108 255.481 285.744C256.377 284.267 257.185 282.281 257.811 280.655C264.215 264.045 261.04 244.793 249.614 231.235C249.236 233.084 249.377 235.003 249.131 236.874C248.886 238.721 248.26 240.852 247.623 242.602C247.263 243.59 245.696 246.487 245.633 247.122C245.563 247.837 246.541 249.134 246.828 249.988C248.784 255.785 244.894 264.782 239.948 268.136C238.057 269.419 236.653 269.619 234.362 269.501V269.502ZM135.737 233.314C133.33 233.783 134.051 237.501 136.568 237.138C139.086 236.774 138.193 232.837 135.737 233.314ZM285.402 233.314C283.631 233.839 284.054 237.752 286.764 236.904C288.864 236.247 288.194 232.486 285.402 233.314ZM235.388 237.397C233.865 237.854 233.504 241.576 235.204 241.96C240.261 243.102 238.922 236.336 235.388 237.397ZM132.015 252.7C133.78 250.84 130.663 248.251 129.112 250.255C127.562 252.26 130.352 254.452 132.015 252.7ZM292.81 250.038C291.237 248.572 288.431 250.547 289.987 252.587C291.691 254.822 294.672 251.772 292.81 250.038ZM154.863 308.264C152.391 308.804 154.614 306.749 155.087 305.983C157.771 301.617 156.413 295.781 153.536 291.87C151.165 288.649 147.979 287.097 146.708 282.934C145.33 278.414 147.742 275.056 147.27 270.863C146.908 267.644 143.678 268.363 141.809 269.846C137.076 273.605 137.035 280.992 140.495 285.631C147.088 286.88 152.756 290.229 151.258 297.876C151.117 298.591 150.343 300.442 150.411 300.923C150.454 301.221 151.575 302.801 151.808 303.623C152.614 306.478 151.975 309.888 149.707 311.911C151.621 315.256 148.955 317.454 146.099 318.694L141.157 320.144C147.095 321.122 152.001 318.477 154.157 312.847C154.42 312.158 155.452 308.67 154.863 308.264ZM283.48 271.826C284.785 273.256 287.849 271.301 286.301 269.278C284.672 267.151 281.764 269.948 283.48 271.826ZM200.991 290.075C200.594 290.478 203.315 292.178 203.64 292.338C212.44 296.714 226.3 291.411 227.661 280.979C224.168 284.345 220.345 287.482 215.719 289.15C211.094 290.819 205.716 291.415 200.991 290.075ZM241.371 350.587C241.553 350.353 241.712 349.067 241.74 348.636C241.886 346.4 241.701 344.104 241.925 341.863C233.695 345.375 224.666 346.762 215.706 346.325C214.145 346.249 209.525 345.754 208.265 345.058C207.244 344.493 207.161 342.864 207.093 341.778C206.841 337.863 207.183 333.792 207.293 329.898C207.533 321.307 207.889 312.039 209.16 303.555C209.278 302.768 209.489 300.757 210.379 300.507C212.251 300.264 214.17 300.351 216.036 300.05C221.691 299.142 228.78 294.428 231.461 289.334C232.098 288.126 233.635 284.525 233.763 283.281C233.804 282.886 233.747 283.084 233.513 283.001C232.602 282.674 231.601 282.518 230.718 282.088C228.565 292.79 216.658 298.959 206.389 296.629C202.406 295.725 198.151 292.859 196.864 288.818L193.02 286.917C192.596 293.069 196.843 297.706 202.663 298.909C202.117 303.232 201.433 307.549 200.985 311.885C200.398 317.563 200.04 323.327 199.855 328.981C199.842 329.352 199.688 329.692 199.677 330.067C199.577 333.926 200.174 339.261 199.674 342.869C199.646 343.075 199.444 343.623 199.325 343.769C198.929 344.254 195.932 344.133 195.15 344.085C190.628 343.805 188.43 342.329 184.503 341.204C184.191 341.115 183.891 341.087 183.571 341.119L184.675 350.467C184.721 350.693 184.964 350.548 185.053 350.584C185.236 350.658 185.323 350.931 185.608 350.584H186.164L186.312 350.71L186.535 350.584H190.795L191.017 350.71L191.166 350.584H191.907L192.129 350.71L192.277 350.584H192.833L192.981 350.71L193.203 350.584H196.352C196.475 350.877 197.156 350.877 197.279 350.584H199.316C199.501 350.808 199.687 350.808 199.872 350.584H201.539C201.724 350.808 201.91 350.808 202.095 350.584H203.206C203.432 350.838 203.714 350.843 203.947 350.584H204.503C204.688 350.81 204.871 350.808 205.059 350.584H205.429C205.664 350.843 205.942 350.838 206.17 350.584H206.54L206.765 350.712L206.911 350.584H210.431L210.579 350.71L210.801 350.584H212.283L212.431 350.71L212.653 350.584H221.36C221.545 350.806 221.73 350.808 221.915 350.584H226.732C226.917 350.808 227.102 350.808 227.287 350.584H228.954C229.077 350.877 229.758 350.877 229.881 350.584H230.622C230.857 350.842 231.135 350.838 231.363 350.584H235.438L235.66 350.708L235.808 350.584H236.92C237.105 350.806 237.292 350.808 237.475 350.584H238.031C238.207 350.882 238.955 350.888 239.143 350.584H240.995C241.228 350.832 241.215 350.777 241.365 350.584L241.371 350.587ZM242.243 337.913L245.824 317.274C245.82 317.033 245.683 316.953 245.518 316.825C244.103 315.724 239.522 314.887 239.326 312.815C239.281 312.349 239.263 311.789 239.704 311.51C240.187 311.271 240.867 311.566 241.364 311.709C243.586 312.349 246.345 313.623 248.477 314.605C250.233 315.414 263.413 322.358 263.598 323.214C263.839 324.329 259.995 323.537 259.43 324.042L252.113 339.719C254.317 342.684 257.696 344.733 261.236 345.811C262.218 346.11 265.057 346.908 265.932 346.86C266.71 346.815 268.888 343.001 269.375 342.175C271.861 337.963 274.373 333.074 276.414 328.625C277.87 325.45 280.727 319.39 280.255 315.986C279.91 313.498 275.299 307.299 273.512 305.294C263.95 294.567 250.377 287.677 236.649 283.94L236.271 284.133C233.556 295.165 223.96 303.412 212.49 303.646C210.151 316.145 210.129 328.873 210.255 341.583C210.336 342.199 210.868 342.206 211.355 342.336C215.237 343.383 222.566 343.027 226.643 342.606C232.089 342.043 237.544 340.798 242.243 337.915V337.913ZM196.543 334.995C196.708 327.763 197.108 320.758 197.838 313.554C197.888 313.064 197.795 312.565 197.842 312.073L199.318 301.409C193.527 299.038 189.415 292.898 190.243 286.548C180.883 287.352 172.866 292.857 163.793 294.474C162.191 294.76 160.546 294.855 158.938 295.087C159.412 296.538 160.31 297.893 160.881 299.358C163.897 307.107 163.032 315.373 156.902 321.255C164.858 321.064 172.293 317.146 178.758 312.81C179.396 311.471 179.001 309.953 179.134 308.546C179.312 306.645 179.707 304.598 179.962 302.693C180.222 301.723 182.061 301.273 182.276 302.422C182.387 303.018 182.315 304.347 182.289 305.023C181.939 314.209 181.409 322.49 182.285 331.741C182.437 333.345 182.845 334.975 183.008 336.586C183.291 337.293 184.838 337.982 185.549 338.308C188.871 339.829 192.814 340.493 196.426 340.755C196.658 340.718 196.504 340.452 196.543 340.376C196.58 340.306 196.673 340.293 196.543 340.191V339.448C196.543 338.646 196.541 337.837 196.543 337.035V336.849C196.543 336.725 196.539 336.603 196.543 336.478L196.669 336.255L196.543 336.107C196.551 335.799 196.536 335.487 196.543 335.179V334.993V334.995ZM148.559 299.352C151.161 289.24 136.828 286.602 130.035 289.976C126.93 291.519 126.74 295.009 128.362 297.78C133.818 296.568 140.236 295.833 145.541 298.023C146.067 298.24 148.262 299.601 148.559 299.352ZM133.895 299.968C132.571 300.085 129.816 300.566 128.759 301.318C126.773 302.727 127.614 306.58 129.309 307.995C129.75 308.19 131.076 307.54 131.698 307.421C136.948 306.426 143.078 307.375 147.766 309.908C148.361 309.962 149.178 308.078 149.263 307.573C150.53 300.089 138.795 299.538 133.895 299.97V299.968ZM159.123 301.769C158.632 301.724 158.823 301.76 158.758 302.047C158.527 303.065 158.358 304.028 158.019 305.023C157.813 305.624 157.221 306.424 157.126 306.92C157 307.575 157.308 308.496 157.282 309.296C157.154 313.339 154.698 317.974 151.404 320.298C150.843 320.693 150.241 320.888 149.731 321.215C149.55 321.332 149.402 321.196 149.492 321.63C153.299 322.341 156.832 318.746 158.362 315.575C160.442 311.269 160.438 306.3 159.123 301.769ZM135.229 316.806C137.913 317.458 140.679 317.443 143.38 316.901C145.628 316.45 149.77 314.772 146.286 312.5C143.215 310.499 134.127 308.93 131.091 311.082C127.373 313.717 133.623 318.614 136.522 318.475C136.498 317.953 135.844 317.808 135.503 317.363C135.361 317.177 135.142 317.129 135.227 316.806H135.229ZM245.072 345.761L256.146 322.835L249.24 318.659C248.797 318.577 248.756 319.615 248.682 319.956C246.878 328.426 245.646 337.057 244.702 345.666L245.072 345.761ZM263.229 350.587C263.909 350.576 264.074 350.691 264.155 349.847C258.978 349.221 254.089 347.014 250.54 343.166C249.349 344.913 248.314 346.78 247.273 348.62C247.162 348.816 246.841 348.87 246.791 348.961C246.648 349.225 246.641 350.184 246.372 350.587L246.558 350.773C246.865 350.78 247.176 350.762 247.484 350.773C247.667 350.778 247.856 350.78 248.04 350.773C250.614 350.682 253.63 350.34 256.19 350.587C256.21 350.675 256.29 350.764 256.375 350.773C256.596 350.797 256.887 350.784 257.116 350.773C257.318 350.764 257.583 350.83 257.672 350.587C258.226 350.569 258.785 350.591 259.339 350.587H259.524C259.956 350.587 260.389 350.587 260.821 350.587H263.044C263.131 350.706 263.203 350.587 263.229 350.587Z" fill="#092C2E"/>
<path d="M242.244 337.913C237.544 340.794 232.089 342.039 226.643 342.603C222.566 343.025 215.238 343.381 211.355 342.334C210.87 342.202 210.336 342.197 210.255 341.581C210.129 328.873 210.151 316.145 212.491 303.643C223.961 303.409 233.556 295.162 236.272 284.131L236.649 283.938C250.377 287.674 263.948 294.565 273.512 305.292C275.3 307.296 279.908 313.496 280.255 315.983C280.727 319.388 277.871 325.448 276.415 328.622C274.373 333.072 271.862 337.961 269.376 342.173C268.888 342.999 266.71 346.813 265.932 346.858C265.058 346.908 262.22 346.11 261.236 345.809C257.698 344.731 254.319 342.681 252.113 339.717L259.43 324.039C259.997 323.535 263.839 324.327 263.598 323.212C263.413 322.354 250.233 315.41 248.477 314.602C246.345 313.62 243.587 312.347 241.364 311.707C240.867 311.564 240.187 311.269 239.704 311.508C239.263 311.787 239.282 312.347 239.326 312.813C239.522 314.885 244.105 315.72 245.519 316.822C245.684 316.951 245.821 317.032 245.824 317.272L242.244 337.911V337.913Z" fill="#EDD598"/>
<path d="M236.184 232.903L236.37 234.388C234.627 233.867 232.133 232.829 231.917 235.402C231.716 237.781 232.011 240.527 232.005 242.936C232.341 244.029 234.864 244.876 235.908 244.965C237.835 245.126 238.342 244.865 239.702 243.669L240.073 245.154C238.596 245.167 234.317 246.116 233.4 247.285C232.233 248.777 233.941 251.213 235.681 250.684C235.892 250.619 237.025 249.561 237.598 249.264C238.776 248.653 240.099 248.074 241.367 248.59C247.165 250.942 241.099 264.438 236.931 265.675C235.253 266.172 232.496 264.563 231.783 265.251C231.344 265.675 230.488 268.732 230.101 269.597C226.726 277.155 219.291 284.732 210.999 286.466C193.179 290.19 181.657 272.177 180.428 256.57C179.705 247.395 182.867 233.035 187.431 224.985C189.021 222.18 189.604 223.31 192.057 223.756C196.428 224.55 200.55 224.535 204.788 223.073C206.468 222.492 206.387 222.068 208.497 222.133C213.437 222.282 218.978 223.019 223.805 224.055C225.42 224.402 229.981 225.324 231.172 226.139C232.209 226.85 231.57 228.853 231.748 230.017C232.028 231.83 234.565 232.805 236.183 232.905L236.184 232.903ZM191.125 228.125C189.093 228.393 185.885 230.434 186.357 232.805C186.77 234.88 189.143 232.261 189.891 231.899C190.275 231.713 190.892 231.522 191.31 231.465C192.907 231.247 195.988 232.552 195.812 230.028C195.695 228.361 192.429 227.953 191.125 228.123V228.125ZM223.173 236.014C224.518 231.4 218.435 227.685 214.408 229.18C212.981 229.71 212.761 231.522 213.959 232.062C215.16 232.604 217.053 232.133 218.587 232.809C220.787 233.779 220.871 236.846 223.173 236.012V236.014ZM191.481 238.719C187.9 238.778 187.452 246.953 190.351 247.374C193.981 247.903 194.826 238.661 191.481 238.719ZM215.012 239.626C213.93 239.877 213.118 241.718 212.894 242.7C211.568 248.532 216.853 250.11 218.129 244.976C218.678 242.767 218.024 238.93 215.012 239.626ZM201.306 240.365C201.05 240.443 200.607 240.95 200.459 241.191C199.616 242.555 199.061 244.612 198.173 246.14C197.147 247.909 193.857 251.395 193.591 253.054C193.152 255.779 196.34 258.751 198.877 259.055C200.467 259.247 203.156 258.675 203.39 256.739C203.749 253.754 198.72 255.79 197.457 253.609C196.804 252.484 198.675 250.964 199.287 250.04C200.387 248.371 203.197 243.06 202.804 241.208C202.649 240.473 202.019 240.15 201.304 240.367L201.306 240.365ZM240.036 252.063C238.342 252.236 235.368 254.452 235.084 256.21C234.841 257.721 235.392 258.768 236.994 257.94C237.833 257.505 239.317 255.142 239.834 255.013C240.171 254.927 240.465 255.35 240.904 255.384C243.105 255.553 242.677 251.794 240.034 252.065L240.036 252.063ZM221.319 264.598C222.047 263.802 221.426 261.045 220.962 260.13C220.306 258.842 218.455 257.394 217.018 257.216C216.449 257.145 215.104 257.06 214.913 257.724C214.497 259.169 216.788 259.367 215.992 260.28C215.651 260.67 213.2 261.66 212.574 261.867C206.737 263.82 199.429 263.868 193.541 262.179C192.963 262.014 190.582 261.446 190.449 260.993C190.316 260.54 191.023 259.13 189.602 259.096C187.63 259.05 185.809 264.147 188.598 265.459C188.945 265.623 189.671 265.663 189.834 265.799C189.967 265.91 190.151 266.749 190.332 267.063C195.81 276.483 210.936 275.035 216.999 266.855C217.516 266.157 218.483 263.787 219.394 264.104C219.659 264.197 220.372 265.636 221.321 264.598H221.319ZM197.045 275.256C195.595 276.496 197.623 278.455 198.827 279.154C201.491 280.702 205.092 280.424 207.013 277.827C207.5 277.17 207.874 275.685 206.815 275.59C206.439 275.557 204.609 276.376 203.807 276.472C202.43 276.639 200.795 276.5 199.466 276.099C198.535 275.819 197.957 275.147 197.045 275.254V275.256Z" fill="#EDD598"/>
<path d="M196.543 340.378C196.504 340.454 196.656 340.719 196.427 340.756C192.814 340.495 188.871 339.83 185.549 338.31C184.838 337.983 183.291 337.296 183.008 336.587C182.845 334.976 182.437 333.348 182.285 331.743C181.409 322.489 181.939 314.211 182.289 305.024C182.315 304.349 182.387 303.02 182.276 302.424C182.061 301.273 180.222 301.724 179.963 302.695C179.707 304.601 179.312 306.647 179.135 308.547C179.003 309.954 179.398 311.475 178.759 312.811C172.294 317.147 164.858 321.066 156.902 321.257C163.032 315.375 163.899 307.107 160.881 299.359C160.311 297.895 159.412 296.54 158.938 295.088C160.546 294.856 162.193 294.761 163.793 294.476C172.864 292.857 180.883 287.351 190.243 286.549C189.415 292.9 193.528 299.04 199.318 301.41L197.842 312.074C197.796 312.564 197.888 313.065 197.838 313.556C197.108 320.759 196.706 327.765 196.543 334.997C196.543 335.058 196.543 335.121 196.543 335.182C196.536 335.49 196.551 335.802 196.543 336.11C196.54 336.235 196.547 336.357 196.543 336.482C196.54 336.606 196.543 336.728 196.543 336.853C196.543 336.914 196.543 336.977 196.543 337.038C196.541 337.84 196.543 338.65 196.543 339.452V340.38V340.378Z" fill="#EDD598"/>
<path d="M188.208 283.392C182.2 284.177 176.799 287.025 171.21 289.1C170.619 289.319 168.378 290.182 167.959 290.084C164.979 285.495 162.695 280.211 161.437 274.855C157.084 256.316 163.812 235.684 178.851 223.995C178.846 224.931 178.455 225.922 178.39 226.874C178.284 228.385 178.492 229.926 178.892 231.379C179.107 232.159 180.059 233.976 180.063 234.479C180.068 235.307 178.89 238.717 178.631 239.922C175.385 254.961 176.591 268.565 186.359 280.881C186.642 281.237 188.582 282.993 188.206 283.39L188.208 283.392Z" fill="#235C57"/>
<path d="M185.059 350.587C184.97 350.552 184.727 350.696 184.681 350.47L183.577 341.122C183.897 341.091 184.197 341.118 184.508 341.207C188.435 342.332 190.634 343.808 195.156 344.088C195.938 344.137 198.935 344.257 199.331 343.773C199.452 343.626 199.652 343.077 199.679 342.873C200.18 339.264 199.583 333.927 199.683 330.07C199.692 329.695 199.848 329.356 199.861 328.984C200.046 323.33 200.404 317.565 200.991 311.889C201.439 307.554 202.123 303.235 202.669 298.912C196.847 297.709 192.601 293.072 193.026 286.921L196.869 288.822C198.157 292.863 202.412 295.728 206.394 296.632C216.662 298.962 228.571 292.794 230.724 282.091C231.607 282.522 232.608 282.677 233.519 283.004C233.75 283.088 233.808 282.889 233.769 283.284C233.641 284.528 232.104 288.129 231.466 289.338C228.784 294.431 221.695 299.146 216.042 300.053C214.176 300.352 212.257 300.267 210.384 300.51C209.495 300.763 209.284 302.771 209.166 303.558C207.895 312.043 207.539 321.311 207.298 329.901C207.189 333.796 206.846 337.866 207.098 341.781C207.169 342.867 207.25 344.497 208.271 345.061C209.53 345.757 214.15 346.253 215.712 346.329C224.672 346.765 233.699 345.378 241.931 341.866C241.706 344.105 241.892 346.403 241.745 348.64C241.718 349.07 241.558 350.357 241.377 350.591H185.064L185.059 350.587Z" fill="#DDAD2E"/>
<path d="M234.362 269.502C236.651 269.621 238.057 269.42 239.949 268.138C244.896 264.784 248.786 255.787 246.828 249.99C246.539 249.136 245.561 247.838 245.633 247.124C245.696 246.489 247.264 243.591 247.623 242.604C248.26 240.851 248.886 238.721 249.131 236.875C249.379 235.004 249.236 233.085 249.614 231.236C261.042 244.796 264.215 264.049 257.811 280.656C257.185 282.282 256.377 284.268 255.481 285.746C255.26 286.11 254.868 286.911 254.436 286.919C246.684 283.238 238.461 280.816 230.207 278.527C229.86 278.343 229.677 278.236 229.775 277.825C229.97 277.022 231.954 274.308 232.511 273.311C233.197 272.088 233.76 270.77 234.362 269.504V269.502Z" fill="#235C57"/>
<path d="M246.186 230.119L241.001 227.427L240.812 227.06C241.279 224.088 238.163 223.323 235.992 222.423C230.022 219.947 216.412 216.231 210.244 217.398C207.472 217.924 205.2 219.494 202.51 220.229C198.651 221.283 194.326 221.035 190.427 220.19C188.393 219.75 186.715 219.061 184.816 218.261C183.925 218.488 184.001 220.615 184.34 221.278C184.679 221.94 186.064 222.371 185.051 223.151C184.208 223.8 182.567 222.674 181.928 222.024C179.223 219.267 179.722 213.337 182.582 210.827C182.823 210.785 184.077 212.427 184.518 212.747C185.007 213.101 185.555 213.365 186.131 213.543C196.782 216.838 204.305 198.504 217.014 204.499C219.535 205.689 219.924 206.996 221.554 208.86C223.273 210.825 224.403 209.866 226.461 209.702C231.316 209.318 235.255 211.427 237.511 215.702C238.076 216.771 238.687 219.086 239.33 219.819C239.839 220.4 241.666 221.02 242.57 221.77C245.196 223.949 245.967 226.8 246.186 230.117V230.119Z" fill="#DDAD2E"/>
<path d="M154.863 308.263C155.45 308.668 154.42 312.158 154.157 312.846C152.001 318.476 147.096 321.121 141.157 320.143L146.099 318.694C148.955 317.455 151.619 315.258 149.707 311.911C151.975 309.888 152.614 306.48 151.808 303.623C151.577 302.799 150.454 301.221 150.411 300.922C150.343 300.441 151.119 298.591 151.258 297.876C152.757 290.229 147.088 286.878 140.496 285.631C137.035 280.992 137.074 273.604 141.809 269.845C143.678 268.361 146.909 267.642 147.27 270.863C147.74 275.056 145.328 278.414 146.708 282.934C147.979 287.097 151.165 288.649 153.536 291.869C156.413 295.78 157.771 301.616 155.087 305.982C154.616 306.749 152.392 308.805 154.863 308.263Z" fill="#EDD598"/>
<path d="M148.559 299.352C148.263 299.602 146.068 298.24 145.541 298.023C140.236 295.832 133.818 296.566 128.362 297.78C126.74 295.008 126.93 291.519 130.035 289.976C136.826 286.602 151.162 289.239 148.559 299.352Z" fill="#EDD598"/>
<path d="M133.895 299.968C138.795 299.536 150.53 300.087 149.263 307.571C149.178 308.076 148.361 309.96 147.766 309.906C143.078 307.372 136.948 306.424 131.699 307.419C131.076 307.538 129.748 308.186 129.309 307.992C127.614 306.578 126.773 302.726 128.759 301.316C129.816 300.564 132.573 300.083 133.895 299.966V299.968Z" fill="#EDD598"/>
<path d="M135.229 316.806C135.144 317.129 135.363 317.177 135.505 317.363C135.846 317.81 136.498 317.955 136.524 318.474C133.623 318.614 127.375 313.717 131.093 311.081C134.129 308.93 143.217 310.498 146.288 312.499C149.774 314.771 145.63 316.448 143.382 316.9C140.679 317.442 137.915 317.457 135.231 316.806H135.229Z" fill="#EDD598"/>
<path d="M200.991 290.074C205.714 291.415 211.138 290.802 215.719 289.15C220.3 287.498 224.168 284.344 227.662 280.979C226.3 291.411 212.441 296.714 203.64 292.337C203.316 292.176 200.594 290.477 200.991 290.074Z" fill="#EDD598"/>
<path d="M246.373 350.587C246.641 350.184 246.647 349.224 246.791 348.961C246.841 348.868 247.162 348.816 247.273 348.619C248.314 346.78 249.349 344.912 250.54 343.166C254.09 347.014 258.978 349.221 264.156 349.846C264.074 350.693 263.909 350.576 263.229 350.587H260.821C260.39 350.587 259.956 350.587 259.525 350.587C259.463 350.587 259.4 350.587 259.339 350.587C258.785 350.591 258.226 350.568 257.672 350.587C257.468 350.594 257.205 350.531 257.116 350.773C256.887 350.784 256.596 350.797 256.376 350.773C256.357 350.685 256.274 350.594 256.19 350.587C253.63 350.34 250.615 350.682 248.04 350.773C248.014 350.494 247.51 350.494 247.484 350.773C247.177 350.761 246.865 350.78 246.558 350.773L246.373 350.587Z" fill="#EDD598"/>
<path d="M151.901 231.604C151.969 236.393 151.66 241.163 151.753 245.952C151.821 246.184 154.824 249.358 155.096 249.47C156.054 249.86 157.688 249.475 158.753 249.611C158.63 250.029 158.534 250.855 158.353 251.159C157.914 251.896 155.659 251.059 154.807 251.243L149.943 246.465L150.048 230.251C149.142 229.688 147.92 228.853 148.013 227.637C148.189 225.335 151.615 224.76 151.897 227.427C151.997 228.381 151.719 229.142 151.704 230.017C151.693 230.631 151.893 231.216 151.899 231.604H151.901Z" fill="#DDAD2E"/>
<path d="M284.717 239.771L281.485 243.289C281.433 246.181 281.459 249.104 281.059 251.974L272.864 260.189C270.013 260.824 267.056 260.47 264.156 260.563V258.705H271.937C271.947 258.536 272 258.369 272.132 258.257C274.712 256.084 276.856 253.451 279.425 251.265C280.169 249.862 279.488 245.269 279.714 243.387C279.886 241.945 282.333 240.243 283.243 239.112C283.709 238.876 284.45 239.708 284.719 239.771H284.717Z" fill="#DDAD2E"/>
<path d="M137.637 239.957C137.924 239.903 138.578 239.407 138.875 239.237L142.539 243.12L142.676 251.707L149.4 258.705H157.273L157.089 260.563L148.761 260.459C146.032 258.007 143.57 255.274 141.068 252.575C140.873 251.666 140.99 250.715 140.972 249.795C140.931 247.799 141.035 245.796 140.935 243.799L137.637 239.957Z" fill="#DDAD2E"/>
<path d="M236.184 232.903C237.246 232.968 238.217 232.875 239.059 232.164C239.465 231.823 239.832 230.876 240.349 230.865L245.824 233.956C245.832 236.317 245.433 238.646 244.704 240.885C243.839 240.193 241.881 239.649 241.175 238.947C240.706 238.479 240.664 237.753 240.36 237.165C239.509 235.52 238.052 234.891 236.37 234.388L236.184 232.903Z" fill="#DDAD2E"/>
<path d="M159.123 301.769C160.438 306.3 160.44 311.269 158.362 315.575C156.832 318.746 153.299 322.341 149.493 321.63C149.402 321.196 149.55 321.331 149.732 321.214C150.239 320.888 150.843 320.693 151.404 320.297C154.696 317.973 157.154 313.338 157.282 309.296C157.308 308.497 157 307.575 157.126 306.92C157.221 306.424 157.814 305.624 158.019 305.023C158.36 304.029 158.527 303.064 158.758 302.047C158.823 301.759 158.634 301.724 159.123 301.769Z" fill="#EDD598"/>
<path d="M264.341 265.016C264.387 264.405 264.307 263.772 264.341 263.159H275.177L284.906 253.418C285.197 253.286 287.296 253.242 287.468 253.351C287.548 253.401 288.179 254.758 288.422 254.992L285.458 255.085C283.739 257.169 281.698 258.994 279.805 260.928C278.523 262.239 276.915 264.841 274.998 265.021C271.624 265.339 267.766 264.771 264.339 265.014L264.341 265.016Z" fill="#DDAD2E"/>
<path d="M274.899 231.418C274.949 236.798 274.816 242.171 274.573 247.519C273.551 248.633 272.501 249.802 271.382 250.817C270.619 251.51 268.862 253.216 267.957 253.325C266.554 253.494 264.852 253.193 263.415 253.321C263.341 252.729 263.344 252.07 263.229 251.465L268.227 251.554L272.951 247.007L273.06 232.823C273.125 231.854 274.266 231.841 274.899 231.418Z" fill="#DDAD2E"/>
<path d="M157.087 265.016L146.156 264.739C143.237 261.268 140.012 258.057 137.228 254.476L134.118 254.435C134.499 253.986 134.751 253.188 135.037 252.664L137.635 252.676L147.09 263.063L156.797 262.994C157.263 263.104 157.074 264.553 157.089 265.014L157.087 265.016Z" fill="#DDAD2E"/>
<path d="M263.6 272.812C263.648 272.517 263.644 270.987 263.893 270.944L279.612 270.972C280.621 270.972 280.497 272.244 280.827 272.812H263.6Z" fill="#DDAD2E"/>
<path d="M235.388 237.397C238.922 236.335 240.262 243.099 235.205 241.96C233.504 241.575 233.865 237.856 235.388 237.397Z" fill="#DDAD2E"/>
<path d="M235.951 225.332C238.518 224.825 239.471 228.587 237.281 229.826C234.267 231.53 232.498 226.015 235.951 225.332Z" fill="#DDAD2E"/>
<path d="M135.737 233.313C138.193 232.835 138.978 236.786 136.568 237.137C134.159 237.488 133.331 233.783 135.737 233.313Z" fill="#DDAD2E"/>
<path d="M292.81 250.038C294.672 251.772 291.691 254.823 289.987 252.586C288.431 250.545 291.238 248.571 292.81 250.038Z" fill="#DDAD2E"/>
<path d="M132.015 252.7C130.352 254.452 127.597 252.217 129.113 250.255C130.628 248.293 133.781 250.84 132.015 252.7Z" fill="#DDAD2E"/>
<path d="M285.402 233.313C288.194 232.486 288.865 236.246 286.764 236.903C284.054 237.752 283.632 233.839 285.402 233.313Z" fill="#DDAD2E"/>
<path d="M272.262 225.515C275.307 225.076 274.916 230.386 271.611 229.052C269.981 228.393 270.491 225.772 272.262 225.515Z" fill="#DDAD2E"/>
<path d="M283.48 271.826C281.763 269.948 284.671 267.15 286.301 269.277C287.931 271.405 284.786 273.255 283.48 271.826Z" fill="#DDAD2E"/>
<path d="M239.704 243.669C239.973 243.433 240.269 242.736 240.721 242.739L243.199 244.356L242.851 245.713C241.836 245.377 241.167 245.145 240.074 245.156L239.704 243.671V243.669Z" fill="#DDAD2E"/>
<path d="M181.724 226.221L183.395 226.874C183.113 227.806 182.365 228.576 182.278 229.564C181.969 229.722 181.724 229.245 181.724 229.1V226.223V226.221Z" fill="#DDAD2E"/>
<path d="M239.148 350.587C238.961 350.891 238.213 350.886 238.037 350.587H239.148Z" fill="#235C57"/>
<path d="M229.886 350.587C229.764 350.88 229.082 350.88 228.96 350.587H229.886Z" fill="#235C57"/>
<path d="M197.284 350.587C197.162 350.88 196.48 350.88 196.358 350.587H197.284Z" fill="#235C57"/>
<path d="M231.368 350.587C231.14 350.841 230.863 350.845 230.627 350.587H231.368Z" fill="#235C57"/>
<path d="M203.953 350.587C203.719 350.847 203.438 350.841 203.212 350.587H203.953Z" fill="#235C57"/>
<path d="M206.176 350.587C205.948 350.841 205.67 350.847 205.435 350.587H206.176Z" fill="#235C57"/>
<path d="M199.878 350.587C199.692 350.812 199.507 350.812 199.322 350.587H199.878Z" fill="#235C57"/>
<path d="M205.064 350.587C204.877 350.812 204.694 350.813 204.509 350.587H205.064Z" fill="#235C57"/>
<path d="M202.1 350.587C201.915 350.812 201.73 350.812 201.545 350.587H202.1Z" fill="#235C57"/>
<path d="M221.921 350.587C221.736 350.812 221.551 350.81 221.365 350.587H221.921Z" fill="#235C57"/>
<path d="M257.672 350.587C257.583 350.83 257.318 350.763 257.116 350.773C257.205 350.531 257.468 350.594 257.672 350.587Z" fill="#235C57"/>
<path d="M248.04 350.773C247.856 350.78 247.667 350.778 247.484 350.773C247.51 350.494 248.014 350.494 248.04 350.773Z" fill="#235C57"/>
<path d="M227.293 350.587C227.108 350.812 226.923 350.812 226.737 350.587H227.293Z" fill="#235C57"/>
<path d="M185.614 350.587C185.329 350.934 185.242 350.661 185.058 350.587H185.614Z" fill="#235C57"/>
<path d="M237.481 350.587C237.298 350.812 237.111 350.81 236.925 350.587H237.481Z" fill="#235C57"/>
<path d="M210.807 350.587L210.583 350.713L210.436 350.587H210.807Z" fill="#235C57"/>
<path d="M212.659 350.587L212.435 350.713L212.289 350.587H212.659Z" fill="#235C57"/>
<path d="M206.917 350.587L206.768 350.715L206.546 350.587H206.917Z" fill="#235C57"/>
<path d="M193.209 350.587L192.985 350.713L192.839 350.587H193.209Z" fill="#235C57"/>
<path d="M192.283 350.587L192.135 350.713L191.912 350.587H192.283Z" fill="#235C57"/>
<path d="M191.171 350.587L191.023 350.713L190.801 350.587H191.171Z" fill="#235C57"/>
<path d="M241.371 350.587C241.221 350.78 241.234 350.836 241.001 350.587H241.371Z" fill="#235C57"/>
<path d="M186.54 350.587L186.316 350.713L186.17 350.587H186.54Z" fill="#235C57"/>
<path d="M196.543 336.48C196.547 336.355 196.54 336.233 196.543 336.108L196.669 336.257L196.543 336.48Z" fill="#235C57"/>
<path d="M235.814 350.587L235.666 350.713L235.443 350.587H235.814Z" fill="#235C57"/>
<path d="M256.376 350.773C256.29 350.763 256.211 350.674 256.19 350.587C256.274 350.594 256.357 350.685 256.376 350.773Z" fill="#235C57"/>
<path d="M263.044 350.587H263.229C263.203 350.587 263.131 350.706 263.044 350.587Z" fill="#235C57"/>
<path d="M196.543 340.378V340.192C196.673 340.294 196.58 340.307 196.543 340.378Z" fill="#235C57"/>
<path d="M221.319 264.598C220.369 265.636 219.657 264.197 219.393 264.104C218.483 263.787 217.516 266.157 216.997 266.855C210.935 275.035 195.808 276.483 190.33 267.063C190.147 266.749 189.965 265.91 189.832 265.799C189.671 265.663 188.943 265.621 188.597 265.459C185.807 264.147 187.628 259.05 189.601 259.096C191.021 259.13 190.319 260.563 190.447 260.993C190.58 261.446 192.961 262.012 193.539 262.179C199.427 263.868 206.735 263.822 212.572 261.867C213.198 261.658 215.649 260.67 215.99 260.28C216.786 259.369 214.495 259.17 214.912 257.724C215.104 257.06 216.447 257.145 217.016 257.216C218.453 257.396 220.304 258.844 220.96 260.13C221.426 261.045 222.047 263.802 221.317 264.598H221.319ZM215.806 262.976C209.251 265.48 202.89 266.196 195.952 264.958C194.789 264.75 193.441 264.223 192.364 264.095C192.088 264.062 192.042 264.067 192.092 264.368C192.233 265.209 192.668 265.801 193.2 266.412C197.529 271.399 207.841 270.471 212.9 267.022C214.237 266.111 215.688 264.659 215.804 262.974L215.806 262.976Z" fill="#092C2E"/>
<path d="M201.306 240.365C202.021 240.148 202.651 240.473 202.806 241.206C203.197 243.059 200.389 248.371 199.289 250.038C198.677 250.962 196.806 252.482 197.458 253.607C198.724 255.788 203.753 253.752 203.392 256.737C203.158 258.675 200.469 259.245 198.879 259.053C196.341 258.749 193.153 255.777 193.592 253.052C193.859 251.391 197.149 247.907 198.175 246.138C199.063 244.61 199.62 242.554 200.461 241.189C200.609 240.95 201.052 240.441 201.308 240.363L201.306 240.365Z" fill="#092C2E"/>
<path d="M215.012 239.626C218.024 238.928 218.678 242.767 218.129 244.976C216.853 250.11 211.568 248.534 212.894 242.7C213.119 241.716 213.93 239.877 215.012 239.626Z" fill="#092C2E"/>
<path d="M223.173 236.014C220.871 236.848 220.787 233.781 218.587 232.81C217.053 232.135 215.16 232.604 213.96 232.064C212.761 231.524 212.981 229.711 214.408 229.181C218.435 227.685 224.518 231.402 223.173 236.016V236.014Z" fill="#092C2E"/>
<path d="M191.481 238.719C194.826 238.663 193.981 247.903 190.351 247.374C187.45 246.951 187.9 238.778 191.481 238.719Z" fill="#092C2E"/>
<path d="M197.045 275.256C197.957 275.149 198.536 275.821 199.466 276.101C200.795 276.5 202.43 276.639 203.807 276.474C204.609 276.377 206.437 275.559 206.815 275.592C207.874 275.687 207.498 277.172 207.013 277.829C205.092 280.426 201.491 280.704 198.827 279.156C197.623 278.456 195.597 276.498 197.045 275.258V275.256Z" fill="#092C2E"/>
<path d="M191.125 228.125C192.429 227.955 195.697 228.363 195.812 230.03C195.988 232.556 192.907 231.249 191.31 231.466C190.892 231.524 190.275 231.713 189.891 231.901C189.145 232.263 186.77 234.882 186.357 232.807C185.885 230.436 189.093 228.394 191.125 228.127V228.125Z" fill="#092C2E"/>
<path d="M240.036 252.063C242.679 251.792 243.107 255.551 240.906 255.382C240.467 255.348 240.173 254.925 239.836 255.011C239.319 255.142 237.835 257.504 236.996 257.938C235.393 258.768 234.843 257.719 235.086 256.208C235.369 254.45 238.342 252.234 240.037 252.061L240.036 252.063Z" fill="#092C2E"/>
<path d="M215.806 262.976C215.688 264.659 214.237 266.113 212.902 267.024C207.843 270.473 197.531 271.401 193.202 266.413C192.672 265.803 192.235 265.211 192.094 264.37C192.044 264.069 192.09 264.063 192.366 264.097C193.442 264.225 194.791 264.752 195.954 264.96C202.89 266.198 209.253 265.483 215.808 262.978L215.806 262.976Z" fill="#EDD598"/>
</g>
<g clip-path="url(#clip1_6_238)">
<path d="M264.095 156.231V170.853H270.581V156.616C270.581 156.424 271.211 156.036 271.497 155.983C272.311 155.829 277.949 155.898 278.452 156.211C278.706 156.37 278.755 156.66 278.82 156.921L278.901 191.519C278.989 192.266 278.47 193.025 277.71 193.164C276.95 193.302 272.529 193.31 271.756 193.164C271.416 193.1 270.583 192.44 270.583 192.271V178.29H264.098V192.271C264.098 192.368 263.444 192.894 263.252 192.974C262.323 193.364 256.154 193.436 255.83 192.492L255.781 157.111C255.739 156.354 256.307 156.09 256.979 155.988C257.615 155.89 264.095 155.875 264.095 156.226V156.231Z" fill="#EDD598"/>
<path d="M225.83 193.171C223.581 192.799 224.6 188.087 223.368 186.627L216.084 186.612L214.89 192.602C214.823 192.869 214.039 193.171 213.897 193.171H207.411C206.941 193.171 206.542 191.75 206.791 191.281L214.343 156.673C214.579 156.118 215.155 156.034 215.707 155.97C217.573 155.754 222.133 155.772 224.027 155.959C224.395 155.995 224.769 155.931 225.075 156.206L233.112 191.884C233.312 192.207 232.772 193.171 232.573 193.171C230.692 193.171 227.509 193.451 225.828 193.171H225.83ZM222.587 179.575L219.863 164.951L217.139 179.575H222.587Z" fill="#EDD598"/>
<path d="M192.753 180.858V192.274C192.753 192.374 192.453 192.851 192.318 192.933C191.755 193.279 186.128 193.323 185.495 193.038C185.36 192.976 184.711 192.327 184.711 192.274V156.231C185.186 156.113 185.627 156 186.125 155.962C188.963 155.741 196.461 155.654 198.98 156.36C211.071 159.743 209.424 180.858 196.515 180.858H192.753ZM192.753 173.932C197.693 174.268 199.301 172.051 198.99 167.38C198.718 163.314 196.44 162.942 192.753 163.158V173.932Z" fill="#EDD598"/>
<path d="M313.775 168.545L313.425 168.121C313.547 164.83 312.268 160.459 308.096 162.419C306.052 163.378 305.741 166.903 305.606 168.935C305.388 172.187 305.211 182.207 306.337 184.883C307.52 187.695 311.648 187.376 312.691 184.403C312.911 183.775 313.09 181.117 313.778 181.117H320.263C322.157 181.117 319.879 187.828 319.306 188.893C315.428 196.088 302.677 195.547 299.156 188.136C296.951 183.487 297.021 168.765 298.202 163.666C299.88 156.419 306.623 153.628 313.599 155.641C316.528 156.488 320.65 160.423 320.65 163.548V168.165L320.261 168.55H313.775V168.545Z" fill="#EDD598"/>
<path d="M131.01 163.414V170.853H137.366C137.465 170.853 138.274 171.436 138.274 171.495V177.395L137.885 177.78H131.01V185.989H138.663C139.431 185.989 139.538 187.335 139.582 187.905C139.649 188.751 139.828 193.171 138.923 193.171H123.876C123.168 193.171 123.082 190.38 123.067 189.752C122.916 184.162 122.986 178.403 122.955 172.79C122.924 167.177 122.893 162.088 123.106 156.752C123.451 156.234 123.77 156.042 124.385 155.965C126.87 155.641 130.434 156.047 132.959 156.257C134.209 156.308 138.059 155.39 138.604 156.552C138.881 157.142 138.938 161.742 138.788 162.514C138.733 162.796 138.339 163.419 138.147 163.419H131.013L131.01 163.414Z" fill="#EDD598"/>
<path d="M180.042 192.915C179.567 193.033 179.126 193.146 178.628 193.184C175.502 193.428 168.082 193.569 165.114 193.184C164.751 193.138 164.442 193.125 164.193 192.812L164.087 156.488C164.326 156.059 164.673 156.021 165.114 155.965C167.976 155.6 174.84 155.739 177.847 155.965C179.118 156.062 179.658 156.018 179.785 157.383C179.868 158.271 179.917 162.334 179.653 162.898C179.595 163.019 179.183 163.417 179.139 163.417H171.745V170.856H178.361C179.305 172.657 179.419 175.999 178.361 177.782H171.486V185.991H179.398C179.445 185.991 180.047 186.586 180.047 186.632V192.917L180.042 192.915Z" fill="#EDD598"/>
<path d="M246.454 163.414V192.53C246.133 192.887 245.749 193.082 245.271 193.156C244.459 193.282 239.188 193.277 238.677 193.041C238.555 192.984 238.153 192.576 238.153 192.533V163.414H231.797C231.753 163.414 231.34 163.019 231.283 162.896C230.902 162.088 230.886 156.819 231.797 155.975H252.291C253.311 156.893 253.161 162.457 252.543 163.168C252.198 163.563 247.381 163.501 246.454 163.414Z" fill="#EDD598"/>
<path d="M113.888 163.414V192.53C112.49 193.474 109.26 193.338 107.52 193.184C106.975 193.135 106.093 193.092 105.888 192.489L105.846 163.414H99.7498C99.7057 163.414 99.2932 163.019 99.2361 162.896C98.7354 161.836 99.1609 157.586 99.3606 156.231H119.725L120.07 156.657C120.06 158.794 120.81 161.526 119.725 163.414H113.888Z" fill="#EDD598"/>
<path d="M150.986 185.732H159.677C159.724 185.732 160.325 186.327 160.325 186.373V192.53C160.097 192.897 159.809 192.884 159.43 192.928C156.922 193.22 153.497 192.856 150.846 192.905C148.872 192.941 146.7 193.395 144.615 193.187C144.231 193.148 143.203 192.989 143.203 192.53V156.616L143.593 156.231H150.597C150.641 156.231 151.054 156.626 151.111 156.75C151.015 165.943 151.7 175.366 151.251 184.562C151.23 184.973 151.009 185.329 150.986 185.732Z" fill="#EDD598"/>
<path d="M292.077 156.267C292.31 166.636 291.895 177.038 292.103 187.41C292.129 188.674 293.12 192.617 291.415 193.123C290.525 193.387 285.101 193.269 284.46 192.661C283.562 191.809 284.323 188.849 284.343 187.669C284.528 178.27 284.325 168.829 284.343 159.428C284.343 158.404 283.671 156.283 285.244 155.982C286.03 155.831 291.848 155.911 292.074 156.27L292.077 156.267Z" fill="#EDD598"/>
</g>
<path d="M227.406 383.764C227.544 383.804 227.794 384.143 227.851 384.314L230.486 396.518C230.852 396.456 230.82 396.107 230.907 395.846C232.073 392.429 232.133 388.12 233.153 384.748C233.227 384.503 233.533 383.762 233.759 383.762H239.418C239.51 384.127 239.597 384.465 239.627 384.848C240.085 390.687 239.498 397.424 239.609 403.399C239.625 404.232 240.232 407.217 239.486 407.691C239.039 407.974 235.528 408.196 235.336 407.295L235.445 392.331C235.048 392.409 235.119 392.751 235.05 393.028C233.876 397.678 233.022 402.436 232.023 407.129C231.696 408.124 229.553 408.239 229.144 407.327L225.717 393.329V407.378C225.236 408.122 221.979 408.016 221.594 407.63L221.34 403.783C222.25 397.676 220.834 390.466 221.537 384.451C221.57 384.16 221.56 383.939 221.844 383.764H227.405H227.406Z" fill="#DDAD2E"/>
<path d="M200.857 383.226C207.386 382.789 209.128 387.359 209.445 393.02C209.712 397.769 209.894 407.468 203.564 408.257C200.029 408.698 196.927 408.048 195.303 404.624C193.665 401.171 193.687 391.295 194.991 387.698C196.026 384.844 197.821 383.429 200.859 383.226H200.857ZM201.639 387.592C200.422 387.694 200.027 388.66 199.765 389.7C199.143 392.169 199.016 398.489 199.558 400.95C200.242 404.054 203.119 405.103 203.983 401.506C204.529 399.232 204.559 390.802 203.52 388.804C203.176 388.142 202.422 387.526 201.639 387.592Z" fill="#DDAD2E"/>
<path d="M175.281 393.13L179.036 383.846C179.508 383.451 182.402 383.459 183.134 383.555C184.425 383.724 184.02 384.681 183.716 385.553C182.739 388.367 180.501 391.34 179.465 394.22L184.433 406.982L184.236 407.598C183.891 408.036 180.108 408.02 179.701 407.628L175.978 398.118C175.795 398.114 175.084 399.184 175.084 399.409V407.38C175.084 408.164 171.057 407.952 170.368 407.632L170.169 407.141C170.094 404.431 170.1 401.715 170.112 399.003C170.116 397.837 170.328 396.504 170.33 395.216C170.332 391.883 169.727 387.738 170.11 384.453C170.193 383.734 170.535 383.642 171.21 383.565C171.885 383.487 175.285 383.355 175.285 384.266V393.134L175.281 393.13Z" fill="#DDAD2E"/>
<path d="M149.168 407.877C148.142 407.691 148.297 404.415 147.834 403.532C146.275 403.086 144.675 403.385 143.098 403.578C142.576 404.481 142.768 407.877 141.424 407.877H137.85C137.564 407.877 137.18 406.944 137.369 406.611C139.305 399.551 140.157 391.729 142.216 384.756C142.298 384.479 142.423 383.889 142.647 383.746C143.692 383.28 144.792 383.698 145.795 383.762C146.66 383.816 148.297 383.437 148.719 384.214L153.743 407.472C153.704 407.56 153.368 407.877 153.34 407.877C152.191 407.877 150.181 408.058 149.17 407.877H149.168ZM147.282 399.308L145.691 390.141C145.312 390.211 145.362 390.555 145.286 390.828C144.555 393.457 144.353 396.617 143.707 399.308H147.282Z" fill="#DDAD2E"/>
<path d="M242.3 407.877C241.825 407.729 241.994 406.288 242.057 405.838L246.944 383.877C247.097 383.65 250.598 383.77 251.233 383.762C252.453 383.744 252.816 383.132 253.38 384.8C254.301 387.53 254.953 391.765 255.608 394.72C256.547 398.959 257.522 403.251 258.094 407.54C258.052 407.671 257.647 407.877 257.592 407.877H253.62C252.615 407.877 252.782 404.276 252.304 403.518L247.856 403.479L247.506 403.734C247.192 404.445 247.004 407.875 246.275 407.875H242.304L242.3 407.877ZM251.732 399.308L250.141 390.34C249.76 390.41 249.814 390.757 249.736 391.028C248.995 393.614 248.912 396.683 248.157 399.308H251.732Z" fill="#DDAD2E"/>
<path d="M294.525 399.905C295.502 400.208 294.268 404.254 293.863 405.021C291.528 409.443 283.879 409.76 281.482 405.22C279.741 401.92 279.83 389.991 281.482 386.618C284.014 381.45 292.624 381.797 294.276 387.797C294.6 388.973 294.965 390.677 294.324 391.735H290.352C289.387 391.735 290.609 388.05 288.379 387.739C287.376 387.6 286.776 387.728 286.196 388.561C285.116 390.115 285.156 396.902 285.279 399.019C285.394 400.992 285.591 404.7 288.476 403.801C290.132 403.285 289.526 400.97 290.35 399.905H294.521H294.525Z" fill="#DDAD2E"/>
<path d="M158.998 400.105C159.371 401.408 158.791 402.823 160.088 403.692C161.901 404.907 163.382 403.062 162.78 401.187C161.438 397.004 154.329 394.874 154.83 388.846C155.451 381.331 166.879 381.125 167.713 388.268C167.792 388.951 167.963 390.671 167.199 390.896C166.839 391.002 163.976 390.93 163.702 390.757C163.037 390.336 163.845 388.654 162.675 387.744C160.985 386.43 159.222 388.319 160.149 390.28C161.009 392.104 164.449 394.579 165.852 396.313C170.304 401.813 167.348 409.122 159.915 408.251C157.012 407.911 155.058 405.453 154.824 402.6C154.764 401.89 154.675 400.619 155.129 400.101H159.002L158.998 400.105Z" fill="#DDAD2E"/>
<path d="M125.538 388.347C124.779 388.118 124.954 383.989 125.268 383.792C126.547 383.718 127.837 383.788 129.12 383.772C130.067 383.76 130.939 383.766 131.884 383.772C134.096 383.784 136.315 383.728 138.525 383.786C138.805 384.025 139.005 387.867 138.249 388.347H134.376V407.378C134.376 408.06 130.941 407.962 130.318 407.865C129.952 407.807 129.656 407.657 129.412 407.378V388.347H125.538Z" fill="#DDAD2E"/>
<path d="M270.398 388.347H266.228V407.378C266.228 407.412 265.922 407.729 265.827 407.773C265.336 408.002 261.496 408.02 261.265 407.526L261.261 388.347H257.389L257.091 388.048V384.063L257.389 383.764H270.296L270.594 384.063V387.849C270.594 387.915 270.332 388.152 270.396 388.347H270.398Z" fill="#DDAD2E"/>
<path d="M277.519 407.649C277.318 407.97 273.126 408.062 272.761 407.598L272.574 395.414C272.878 392.801 272.848 390.087 272.791 387.441C272.765 386.265 272.237 384.96 272.824 383.806C273.2 383.537 276.474 383.461 277.044 383.571C277.439 383.646 277.681 383.854 277.739 384.268L277.519 407.649Z" fill="#DDAD2E"/>
<path d="M191.715 394.174C192.088 394.995 192.233 397.797 191.365 398.214C190.964 398.405 186.026 398.393 185.611 398.208C184.675 397.793 184.767 394.427 185.605 394.027C186.111 393.786 191.385 393.843 191.715 394.174Z" fill="#DDAD2E"/>
<path d="M212.017 394.425C212.212 393.827 217.329 393.75 218.036 393.965C218.987 394.254 219.182 397.911 218.074 398.112C217.496 398.218 212.849 398.238 212.351 398.074C212.204 398.026 212.1 397.941 212.015 397.813V394.425H212.017Z" fill="#DDAD2E"/>
<circle cx="210" cy="273" r="175.5" stroke="#092C2E" stroke-width="9"/>
<defs>
<clipPath id="clip0_6_238">
<rect width="172" height="153" fill="white" transform="translate(124 200)"/>
</clipPath>
<clipPath id="clip1_6_238">
<rect width="222" height="39" fill="white" transform="translate(99 155)"/>
</clipPath>
</defs>
</svg>
