<svg width="440" height="490" viewBox="0 0 440 490" fill="none" xmlns="http://www.w3.org/2000/svg">
<rect width="440" height="956" transform="translate(0 -151)" fill="#1C201E"/>
<g clip-path="url(#clip0_11_319)">
<path d="M325.124 386H168.373V381.647C167.804 371.676 165.878 361.861 164.729 351.97C163.523 341.563 163.118 331.199 163.346 320.705L156.205 325.115C142.566 332.736 123.277 337.893 107.736 334.611C105.891 334.223 103.322 332.977 101.865 332.773C99.8852 332.499 96.6966 332.964 94.5061 332.77C84.8599 331.913 67.6976 325.186 68.8967 313.165C69.0006 312.113 70.0221 310.225 69.8513 309.552C69.7106 308.996 68.0527 307.784 67.5637 307.131C65.189 303.97 64.0837 299.784 64.6263 295.84C64.854 294.179 66.4885 291.135 66.5153 290.067C66.5388 289.096 65.0248 286.554 64.6966 285.215C61.8697 273.71 67.8551 267.696 78.3956 265.071C80.9612 264.431 83.5737 264.26 86.1628 263.785C86.4207 263.43 84.6824 258.993 84.4646 258.086C82.4785 249.926 83.8283 240.958 89.1873 234.335C94.1243 228.231 104.373 223.895 109.766 231.787C115.661 240.419 108.061 248.392 110.603 257.403C112.305 263.433 117.674 266.279 121.318 270.8C122.008 271.654 124.557 275.836 124.831 275.99C126.345 276.834 135.955 274.553 138.229 274.148C135.921 269.628 133.175 265.318 131.138 260.647C126.382 249.748 124.182 239.16 123.827 227.273C123.803 226.443 124.141 223.828 123.297 223.63L105.747 223.754L88.6514 205.016L83.9522 204.996C83.4364 205.94 82.9809 207.38 82.2909 208.19C78.3855 212.788 70.625 211.438 68.2938 205.944C65.2827 198.858 72.1992 192.322 79.176 195.064C81.7014 196.059 82.6191 197.877 83.8417 200.111C85.5163 200.486 92.684 199.628 93.5214 200.479C93.8463 200.81 93.9099 201.838 94.1812 201.832L94.6836 199.819C94.7171 201.48 94.5061 203.194 94.8578 204.835C99.3828 209.701 103.834 214.629 108.768 219.056L123.827 219.244L124.158 215.892H109.923L97.765 203.268L97.5172 187.778L90.8921 180.773C90.3529 181.081 89.1705 181.972 88.6547 182.072C81.209 183.479 74.3328 175.292 78.9449 168.849C83.557 162.407 93.7022 165.119 94.3118 173.246C94.4759 175.432 93.6285 176.424 93.384 178.356C95.7822 179.474 102.267 185.203 102.669 187.684C102.796 188.461 102.377 189.161 102.374 189.931C102.367 191.927 102.069 200.238 102.705 201.346L112.003 211.137L124.46 211.171L125.163 207.193C122.246 206.838 118.973 207.41 116.478 205.662C115.038 204.654 107.78 197.207 106.922 195.794C105.626 193.651 106.413 191.937 106.339 189.948C106.058 182.273 106.567 174.632 106.413 166.914C100.418 163.274 101.999 153.142 108.815 151.504C119.024 149.05 123.267 162.695 114.448 167.014C114.438 166.311 114.08 165.26 114.097 164.151C114.123 162.574 114.626 161.201 114.445 159.48C113.939 154.669 107.743 155.707 107.421 159.859C107.254 162.052 109.464 163.555 111.102 164.573L110.911 193.822L119.707 202.441C121.248 202.11 125.324 203.62 126.118 202.29C126.446 201.741 126.62 200.251 126.841 199.498C127.31 197.891 127.662 196.233 128.174 194.636C134.109 176.102 144.921 159.949 160.636 148.377C158.633 141.931 158.891 133.63 162.679 127.841C164.789 124.62 168.504 121.86 172.54 122.503C174.988 122.892 174.627 127.228 178.08 128.346C182.548 129.79 188.125 127.027 191.725 124.566C197.895 120.347 202.514 115.773 209.678 112.712C222.372 107.295 237.086 109.913 245.302 121.415C253.347 120.866 262.183 122.624 268.516 127.841C272.382 131.025 275.008 136.49 276.401 141.221C281.06 143.652 284.727 146.8 287.33 151.391C289.353 154.953 289.115 155.318 291.979 158.462C298.808 165.963 304.941 174.579 309.104 183.867C311.221 188.592 312.638 193.598 314.734 198.329L322.542 198.423L328.403 192.898L329.154 166.904C322.562 163.823 322.756 154.582 329.458 151.762C338.833 147.824 344.946 161.292 336.844 166.68C335.695 167.443 333.635 167.466 333.518 169.214L333.32 194.8L324.779 203.004L315.743 202.843C315.95 203.934 315.944 205.12 316.078 206.191C316.289 207.849 316.938 209.493 316.744 211.217L329.237 211.147L340.21 200.686C341.402 195.791 340.518 190.721 341.01 185.749C343.278 182.404 346.376 179.692 349.417 177.053C347.039 169.931 353.185 162.39 360.638 165.829C369.745 170.031 364.074 183.991 354.592 181.751C354.103 181.637 352.767 180.134 351.923 180.562C350.278 182.601 345.854 185.672 345.542 188.274C345.133 191.669 346.366 199.957 345.02 202.485C340.374 206.429 336.499 211.181 331.833 215.098C331.595 215.299 331.498 215.601 331.481 215.905H317.414V219.257C322.656 219.093 328.001 219.729 333.156 218.584C332.999 220.067 335.564 218.872 336.006 218.584L352.924 201.678L358.933 201.49C359.636 193.645 370.622 191.766 374.082 198.929C378.219 207.497 367.256 214.904 361.291 209.205C360.849 208.783 359.71 206.335 359.566 206.245C359.254 206.047 355.463 206.128 354.934 206.365L337.343 223.938H317.749C317.689 225.043 317.833 226.185 317.749 227.287C317.595 229.272 317.391 231.342 317.079 233.314H347.391C350.429 228.13 357.308 226.952 361.13 231.968C367.206 239.937 356.441 249.959 348.932 242.823C348.747 242.646 347.609 241.437 347.558 241.35C346.966 240.326 347.187 238.035 345.361 238.032L316.938 237.982C316.49 238.059 316.496 240.818 316.409 241.35C314.761 251.345 310.987 260.821 305.825 269.477L305.835 270.147C310.635 273.201 315.729 275.782 320.398 279.054C331.699 286.966 342.541 298.07 349.166 310.231C355.048 321.023 353.778 325.437 349.391 336.44C343.121 352.161 334.07 367.349 325.118 381.651M284.928 164.332C284.533 158.349 283.136 153.209 278.39 149.274C276.756 147.921 273.453 146.803 272.532 145.755C271.37 144.432 270.265 140.257 269.243 138.328C265.164 130.617 258.043 126.816 249.264 127.506C245.543 127.801 243.5 129.532 240.392 125.986C237.444 122.624 236.741 120.267 232.182 118.12C209.202 107.305 195.6 140.381 176.341 134.434C175.3 134.112 174.312 133.637 173.424 132.997C172.627 132.421 170.359 129.458 169.924 129.535C164.753 134.062 163.852 144.761 168.742 149.733C169.897 150.908 172.861 152.937 174.389 151.766C176.221 150.356 173.709 149.562 173.103 148.387C172.496 147.212 172.352 143.354 173.963 142.946C177.4 144.386 180.431 145.628 184.109 146.425C191.156 147.948 198.98 148.397 205.957 146.495C210.82 145.169 214.93 142.333 219.94 141.389C231.094 139.282 255.705 145.986 266.497 150.453C270.422 152.077 276.056 153.456 275.212 158.817L275.553 159.48L284.928 164.336V164.332ZM266.845 169.355C263.921 169.174 259.332 167.416 258.827 164.145C258.502 162.049 259.661 158.432 257.785 157.15C255.635 155.68 247.385 154.012 244.465 153.39C235.736 151.521 225.715 150.192 216.785 149.924C212.97 149.81 213.121 150.573 210.08 151.618C202.416 154.26 194.964 154.284 187.059 152.85C182.625 152.047 181.57 150.008 178.696 155.067C170.443 169.593 164.722 195.496 166.032 212.044C168.256 240.198 189.089 272.692 221.31 265.975C236.302 262.851 249.746 249.179 255.849 235.544C256.549 233.984 258.093 228.469 258.89 227.705C260.18 226.463 265.164 229.369 268.198 228.469C275.734 226.239 286.707 201.892 276.22 197.649C273.926 196.722 271.531 197.763 269.404 198.865C268.369 199.401 266.319 201.313 265.937 201.427C262.789 202.377 259.704 197.984 261.814 195.295C263.472 193.183 271.209 191.475 273.879 191.451C275.855 191.435 277.064 191.85 278.899 192.456L279.529 190.008L275.048 187.092C274.234 187.085 273.695 188.347 273.209 188.769C270.747 190.929 269.833 191.398 266.349 191.107C264.46 190.949 259.898 189.419 259.292 187.447C259.302 183.097 258.77 178.145 259.131 173.855C259.523 169.214 264.028 171.083 267.183 172.027C270.338 172.971 272.861 174.07 274.398 177.036C274.947 178.094 275.024 179.407 275.872 180.251C277.144 181.517 280.688 182.498 282.252 183.747C283.569 179.708 284.292 175.506 284.279 171.247L274.378 165.672C273.443 165.692 272.78 167.399 272.047 168.016C270.523 169.298 268.768 169.469 266.848 169.348L266.845 169.355ZM180.096 260.433C180.776 259.716 177.266 256.549 176.757 255.906C159.096 233.689 156.915 209.145 162.783 182.019C163.252 179.846 165.386 173.691 165.372 172.201C165.366 171.294 163.641 168.016 163.255 166.609C162.532 163.987 162.16 161.208 162.348 158.483C162.468 156.768 163.172 154.977 163.182 153.289C135.988 174.374 123.823 211.592 131.694 245.037C133.968 254.697 138.098 264.23 143.487 272.508C144.244 272.688 148.297 271.128 149.366 270.733C159.471 266.989 169.237 261.853 180.099 260.436L180.096 260.433ZM266.423 155.697C260.18 156.926 263.378 166.877 268.828 163.803C272.787 161.57 271.065 154.782 266.423 155.697ZM332.078 156.028C328.876 156.49 327.958 161.218 330.902 162.407C336.877 164.814 337.584 155.235 332.078 156.028ZM168.373 157.301V162.491C168.373 162.752 168.815 163.612 169.375 163.328C169.529 161.546 170.885 160.157 171.394 158.476L168.373 157.297V157.301ZM263.549 235.377C262.461 237.66 261.443 240.034 260.203 242.244C259.192 244.042 255.608 248.938 255.256 250.388C255.075 251.131 255.41 251.325 256.037 251.653C270.961 255.779 285.829 260.148 299.847 266.792C300.627 266.778 301.337 265.332 301.736 264.676C303.357 262.01 304.817 258.427 305.949 255.494C317.528 225.532 311.787 190.802 291.128 166.345C290.445 169.68 290.699 173.142 290.254 176.517C289.812 179.849 288.68 183.693 287.527 186.851C286.878 188.632 284.044 193.859 283.93 195.004C283.803 196.293 285.571 198.634 286.091 200.174C289.628 210.631 282.594 226.861 273.651 232.912C270.231 235.226 267.692 235.587 263.549 235.373V235.377ZM85.2216 170.095C80.8708 170.942 82.1737 177.649 86.7255 176.993C91.2773 176.337 89.6629 169.234 85.2216 170.095ZM355.838 170.095C352.636 171.043 353.4 178.101 358.3 176.571C362.098 175.386 360.886 168.602 355.838 170.095ZM265.405 177.462C262.652 178.285 261.999 184.999 265.073 185.692C274.217 187.751 271.795 175.546 265.405 177.462ZM78.4927 205.066C81.6847 201.711 76.0477 197.04 73.2442 200.656C70.4408 204.273 75.485 208.227 78.4927 205.066ZM369.232 200.265C366.389 197.619 361.314 201.182 364.128 204.862C367.209 208.894 372.598 203.392 369.232 200.265ZM119.804 305.299C115.336 306.273 119.355 302.567 120.209 301.184C125.062 293.308 122.607 282.781 117.406 275.725C113.119 269.916 107.358 267.117 105.06 259.606C102.568 251.452 106.929 245.395 106.075 237.831C105.422 232.025 99.5804 233.321 96.2009 235.996C87.6432 242.777 87.5695 256.103 93.8262 264.471C105.747 266.725 115.996 272.765 113.286 286.561C113.032 287.85 111.631 291.189 111.755 292.056C111.832 292.595 113.859 295.445 114.281 296.928C115.738 302.078 114.582 308.229 110.483 311.879C113.943 317.913 109.123 321.877 103.958 324.114L95.0219 326.729C105.76 328.494 114.629 323.722 118.528 313.566C119.003 312.324 120.869 306.032 119.804 305.299ZM352.361 239.569C354.723 242.147 360.263 238.621 357.463 234.971C354.518 231.134 349.26 236.18 352.361 239.569ZM203.21 272.487C202.493 273.214 207.414 276.281 208 276.569C223.913 284.465 248.973 274.898 251.435 256.08C245.118 262.151 238.205 267.81 229.841 270.82C221.478 273.83 211.754 274.905 203.21 272.487ZM276.223 381.647C276.552 381.225 276.84 378.905 276.89 378.128C277.154 374.093 276.82 369.951 277.225 365.909C262.344 372.245 246.019 374.746 229.818 373.959C226.994 373.822 218.641 372.928 216.363 371.672C214.518 370.654 214.367 367.714 214.243 365.755C213.788 358.694 214.407 351.35 214.605 344.325C215.04 328.829 215.683 312.11 217.981 296.804C218.195 295.384 218.577 291.758 220.185 291.306C223.571 290.867 227.041 291.025 230.414 290.482C240.64 288.845 253.458 280.34 258.304 271.151C259.456 268.972 262.236 262.476 262.467 260.232C262.541 259.519 262.437 259.877 262.015 259.727C260.367 259.137 258.559 258.856 256.961 258.079C253.069 277.386 231.539 288.513 212.97 284.311C205.769 282.68 198.076 277.51 195.748 270.221L188.798 266.792C188.031 277.889 195.711 286.253 206.235 288.423C205.247 296.221 204.011 304.01 203.2 311.832C202.138 322.075 201.492 332.472 201.157 342.671C201.134 343.341 200.856 343.954 200.835 344.63C200.655 351.591 201.733 361.215 200.829 367.724C200.779 368.096 200.413 369.084 200.199 369.348C199.482 370.222 194.063 370.005 192.65 369.918C184.474 369.412 180.498 366.75 173.397 364.721C172.835 364.56 172.292 364.51 171.713 364.567L173.709 381.43C173.793 381.838 174.231 381.577 174.392 381.641C174.724 381.774 174.881 382.267 175.397 381.641H176.402L176.67 381.868L177.072 381.641H184.775L185.177 381.868L185.445 381.641H186.785L187.187 381.868L187.455 381.641H188.46L188.727 381.868L189.129 381.641H194.823C195.044 382.17 196.277 382.17 196.498 381.641H200.182C200.517 382.046 200.852 382.046 201.187 381.641H204.202C204.537 382.046 204.871 382.046 205.206 381.641H207.216C207.625 382.099 208.134 382.109 208.556 381.641H209.561C209.896 382.049 210.227 382.046 210.565 381.641H211.235C211.661 382.109 212.163 382.099 212.575 381.641H213.245L213.65 381.872L213.915 381.641H220.279L220.547 381.868L220.949 381.641H223.628L223.896 381.868L224.298 381.641H240.04C240.375 382.042 240.71 382.046 241.045 381.641H249.753C250.088 382.046 250.423 382.046 250.758 381.641H253.772C253.994 382.17 255.226 382.17 255.447 381.641H256.787C257.212 382.106 257.715 382.099 258.127 381.641H265.495L265.897 381.865L266.165 381.641H268.175C268.51 382.042 268.848 382.046 269.18 381.641H270.184C270.503 382.18 271.856 382.19 272.194 381.641H275.543C275.965 382.089 275.942 381.989 276.213 381.641L276.223 381.647ZM277.801 358.784L284.275 321.552C284.269 321.117 284.021 320.973 283.723 320.742C281.164 318.756 272.881 317.246 272.526 313.509C272.445 312.669 272.412 311.658 273.209 311.155C274.083 310.724 275.312 311.256 276.21 311.514C280.229 312.669 285.216 314.966 289.072 316.737C292.247 318.197 316.078 330.724 316.413 332.267C316.848 334.28 309.898 332.85 308.876 333.761L295.646 362.042C299.632 367.389 305.741 371.086 312.142 373.032C313.917 373.571 319.052 375.011 320.633 374.924C322.04 374.843 325.978 367.962 326.859 366.472C331.354 358.874 335.896 350.055 339.587 342.028C342.22 336.302 347.384 325.37 346.53 319.229C345.907 314.742 337.571 303.558 334.338 299.941C317.049 280.591 292.508 268.161 267.686 261.421L267.003 261.769C262.092 281.669 244.743 296.546 224.003 296.968C219.773 319.517 219.733 342.477 219.96 365.404C220.108 366.516 221.069 366.529 221.95 366.763C228.97 368.652 242.22 368.009 249.592 367.249C259.44 366.234 269.304 363.987 277.801 358.787V358.784ZM195.168 353.52C195.466 340.475 196.19 327.837 197.51 314.842C197.6 313.958 197.433 313.057 197.516 312.17L200.186 292.933C189.716 288.657 182.28 277.58 183.777 266.125C166.853 267.575 152.357 277.507 135.951 280.423C133.054 280.939 130.08 281.11 127.173 281.528C128.03 284.147 129.654 286.591 130.686 289.233C136.139 303.213 134.575 318.124 123.492 328.735C137.877 328.39 151.322 321.321 163.011 313.499C164.163 311.085 163.45 308.346 163.691 305.808C164.012 302.379 164.726 298.686 165.188 295.25C165.657 293.499 168.983 292.689 169.371 294.761C169.572 295.836 169.442 298.234 169.395 299.453C168.762 316.024 167.804 330.962 169.388 347.65C169.663 350.543 170.4 353.483 170.694 356.39C171.207 357.666 174.004 358.908 175.29 359.497C181.295 362.24 188.426 363.438 194.957 363.91C195.376 363.843 195.098 363.365 195.168 363.227C195.235 363.1 195.403 363.077 195.168 362.893V361.553C195.168 360.107 195.165 358.647 195.168 357.2V356.865C195.168 356.641 195.162 356.42 195.168 356.196L195.396 355.794L195.168 355.526C195.182 354.97 195.155 354.408 195.168 353.852V353.517V353.52ZM108.406 289.223C113.112 270.981 87.1944 266.223 74.9122 272.31C69.2987 275.093 68.9537 281.388 71.8877 286.387C81.7516 284.2 93.3572 282.874 102.95 286.826C103.901 287.217 107.87 289.672 108.406 289.223ZM81.8923 290.335C79.4975 290.546 74.517 291.413 72.6045 292.769C69.014 295.311 70.5346 302.262 73.5993 304.813C74.3964 305.165 76.7946 303.993 77.92 303.779C87.4121 301.984 98.4952 303.695 106.972 308.266C108.048 308.363 109.525 304.964 109.679 304.053C111.97 290.552 90.7514 289.558 81.8923 290.338V290.335ZM127.508 293.583C126.62 293.502 126.965 293.566 126.848 294.085C126.429 295.92 126.124 297.658 125.511 299.453C125.14 300.538 124.068 301.981 123.897 302.875C123.669 304.057 124.225 305.718 124.178 307.161C123.947 314.454 119.506 322.815 113.551 327.007C112.536 327.72 111.447 328.072 110.526 328.661C110.198 328.872 109.93 328.628 110.094 329.411C116.977 330.694 123.364 324.208 126.131 318.489C129.892 310.72 129.886 301.756 127.508 293.583ZM84.3039 320.709C89.1571 321.884 94.1577 321.857 99.0411 320.879C103.107 320.066 110.597 317.039 104.296 312.94C98.743 309.331 82.311 306.501 76.8214 310.382C70.0992 315.137 81.4 323.97 86.6417 323.719C86.5982 322.778 85.4159 322.517 84.7996 321.713C84.5417 321.378 84.1465 321.291 84.3005 320.709H84.3039ZM282.915 372.941L302.938 331.584L290.451 324.05C289.651 323.903 289.577 325.775 289.443 326.391C286.181 341.67 283.954 357.24 282.246 372.77L282.915 372.941ZM315.746 381.647C316.975 381.627 317.273 381.835 317.421 380.311C308.059 379.183 299.22 375.201 292.803 368.26C290.649 371.411 288.777 374.78 286.894 378.098C286.693 378.453 286.114 378.55 286.024 378.714C285.766 379.189 285.752 380.921 285.267 381.647L285.602 381.982C286.158 381.995 286.72 381.962 287.276 381.982C287.608 381.992 287.95 381.995 288.281 381.982C292.937 381.818 298.39 381.202 303.018 381.647C303.055 381.805 303.199 381.965 303.353 381.982C303.752 382.026 304.278 382.002 304.693 381.982C305.058 381.965 305.537 382.086 305.698 381.647C306.699 381.614 307.711 381.654 308.712 381.647H309.047C309.828 381.647 310.611 381.647 311.392 381.647H315.411C315.569 381.862 315.699 381.647 315.746 381.647Z" fill="#092C2E"/>
<path d="M277.801 358.784C269.304 363.981 259.44 366.227 249.593 367.245C242.221 368.005 228.97 368.648 221.95 366.76C221.073 366.522 220.108 366.512 219.961 365.4C219.733 342.477 219.773 319.516 224.003 296.964C244.743 296.543 262.092 281.665 267.003 261.765L267.686 261.417C292.508 268.158 317.046 280.587 334.339 299.938C337.571 303.554 345.904 314.738 346.53 319.225C347.384 325.366 342.22 336.299 339.587 342.025C335.896 350.051 331.354 358.871 326.859 366.468C325.978 367.958 322.04 374.84 320.633 374.92C319.052 375.01 313.921 373.571 312.142 373.028C305.745 371.083 299.636 367.386 295.646 362.038L308.877 333.757C309.901 332.847 316.848 334.276 316.413 332.264C316.078 330.717 292.247 318.19 289.072 316.734C285.217 314.962 280.229 312.665 276.21 311.51C275.312 311.252 274.083 310.72 273.209 311.152C272.412 311.654 272.445 312.665 272.526 313.506C272.881 317.243 281.167 318.75 283.723 320.739C284.021 320.97 284.269 321.117 284.275 321.549L277.801 358.78V358.784Z" fill="#DCC698"/>
<path d="M266.845 169.355L267.18 172.034C264.028 171.093 259.52 169.221 259.128 173.862C258.766 178.155 259.299 183.107 259.289 187.453C259.895 189.425 264.457 190.952 266.346 191.113C269.829 191.404 270.747 190.932 273.206 188.776L273.875 191.455C271.206 191.478 263.469 193.189 261.811 195.299C259.701 197.991 262.789 202.384 265.934 201.43C266.316 201.312 268.366 199.404 269.401 198.868C271.531 197.766 273.922 196.722 276.217 197.653C286.7 201.895 275.731 226.242 268.195 228.472C265.16 229.369 260.176 226.466 258.887 227.708C258.093 228.472 256.546 233.987 255.846 235.547C249.743 249.182 236.299 262.85 221.307 265.978C189.086 272.695 168.253 240.201 166.029 212.048C164.722 195.496 170.44 169.593 178.693 155.07C181.567 150.011 182.622 152.05 187.056 152.854C194.961 154.287 202.413 154.26 210.076 151.621C213.114 150.573 212.967 149.81 216.782 149.927C225.715 150.195 235.733 151.524 244.461 153.393C247.382 154.019 255.628 155.683 257.782 157.153C259.657 158.435 258.502 162.048 258.823 164.148C259.329 167.419 263.918 169.177 266.842 169.358L266.845 169.355ZM185.371 160.736C181.697 161.218 175.896 164.901 176.75 169.177C177.497 172.921 181.788 168.196 183.141 167.543C183.834 167.208 184.949 166.864 185.706 166.76C188.594 166.368 194.164 168.722 193.845 164.168C193.634 161.161 187.729 160.424 185.371 160.732V160.736ZM243.319 174.967C245.751 166.643 234.751 159.942 227.47 162.638C224.891 163.595 224.492 166.864 226.659 167.838C228.83 168.816 232.253 167.965 235.026 169.184C239.005 170.935 239.156 176.467 243.319 174.963V174.967ZM186.015 179.845C179.54 179.953 178.73 194.699 183.971 195.459C190.536 196.414 192.063 179.742 186.015 179.845ZM228.562 181.483C226.606 181.935 225.139 185.257 224.733 187.028C222.335 197.549 231.891 200.395 234.199 191.133C235.19 187.148 234.008 180.227 228.562 181.483ZM203.78 182.816C203.317 182.956 202.517 183.87 202.249 184.306C200.725 186.767 199.72 190.477 198.116 193.233C196.26 196.424 190.312 202.712 189.829 205.706C189.036 210.621 194.8 215.982 199.389 216.531C202.262 216.876 207.126 215.845 207.548 212.352C208.197 206.968 199.104 210.641 196.82 206.707C195.641 204.678 199.023 201.935 200.129 200.268C202.118 197.257 207.199 187.678 206.489 184.336C206.208 183.01 205.069 182.427 203.776 182.819L203.78 182.816ZM273.808 203.918C270.747 204.229 265.368 208.227 264.856 211.398C264.417 214.124 265.412 216.012 268.309 214.519C269.826 213.735 272.509 209.473 273.443 209.238C274.053 209.084 274.586 209.848 275.379 209.908C279.358 210.213 278.585 203.432 273.805 203.921L273.808 203.918ZM239.966 226.53C241.283 225.093 240.161 220.121 239.32 218.47C238.134 216.146 234.788 213.534 232.189 213.213C231.161 213.086 228.729 212.932 228.384 214.13C227.631 216.735 231.774 217.094 230.334 218.741C229.717 219.444 225.286 221.229 224.154 221.604C213.6 225.127 200.387 225.214 189.739 222.167C188.694 221.869 184.39 220.844 184.149 220.027C183.908 219.21 185.187 216.665 182.618 216.605C179.051 216.521 175.759 225.716 180.803 228.083C181.429 228.378 182.742 228.452 183.037 228.696C183.278 228.897 183.61 230.411 183.938 230.976C193.842 247.97 221.193 245.358 232.156 230.601C233.09 229.342 234.838 225.066 236.486 225.639C236.965 225.806 238.255 228.401 239.97 226.53H239.966ZM196.076 245.757C193.453 247.993 197.121 251.526 199.298 252.788C204.115 255.581 210.626 255.079 214.099 250.394C214.98 249.209 215.657 246.53 213.741 246.359C213.061 246.299 209.752 247.776 208.301 247.95C205.813 248.251 202.855 248 200.454 247.277C198.769 246.771 197.724 245.559 196.076 245.753V245.757Z" fill="#DCC698"/>
<path d="M195.168 363.23C195.098 363.368 195.373 363.847 194.957 363.914C188.426 363.441 181.295 362.243 175.29 359.5C174.004 358.911 171.207 357.672 170.695 356.393C170.4 353.486 169.663 350.55 169.388 347.653C167.804 330.961 168.762 316.027 169.395 299.456C169.442 298.237 169.572 295.839 169.372 294.765C168.983 292.689 165.657 293.502 165.188 295.253C164.726 298.692 164.013 302.382 163.691 305.811C163.453 308.349 164.167 311.092 163.011 313.503C151.322 321.325 137.877 328.393 123.492 328.738C134.575 318.127 136.142 303.213 130.686 289.236C129.655 286.594 128.03 284.15 127.173 281.531C130.08 281.113 133.058 280.942 135.951 280.426C152.353 277.507 166.853 267.575 183.777 266.129C182.28 277.584 189.716 288.66 200.186 292.936L197.516 312.173C197.433 313.057 197.6 313.961 197.51 314.845C196.19 327.841 195.463 340.478 195.168 353.523C195.168 353.634 195.168 353.748 195.168 353.858C195.155 354.414 195.182 354.977 195.168 355.532C195.162 355.757 195.175 355.978 195.168 356.202C195.162 356.426 195.168 356.647 195.168 356.872C195.168 356.982 195.168 357.096 195.168 357.207C195.165 358.653 195.168 360.113 195.168 361.56V363.234V363.23Z" fill="#DCC698"/>
<path d="M180.096 260.433C169.234 261.849 159.467 266.986 149.362 270.729C148.294 271.124 144.241 272.681 143.484 272.504C138.095 264.227 133.965 254.694 131.691 245.033C123.82 211.589 135.985 174.371 163.179 153.286C163.168 154.973 162.462 156.761 162.345 158.479C162.154 161.205 162.529 163.984 163.252 166.606C163.641 168.012 165.362 171.29 165.369 172.198C165.379 173.691 163.249 179.842 162.78 182.015C156.912 209.144 159.092 233.685 176.754 255.902C177.266 256.545 180.773 259.713 180.093 260.429L180.096 260.433Z" fill="#235C57"/>
<path d="M174.402 381.647C174.242 381.583 173.803 381.845 173.719 381.436L171.723 364.573C172.302 364.516 172.845 364.567 173.408 364.727C180.508 366.756 184.484 369.418 192.66 369.924C194.073 370.011 199.492 370.229 200.209 369.355C200.427 369.09 200.789 368.099 200.839 367.731C201.743 361.221 200.665 351.595 200.846 344.637C200.862 343.96 201.144 343.347 201.167 342.678C201.502 332.478 202.149 322.078 203.21 311.838C204.021 304.02 205.257 296.228 206.245 288.429C195.718 286.259 188.041 277.895 188.808 266.798L195.758 270.227C198.086 277.517 205.779 282.687 212.98 284.317C231.546 288.52 253.079 277.393 256.971 258.086C258.569 258.862 260.378 259.144 262.025 259.733C262.444 259.884 262.548 259.525 262.478 260.239C262.246 262.482 259.466 268.978 258.314 271.158C253.464 280.346 240.646 288.851 230.424 290.489C227.051 291.028 223.581 290.874 220.195 291.312C218.587 291.768 218.205 295.391 217.991 296.81C215.693 312.116 215.05 328.835 214.615 344.332C214.417 351.357 213.798 358.7 214.253 365.762C214.38 367.721 214.528 370.661 216.373 371.679C218.651 372.934 227.004 373.828 229.828 373.966C246.029 374.753 262.35 372.251 277.235 365.916C276.83 369.954 277.165 374.1 276.9 378.134C276.85 378.911 276.562 381.232 276.233 381.654H174.412L174.402 381.647Z" fill="#AC3420"/>
<path d="M263.549 235.376C267.689 235.591 270.231 235.229 273.651 232.915C282.597 226.865 289.631 210.635 286.091 200.177C285.568 198.637 283.8 196.296 283.93 195.007C284.044 193.862 286.878 188.635 287.528 186.854C288.68 183.693 289.812 179.849 290.254 176.52C290.703 173.145 290.445 169.683 291.128 166.348C311.791 190.808 317.528 225.539 305.949 255.497C304.817 258.43 303.357 262.013 301.736 264.679C301.337 265.335 300.627 266.781 299.847 266.795C285.83 260.155 270.962 255.785 256.037 251.656C255.41 251.325 255.079 251.131 255.256 250.391C255.608 248.941 259.195 244.045 260.203 242.247C261.443 240.041 262.461 237.663 263.549 235.38V235.376Z" fill="#235C57"/>
<path d="M284.928 164.332L275.554 159.477L275.212 158.814C276.056 153.453 270.422 152.073 266.497 150.449C255.702 145.983 231.094 139.279 219.94 141.385C214.93 142.333 210.82 145.166 205.957 146.492C198.98 148.393 191.159 147.945 184.109 146.421C180.431 145.628 177.397 144.385 173.963 142.942C172.352 143.351 172.49 147.188 173.103 148.383C173.716 149.579 176.221 150.356 174.389 151.762C172.865 152.934 169.897 150.901 168.742 149.729C163.852 144.757 164.753 134.059 169.924 129.532C170.36 129.455 172.627 132.418 173.424 132.994C174.308 133.633 175.3 134.109 176.342 134.43C195.6 140.374 209.202 107.301 232.182 118.117C236.741 120.263 237.444 122.62 240.392 125.982C243.5 129.528 245.543 127.797 249.264 127.502C258.043 126.809 265.164 130.613 269.243 138.325C270.265 140.253 271.37 144.429 272.532 145.751C273.453 146.8 276.756 147.918 278.39 149.271C283.14 153.202 284.533 158.345 284.928 164.329V164.332Z" fill="#AC3420"/>
<path d="M119.804 305.299C120.866 306.029 119.003 312.324 118.528 313.566C114.629 323.722 105.76 328.494 95.0219 326.729L103.958 324.114C109.123 321.88 113.939 317.916 110.483 311.879C114.582 308.229 115.738 302.081 114.281 296.928C113.862 295.441 111.832 292.595 111.755 292.056C111.631 291.188 113.035 287.85 113.286 286.561C115.996 272.765 105.747 266.721 93.8262 264.471C87.5695 256.103 87.6399 242.776 96.2009 235.996C99.5804 233.317 105.422 232.021 106.075 237.831C106.926 245.395 102.565 251.452 105.06 259.606C107.358 267.116 113.119 269.916 117.406 275.725C122.607 282.78 125.063 293.308 120.209 301.184C119.359 302.566 115.336 306.277 119.804 305.299Z" fill="#DCC698"/>
<path d="M108.406 289.223C107.87 289.675 103.901 287.217 102.95 286.825C93.3574 282.874 81.7518 284.197 71.8878 286.387C68.9538 281.387 69.2988 275.092 74.9123 272.31C87.1912 266.222 113.112 270.98 108.406 289.223Z" fill="#DCC698"/>
<path d="M81.8924 290.335C90.7515 289.554 111.97 290.549 109.679 304.05C109.525 304.961 108.048 308.359 106.973 308.262C98.4953 303.692 87.4122 301.98 77.92 303.775C76.7946 303.99 74.3931 305.158 73.5993 304.81C70.5346 302.258 69.014 295.31 72.6045 292.766C74.517 291.409 79.5009 290.542 81.8924 290.331V290.335Z" fill="#DCC698"/>
<path d="M84.304 320.708C84.1499 321.291 84.5451 321.378 84.803 321.713C85.4193 322.52 86.5983 322.781 86.6452 323.719C81.4 323.97 70.1026 315.137 76.8248 310.382C82.3144 306.501 98.7465 309.33 104.3 312.94C110.603 317.038 103.111 320.062 99.0446 320.879C94.1578 321.857 89.1606 321.884 84.3073 320.708H84.304Z" fill="#DCC698"/>
<path d="M203.21 272.487C211.751 274.905 221.558 273.8 229.841 270.82C238.124 267.84 245.118 262.151 251.435 256.08C248.973 274.898 223.913 284.465 208 276.569C207.414 276.278 202.494 273.214 203.21 272.487Z" fill="#DCC698"/>
<path d="M285.267 381.647C285.752 380.92 285.762 379.189 286.024 378.714C286.114 378.546 286.694 378.453 286.895 378.098C288.777 374.779 290.649 371.411 292.803 368.26C299.22 375.201 308.059 379.183 317.421 380.311C317.273 381.838 316.975 381.627 315.746 381.647H311.392C310.611 381.647 309.828 381.647 309.047 381.647C308.937 381.647 308.823 381.647 308.712 381.647C307.711 381.654 306.699 381.614 305.698 381.647C305.33 381.66 304.854 381.547 304.693 381.982C304.278 382.002 303.752 382.025 303.353 381.982C303.32 381.824 303.169 381.66 303.018 381.647C298.39 381.202 292.937 381.818 288.281 381.982C288.234 381.48 287.323 381.48 287.276 381.982C286.72 381.962 286.158 381.995 285.602 381.982L285.267 381.647Z" fill="#DCC698"/>
<path d="M114.448 167.011C114.572 175.65 114.013 184.255 114.18 192.894C114.304 193.313 119.734 199.039 120.226 199.24C121.958 199.943 124.912 199.25 126.838 199.494C126.617 200.248 126.443 201.738 126.114 202.287C125.32 203.616 121.244 202.106 119.704 202.438L110.908 193.819L111.099 164.57C109.461 163.555 107.251 162.048 107.418 159.855C107.736 155.703 113.933 154.665 114.442 159.477C114.623 161.198 114.12 162.571 114.093 164.148C114.073 165.256 114.435 166.311 114.445 167.011H114.448Z" fill="#AC3420"/>
<path d="M354.599 181.744L348.754 188.089C348.66 193.306 348.707 198.58 347.984 203.757L333.166 218.577C328.012 219.722 322.666 219.083 317.421 219.25V215.898H331.492C331.508 215.594 331.605 215.292 331.843 215.091C336.509 211.17 340.384 206.422 345.03 202.478C346.376 199.946 345.144 191.662 345.552 188.267C345.864 185.665 350.288 182.595 351.933 180.555C352.777 180.13 354.117 181.63 354.602 181.744H354.599Z" fill="#AC3420"/>
<path d="M88.6581 182.079C89.1772 181.982 90.3596 181.088 90.8955 180.78L97.5205 187.785L97.7684 203.275L109.927 215.898H124.162L123.83 219.25L108.771 219.063C103.837 214.639 99.3861 209.71 94.8611 204.842C94.5094 203.201 94.7205 201.487 94.687 199.826C94.6133 196.226 94.8008 192.613 94.62 189.01L88.6581 182.079Z" fill="#AC3420"/>
<path d="M266.845 169.355C268.764 169.472 270.519 169.305 272.043 168.022C272.777 167.406 273.44 165.698 274.375 165.678L284.275 171.253C284.289 175.513 283.569 179.715 282.249 183.753C280.685 182.504 277.145 181.523 275.868 180.257C275.021 179.414 274.944 178.104 274.395 177.043C272.857 174.076 270.221 172.941 267.18 172.034L266.845 169.355Z" fill="#AC3420"/>
<path d="M127.508 293.583C129.886 301.756 129.889 310.72 126.131 318.488C123.364 324.208 116.977 330.694 110.094 329.411C109.93 328.628 110.198 328.872 110.526 328.661C111.444 328.072 112.536 327.72 113.551 327.007C119.503 322.815 123.947 314.453 124.178 307.161C124.225 305.721 123.669 304.057 123.897 302.875C124.068 301.98 125.14 300.537 125.511 299.452C126.128 297.661 126.429 295.92 126.848 294.085C126.965 293.566 126.623 293.502 127.508 293.583Z" fill="#DCC698"/>
<path d="M317.756 227.283C317.839 226.181 317.695 225.04 317.756 223.935H337.35L354.941 206.362C355.466 206.124 359.261 206.044 359.573 206.241C359.717 206.332 360.859 208.779 361.298 209.201L355.939 209.369C352.83 213.129 349.139 216.421 345.716 219.91C343.399 222.274 340.491 226.968 337.025 227.293C330.925 227.866 323.949 226.841 317.752 227.28L317.756 227.283Z" fill="#AC3420"/>
<path d="M336.847 166.676C336.938 176.38 336.696 186.074 336.258 195.721C334.409 197.73 332.51 199.839 330.487 201.671C329.107 202.92 325.932 205.997 324.294 206.194C321.758 206.499 318.68 205.957 316.081 206.188C315.947 205.12 315.954 203.931 315.746 202.839L324.783 203L333.324 194.796L333.521 169.211C333.638 167.463 335.702 167.439 336.847 166.676Z" fill="#AC3420"/>
<path d="M123.827 227.283L104.062 226.784C98.7833 220.523 92.952 214.73 87.9179 208.271L82.2943 208.197C82.9843 207.387 83.4398 205.947 83.9556 205.002L88.6548 205.023L105.75 223.76L123.301 223.637C124.145 223.834 123.803 226.449 123.83 227.28L123.827 227.283Z" fill="#AC3420"/>
<path d="M316.416 241.347C316.503 240.814 316.496 238.055 316.945 237.978L345.368 238.028C347.193 238.028 346.969 240.322 347.565 241.347H316.416Z" fill="#AC3420"/>
<path d="M265.405 177.461C271.796 175.546 274.217 187.748 265.073 185.692C261.999 184.999 262.652 178.288 265.405 177.461Z" fill="#AC3420"/>
<path d="M266.423 155.696C271.065 154.782 272.787 161.57 268.828 163.803C263.379 166.877 260.18 156.929 266.423 155.696Z" fill="#AC3420"/>
<path d="M85.2216 170.095C89.6629 169.231 91.083 176.36 86.7255 176.993C82.368 177.625 80.8708 170.942 85.2216 170.095Z" fill="#AC3420"/>
<path d="M369.232 200.264C372.599 203.392 367.209 208.897 364.128 204.862C361.314 201.179 366.389 197.619 369.232 200.264Z" fill="#AC3420"/>
<path d="M78.4928 205.066C75.485 208.227 70.5045 204.195 73.2443 200.656C75.9841 197.117 81.6847 201.711 78.4928 205.066Z" fill="#AC3420"/>
<path d="M355.838 170.095C360.886 168.601 362.098 175.385 358.3 176.571C353.4 178.101 352.636 171.042 355.838 170.095Z" fill="#AC3420"/>
<path d="M332.078 156.028C337.584 155.234 336.877 164.814 330.902 162.407C327.955 161.218 328.876 156.49 332.078 156.028Z" fill="#AC3420"/>
<path d="M352.362 239.569C349.257 236.18 354.515 231.134 357.463 234.971C360.41 238.808 354.723 242.147 352.362 239.569Z" fill="#AC3420"/>
<path d="M273.209 188.776C273.695 188.351 274.231 187.092 275.048 187.098L279.529 190.015L278.9 192.462C277.064 191.856 275.855 191.438 273.879 191.458L273.209 188.779V188.776Z" fill="#AC3420"/>
<path d="M168.373 157.3L171.395 158.479C170.885 160.16 169.532 161.55 169.375 163.331C168.816 163.616 168.373 162.755 168.373 162.494V157.304V157.3Z" fill="#AC3420"/>
<path d="M272.204 381.647C271.866 382.196 270.513 382.186 270.195 381.647H272.204Z" fill="#235C57"/>
<path d="M255.457 381.647C255.236 382.176 254.004 382.176 253.783 381.647H255.457Z" fill="#235C57"/>
<path d="M196.508 381.647C196.287 382.176 195.055 382.176 194.833 381.647H196.508Z" fill="#235C57"/>
<path d="M258.137 381.647C257.725 382.106 257.222 382.112 256.797 381.647H258.137Z" fill="#235C57"/>
<path d="M208.566 381.647C208.144 382.116 207.635 382.106 207.226 381.647H208.566Z" fill="#235C57"/>
<path d="M212.585 381.647C212.173 382.106 211.671 382.116 211.245 381.647H212.585Z" fill="#235C57"/>
<path d="M201.197 381.647C200.862 382.052 200.527 382.052 200.193 381.647H201.197Z" fill="#235C57"/>
<path d="M210.576 381.647C210.237 382.052 209.906 382.055 209.571 381.647H210.576Z" fill="#235C57"/>
<path d="M205.217 381.647C204.882 382.052 204.547 382.052 204.212 381.647H205.217Z" fill="#235C57"/>
<path d="M241.055 381.647C240.72 382.052 240.385 382.049 240.05 381.647H241.055Z" fill="#235C57"/>
<path d="M305.698 381.647C305.537 382.086 305.058 381.965 304.693 381.982C304.854 381.547 305.329 381.66 305.698 381.647Z" fill="#235C57"/>
<path d="M288.281 381.982C287.95 381.995 287.608 381.992 287.276 381.982C287.323 381.48 288.234 381.48 288.281 381.982Z" fill="#235C57"/>
<path d="M250.768 381.647C250.433 382.052 250.098 382.052 249.763 381.647H250.768Z" fill="#235C57"/>
<path d="M175.407 381.647C174.891 382.273 174.734 381.781 174.402 381.647H175.407Z" fill="#235C57"/>
<path d="M269.19 381.647C268.858 382.052 268.52 382.049 268.185 381.647H269.19Z" fill="#235C57"/>
<path d="M220.959 381.647L220.553 381.875L220.289 381.647H220.959Z" fill="#235C57"/>
<path d="M224.308 381.647L223.903 381.875L223.638 381.647H224.308Z" fill="#235C57"/>
<path d="M213.925 381.647L213.657 381.878L213.255 381.647H213.925Z" fill="#235C57"/>
<path d="M189.139 381.647L188.734 381.875L188.47 381.647H189.139Z" fill="#235C57"/>
<path d="M187.465 381.647L187.197 381.875L186.795 381.647H187.465Z" fill="#235C57"/>
<path d="M185.455 381.647L185.187 381.875L184.785 381.647H185.455Z" fill="#235C57"/>
<path d="M276.223 381.647C275.952 381.995 275.976 382.096 275.554 381.647H276.223Z" fill="#235C57"/>
<path d="M177.082 381.647L176.676 381.875L176.412 381.647H177.082Z" fill="#235C57"/>
<path d="M195.168 356.199C195.175 355.974 195.162 355.753 195.168 355.529L195.396 355.797L195.168 356.199Z" fill="#235C57"/>
<path d="M266.175 381.647L265.907 381.875L265.505 381.647H266.175Z" fill="#235C57"/>
<path d="M303.353 381.982C303.199 381.965 303.055 381.804 303.018 381.647C303.169 381.66 303.32 381.824 303.353 381.982Z" fill="#235C57"/>
<path d="M315.411 381.647H315.746C315.699 381.647 315.569 381.861 315.411 381.647Z" fill="#235C57"/>
<path d="M195.168 363.23V362.896C195.403 363.08 195.235 363.103 195.168 363.23Z" fill="#235C57"/>
<path d="M239.966 226.53C238.248 228.401 236.962 225.806 236.483 225.639C234.838 225.066 233.09 229.342 232.152 230.601C221.19 245.358 193.839 247.97 183.935 230.976C183.603 230.411 183.275 228.897 183.034 228.696C182.742 228.452 181.426 228.375 180.8 228.083C175.755 225.716 179.048 216.521 182.615 216.605C185.184 216.665 183.914 219.25 184.146 220.027C184.387 220.844 188.691 221.865 189.736 222.167C200.383 225.214 213.597 225.13 224.151 221.604C225.283 221.226 229.714 219.444 230.33 218.741C231.77 217.097 227.627 216.739 228.381 214.13C228.729 212.932 231.157 213.086 232.186 213.213C234.785 213.538 238.131 216.149 239.317 218.47C240.161 220.121 241.283 225.093 239.963 226.53H239.966ZM229.999 223.603C218.145 228.12 206.643 229.413 194.1 227.179C191.997 226.804 189.558 225.853 187.612 225.622C187.113 225.562 187.029 225.572 187.12 226.114C187.374 227.631 188.161 228.699 189.123 229.801C196.95 238.798 215.596 237.124 224.743 230.903C227.162 229.259 229.784 226.64 229.995 223.6L229.999 223.603Z" fill="#092C2E"/>
<path d="M203.78 182.816C205.073 182.424 206.211 183.01 206.493 184.332C207.199 187.674 202.122 197.257 200.132 200.264C199.027 201.932 195.644 204.674 196.823 206.703C199.111 210.638 208.204 206.965 207.551 212.349C207.129 215.845 202.266 216.873 199.392 216.528C194.803 215.979 189.039 210.618 189.833 205.702C190.315 202.705 196.264 196.42 198.119 193.229C199.724 190.473 200.732 186.763 202.252 184.302C202.52 183.87 203.321 182.953 203.783 182.812L203.78 182.816Z" fill="#092C2E"/>
<path d="M228.562 181.483C234.008 180.224 235.19 187.148 234.199 191.133C231.891 200.395 222.335 197.552 224.733 187.028C225.139 185.253 226.606 181.935 228.562 181.483Z" fill="#092C2E"/>
<path d="M243.319 174.967C239.156 176.47 239.005 170.939 235.026 169.187C232.253 167.968 228.83 168.816 226.659 167.841C224.492 166.867 224.891 163.595 227.47 162.641C234.751 159.942 245.751 166.646 243.319 174.97V174.967Z" fill="#092C2E"/>
<path d="M186.015 179.845C192.064 179.745 190.536 196.414 183.971 195.459C178.726 194.696 179.54 179.953 186.015 179.845Z" fill="#092C2E"/>
<path d="M196.076 245.757C197.724 245.562 198.772 246.774 200.454 247.28C202.855 248 205.813 248.251 208.301 247.953C209.752 247.779 213.057 246.302 213.741 246.363C215.657 246.533 214.977 249.212 214.099 250.397C210.626 255.082 204.115 255.584 199.298 252.792C197.121 251.529 193.457 247.997 196.076 245.76V245.757Z" fill="#092C2E"/>
<path d="M185.372 160.736C187.729 160.428 193.638 161.164 193.845 164.171C194.164 168.729 188.594 166.371 185.706 166.763C184.949 166.867 183.834 167.208 183.141 167.547C181.791 168.2 177.497 172.924 176.75 169.181C175.896 164.905 181.697 161.221 185.372 160.739V160.736Z" fill="#092C2E"/>
<path d="M273.809 203.918C278.588 203.429 279.362 210.209 275.383 209.905C274.589 209.844 274.056 209.081 273.447 209.235C272.512 209.473 269.829 213.732 268.312 214.515C265.415 216.012 264.42 214.12 264.859 211.395C265.371 208.224 270.747 204.226 273.812 203.914L273.809 203.918Z" fill="#092C2E"/>
<path d="M229.999 223.603C229.784 226.64 227.162 229.262 224.747 230.906C215.6 237.128 196.954 238.802 189.126 229.804C188.168 228.703 187.378 227.635 187.123 226.118C187.033 225.575 187.117 225.565 187.616 225.626C189.562 225.857 192 226.808 194.103 227.183C206.643 229.416 218.149 228.127 230.002 223.606L229.999 223.603Z" fill="#DCC698"/>
</g>
<g clip-path="url(#clip1_11_319)">
<path d="M317.469 31.2417V57.8614H329.155V31.9422C329.155 31.5919 330.29 30.8867 330.805 30.7887C332.272 30.5085 342.43 30.6346 343.336 31.2043C343.795 31.4939 343.883 32.0216 344 32.4979L344.145 95.484C344.304 96.843 343.369 98.2254 342 98.4776C340.63 98.7297 332.665 98.7438 331.272 98.4776C330.66 98.3608 329.159 97.1606 329.159 96.8523V71.4001H317.473V96.8523C317.473 97.0298 316.296 97.9872 315.95 98.132C314.276 98.8418 303.161 98.9726 302.576 97.254L302.488 32.8435C302.413 31.4658 303.437 30.9848 304.647 30.798C305.792 30.6205 317.469 30.5925 317.469 31.2323V31.2417Z" fill="#DCC698"/>
<path d="M248.523 98.4915C244.47 97.8144 246.307 89.2353 244.087 86.578L230.961 86.55L228.811 97.4548C228.69 97.9405 227.278 98.4915 227.021 98.4915H215.335C214.489 98.4915 213.769 95.9043 214.218 95.0497L227.825 32.0449C228.25 31.0362 229.288 30.8821 230.283 30.7653C233.644 30.373 241.862 30.4057 245.274 30.7466C245.938 30.812 246.611 30.6953 247.162 31.195L261.643 96.1471C262.003 96.7356 261.031 98.4915 260.671 98.4915C257.282 98.4915 251.547 99.0006 248.518 98.4915H248.523ZM242.68 73.7399L237.772 47.1154L232.864 73.7399H242.68Z" fill="#DCC698"/>
<path d="M188.925 76.0749V96.857C188.925 97.0391 188.383 97.9078 188.14 98.0572C187.125 98.6877 176.987 98.7671 175.846 98.2487C175.603 98.1366 174.435 96.9551 174.435 96.857V31.2417C175.29 31.0268 176.085 30.8213 176.982 30.7513C182.096 30.3497 195.605 30.1909 200.143 31.4752C221.93 37.6351 218.962 76.0749 195.703 76.0749H188.925ZM188.925 63.4656C197.825 64.0774 200.723 60.0424 200.162 51.538C199.671 44.1359 195.567 43.4587 188.925 43.851V63.4656Z" fill="#DCC698"/>
<path d="M406.982 53.6583L406.351 52.8877C406.571 46.896 404.266 38.9381 396.75 42.506C393.067 44.2527 392.506 50.6694 392.263 54.3682C391.87 60.2899 391.552 78.5314 393.581 83.4024C395.712 88.5208 403.149 87.9417 405.028 82.5291C405.425 81.3849 405.748 76.5466 406.987 76.5466H418.672C422.085 76.5466 417.981 88.7637 416.948 90.7018C409.96 103.801 386.985 102.816 380.642 89.3241C376.669 80.8618 376.795 54.0599 378.922 44.7757C381.946 31.5826 394.095 26.5015 406.664 30.1675C411.941 31.7087 419.369 38.8727 419.369 44.5609V52.9671L418.668 53.6676H406.982V53.6583Z" fill="#DCC698"/>
<path d="M77.6764 44.318V57.8614H89.1285C89.3061 57.8614 90.7645 58.9215 90.7645 59.0289V69.7702L90.0633 70.4708H77.6764V85.4152H91.4656C92.8492 85.4152 93.0409 87.867 93.1203 88.9038C93.2419 90.4449 93.5644 98.4915 91.9331 98.4915H64.822C63.5459 98.4915 63.3917 93.4104 63.3636 92.2663C63.0925 82.09 63.2187 71.6056 63.1626 61.3874C63.1065 51.1691 63.0505 41.9036 63.4338 32.1897C64.0554 31.2463 64.6304 30.8961 65.7382 30.756C70.2162 30.1675 76.6387 30.9054 81.1868 31.2884C83.4398 31.3818 90.3765 29.7099 91.3581 31.8254C91.8583 32.8996 91.9611 41.2731 91.69 42.6788C91.5918 43.1925 90.8813 44.3274 90.5354 44.3274H77.6811L77.6764 44.318Z" fill="#DCC698"/>
<path d="M166.021 98.0245C165.166 98.2394 164.371 98.4449 163.473 98.5149C157.841 98.9586 144.472 99.2154 139.125 98.5149C138.471 98.4308 137.914 98.4075 137.466 97.8377L137.274 31.7087C137.704 30.9288 138.33 30.8587 139.125 30.756C144.281 30.0928 156.649 30.345 162.067 30.756C164.357 30.9334 165.329 30.854 165.558 33.3386C165.708 34.9544 165.797 42.3519 165.32 43.3793C165.217 43.5988 164.474 44.3227 164.394 44.3227H151.073V57.8661H162.992C164.693 61.1445 164.899 67.2297 162.992 70.4754H150.605V85.4199H164.862C164.946 85.4199 166.03 86.5033 166.03 86.5874V98.0292L166.021 98.0245Z" fill="#DCC698"/>
<path d="M285.684 44.318V97.324C285.104 97.9732 284.412 98.3281 283.552 98.4635C282.089 98.6924 272.591 98.683 271.67 98.2534C271.45 98.1506 270.726 97.4081 270.726 97.3287V44.318H259.274C259.194 44.318 258.451 43.5988 258.348 43.3747C257.661 41.9036 257.633 32.3111 259.274 30.7747H296.201C298.038 32.4466 297.767 42.5761 296.654 43.8697C296.032 44.5889 287.352 44.4768 285.684 44.318Z" fill="#DCC698"/>
<path d="M46.8258 44.318V97.324C44.3064 99.0426 38.4868 98.7951 35.3504 98.5149C34.3688 98.4262 32.7795 98.3468 32.4102 97.2493L32.3354 44.318H21.3508C21.2713 44.318 20.5281 43.5988 20.4253 43.3747C19.5231 41.4459 20.2897 33.7075 20.6496 31.2417H57.343L57.9647 32.0169C57.946 35.9071 59.2969 40.8808 57.343 44.318H46.8258Z" fill="#DCC698"/>
<path d="M113.669 84.9482H129.328C129.412 84.9482 130.496 86.0316 130.496 86.1157V97.324C130.085 97.9918 129.566 97.9685 128.883 98.0479C124.363 98.5803 118.193 97.9171 113.416 98.0059C109.859 98.0712 105.947 98.8979 102.188 98.5196C101.497 98.4495 99.6456 98.16 99.6456 97.324V31.9422L100.347 31.2417H112.967C113.047 31.2417 113.79 31.9609 113.893 32.185C113.72 48.9228 114.954 66.0762 114.145 82.8186C114.108 83.5658 113.711 84.215 113.669 84.9482Z" fill="#DCC698"/>
<path d="M367.886 31.307C368.307 50.1837 367.559 69.1211 367.933 88.0024C367.979 90.3048 369.765 97.4828 366.694 98.4028C365.091 98.8838 355.317 98.669 354.162 97.5622C352.545 96.0117 353.914 90.6224 353.952 88.4741C354.284 71.3628 353.919 54.1767 353.952 37.0606C353.952 35.1973 352.741 31.3351 355.574 30.7887C356.99 30.5131 367.475 30.6579 367.881 31.3117L367.886 31.307Z" fill="#DCC698"/>
</g>
<path d="M261.109 407.799C261.432 407.892 262.021 408.69 262.157 409.094L268.361 437.827C269.221 437.681 269.146 436.86 269.352 436.246C272.096 428.199 272.237 418.055 274.64 410.116C274.813 409.539 275.533 407.794 276.066 407.794H289.39C289.605 408.653 289.811 409.45 289.881 410.351C290.961 424.098 289.577 439.962 289.839 454.028C289.877 455.989 291.307 463.018 289.549 464.134C288.497 464.801 280.231 465.321 279.778 463.201L280.035 427.969C279.1 428.152 279.268 428.959 279.105 429.611C276.342 440.557 274.331 451.762 271.98 462.811C271.208 465.152 266.163 465.425 265.2 463.276L257.131 430.32V463.398C255.999 465.148 248.332 464.899 247.425 463.989L246.826 454.933C248.968 440.553 245.634 423.577 247.289 409.417C247.369 408.732 247.345 408.212 248.014 407.799H261.105H261.109Z" fill="#AC3420"/>
<path d="M198.601 406.532C213.973 405.504 218.073 416.263 218.821 429.593C219.448 440.773 219.878 463.609 204.973 465.467C196.651 466.504 189.348 464.974 185.524 456.913C181.667 448.782 181.718 425.529 184.79 417.06C187.226 410.342 191.452 407.01 198.605 406.532H198.601ZM200.443 416.812C197.577 417.051 196.646 419.327 196.029 421.776C194.566 427.589 194.267 442.467 195.543 448.262C197.151 455.572 203.926 458.04 205.96 449.571C207.245 444.217 207.315 424.37 204.87 419.664C204.061 418.107 202.285 416.657 200.443 416.812Z" fill="#AC3420"/>
<path d="M138.383 429.851L147.224 407.991C148.336 407.062 155.148 407.081 156.874 407.306C159.912 407.705 158.959 409.957 158.243 412.012C155.943 418.637 150.674 425.637 148.234 432.417L159.931 462.464L159.468 463.914C158.655 464.946 149.748 464.908 148.79 463.984L140.024 441.594C139.594 441.585 137.92 444.105 137.92 444.635V463.402C137.92 465.246 128.438 464.749 126.816 463.994L126.349 462.839C126.171 456.458 126.185 450.063 126.213 443.678C126.222 440.933 126.723 437.794 126.727 434.763C126.732 426.913 125.306 417.154 126.208 409.422C126.405 407.728 127.209 407.512 128.798 407.329C130.388 407.146 138.392 406.837 138.392 408.981V429.86L138.383 429.851Z" fill="#AC3420"/>
<path d="M76.9026 464.571C74.4855 464.134 74.8502 456.421 73.7608 454.342C70.0907 453.291 66.3224 453.995 62.6103 454.45C61.3807 456.576 61.8342 464.571 58.669 464.571H50.2534C49.5802 464.571 48.6779 462.375 49.122 461.591C53.6804 444.968 55.6861 426.552 60.5344 410.135C60.7261 409.483 61.0207 408.094 61.549 407.756C64.0082 406.659 66.5983 407.644 68.9593 407.794C70.9977 407.921 74.8502 407.029 75.846 408.859L87.6745 463.618C87.581 463.825 86.7909 464.571 86.7255 464.571C84.0185 464.571 79.2871 464.998 76.9073 464.571H76.9026ZM72.4611 444.395L68.7162 422.813C67.8232 422.977 67.9401 423.789 67.7624 424.431C66.0419 430.62 65.565 438.061 64.0456 444.395H72.4611Z" fill="#AC3420"/>
<path d="M296.174 464.571C295.057 464.223 295.454 460.831 295.604 459.771L307.11 408.066C307.47 407.531 315.712 407.813 317.208 407.794C320.079 407.752 320.935 406.311 322.262 410.238C324.432 416.666 325.965 426.637 327.508 433.595C329.72 443.574 332.015 453.681 333.362 463.778C333.263 464.087 332.31 464.571 332.179 464.571H322.828C320.462 464.571 320.855 456.092 319.728 454.309L309.256 454.216L308.433 454.816C307.694 456.491 307.25 464.566 305.534 464.566H296.184L296.174 464.571ZM318.382 444.395L314.637 423.282C313.739 423.446 313.866 424.263 313.683 424.901C311.939 430.991 311.743 438.216 309.966 444.395H318.382Z" fill="#AC3420"/>
<path d="M419.135 445.803C421.435 446.516 418.531 456.041 417.578 457.847C412.08 468.258 394.07 469.004 388.427 458.316C384.327 450.547 384.537 422.461 388.427 414.517C394.388 402.351 414.66 403.168 418.55 417.295C419.312 420.063 420.173 424.075 418.662 426.566H409.312C407.04 426.566 409.915 417.891 404.665 417.159C402.304 416.831 400.892 417.131 399.526 419.092C396.983 422.752 397.077 438.732 397.366 443.715C397.638 448.36 398.1 457.092 404.894 454.976C408.793 453.76 407.367 448.308 409.307 445.803H419.125H419.135Z" fill="#AC3420"/>
<path d="M100.045 446.272C100.924 449.341 99.5591 452.672 102.612 454.718C106.881 457.58 110.368 453.235 108.952 448.82C105.791 438.972 89.0537 433.956 90.2318 419.763C91.6952 402.07 118.602 401.587 120.565 418.402C120.752 420.012 121.154 424.061 119.354 424.591C118.508 424.84 111.766 424.671 111.121 424.263C109.555 423.273 111.458 419.313 108.704 417.168C104.725 414.076 100.574 418.524 102.757 423.141C104.781 427.434 112.879 433.262 116.184 437.344C126.666 450.293 119.705 467.503 102.205 465.453C95.37 464.65 90.7695 458.865 90.2178 452.146C90.0776 450.476 89.8672 447.483 90.9378 446.263H100.055L100.045 446.272Z" fill="#AC3420"/>
<path d="M21.2666 418.59C19.4806 418.05 19.892 408.329 20.6307 407.864C23.6416 407.691 26.6806 407.855 29.7008 407.817C31.9309 407.789 33.9834 407.803 36.2088 407.817C41.4171 407.846 46.6394 407.714 51.843 407.85C52.5022 408.413 52.9745 417.459 51.1932 418.59H42.0763V463.398C42.0763 465.002 33.9881 464.772 32.52 464.542C31.6598 464.406 30.9631 464.055 30.3881 463.398V418.59H21.2666Z" fill="#AC3420"/>
<path d="M362.33 418.59H352.512V463.398C352.512 463.477 351.792 464.223 351.567 464.327C350.412 464.866 341.37 464.908 340.828 463.745L340.819 418.59H331.702L331 417.886V408.502L331.702 407.799H362.091L362.793 408.502V417.417C362.793 417.572 362.175 418.13 362.325 418.59H362.33Z" fill="#AC3420"/>
<path d="M379.095 464.036C378.623 464.791 368.754 465.007 367.893 463.914L367.454 435.227C368.169 429.076 368.099 422.686 367.963 416.455C367.903 413.687 366.659 410.614 368.043 407.897C368.927 407.264 376.636 407.085 377.978 407.344C378.908 407.522 379.479 408.01 379.614 408.986L379.095 464.036Z" fill="#AC3420"/>
<path d="M177.076 432.309C177.955 434.242 178.296 440.839 176.253 441.82C175.308 442.27 163.681 442.242 162.704 441.806C160.502 440.83 160.717 432.905 162.69 431.962C163.882 431.394 176.299 431.53 177.076 432.309Z" fill="#AC3420"/>
<path d="M224.876 432.9C225.334 431.493 237.382 431.31 239.047 431.816C241.286 432.497 241.744 441.106 239.136 441.58C237.775 441.829 226.835 441.876 225.661 441.491C225.315 441.379 225.072 441.177 224.871 440.877V432.9H224.876Z" fill="#AC3420"/>
<defs>
<clipPath id="clip0_11_319">
<rect width="311" height="276" fill="white" transform="translate(64 110)"/>
</clipPath>
<clipPath id="clip1_11_319">
<rect width="400" height="71" fill="white" transform="translate(20 29)"/>
</clipPath>
</defs>
</svg>
