<svg width="44" height="44" viewBox="0 0 44 44" fill="none" xmlns="http://www.w3.org/2000/svg">
<g clip-path="url(#clip0_14_584)">
<g clip-path="url(#clip1_14_584)">
<path d="M37.9437 41.0001H15.7667V40.385C15.6862 38.976 15.4137 37.5892 15.2511 36.1915C15.0805 34.7209 15.0232 33.2565 15.0554 31.7737L14.0451 32.3968C12.1156 33.4737 9.38656 34.2023 7.18782 33.7387C6.92672 33.6838 6.56326 33.5078 6.35713 33.4789C6.07707 33.4401 5.62595 33.5059 5.31604 33.4784C3.9513 33.3573 1.52321 32.4067 1.69285 30.7081C1.70754 30.5595 1.85207 30.2927 1.8279 30.1976C1.808 30.119 1.57344 29.9478 1.50425 29.8555C1.16828 29.4088 1.0119 28.8174 1.08867 28.26C1.12089 28.0253 1.35214 27.5953 1.35593 27.4443C1.35925 27.3071 1.14506 26.948 1.09862 26.7587C0.698678 25.133 1.54548 24.2832 3.03674 23.9122C3.39972 23.8219 3.76934 23.7977 4.13564 23.7305C4.17212 23.6804 3.92619 23.0535 3.89539 22.9252C3.61438 21.7722 3.80535 20.5051 4.56354 19.5692C5.26202 18.7066 6.71205 18.0939 7.47498 19.2091C8.30899 20.4289 7.23378 21.5555 7.59345 22.8287C7.83417 23.6809 8.59378 24.083 9.10935 24.7218C9.20696 24.8425 9.56758 25.4334 9.60643 25.4552C9.82062 25.5744 11.1801 25.2522 11.5019 25.195C11.1754 24.5562 10.7868 23.9473 10.4987 23.2872C9.82583 21.7471 9.5145 20.251 9.46427 18.5713C9.46096 18.454 9.50882 18.0844 9.3894 18.0565L6.90634 18.074L4.48772 15.4263L3.82288 15.4234C3.74991 15.5569 3.68546 15.7603 3.58785 15.8748C3.03532 16.5244 1.93737 16.3338 1.60755 15.5573C1.18155 14.5561 2.16008 13.6325 3.14715 14.0201C3.50445 14.1606 3.63429 14.4175 3.80725 14.7331C4.04418 14.7861 5.05826 14.665 5.17672 14.7851C5.22269 14.832 5.23169 14.9772 5.27007 14.9763L5.34115 14.6919C5.34589 14.9266 5.31604 15.1689 5.3658 15.4007C6.00599 16.0882 6.63576 16.7847 7.33377 17.4102L9.46427 17.4367L9.51119 16.9631H7.49725L5.77711 15.1793L5.74205 12.9905L4.80474 12.0006C4.72844 12.0442 4.56117 12.17 4.48819 12.1842C3.43479 12.383 2.46194 11.2261 3.11445 10.3158C3.76697 9.40541 5.20231 9.78866 5.28856 10.937C5.31178 11.246 5.19189 11.386 5.15729 11.659C5.49658 11.8171 6.41399 12.6266 6.47085 12.9772C6.48886 13.087 6.42963 13.1859 6.42915 13.2947C6.42821 13.5767 6.38603 14.7511 6.47607 14.9077L7.79152 16.2912L9.55383 16.2959L9.65335 15.7338C9.24061 15.6837 8.77764 15.7646 8.42461 15.5176C8.22085 15.3752 7.19398 14.3229 7.07267 14.1232C6.88928 13.8204 7.00064 13.5781 6.99021 13.2971C6.95041 12.2126 7.02244 11.1329 7.00064 10.0423C6.15242 9.52796 6.37608 8.0962 7.3404 7.86483C8.78475 7.51801 9.38514 9.4461 8.13745 10.0565C8.13602 9.95711 8.08532 9.80854 8.08769 9.65192C8.09148 9.42907 8.16256 9.23508 8.13697 8.99188C8.06542 8.31196 7.18876 8.45863 7.14327 9.04534C7.11958 9.35526 7.43233 9.5677 7.66405 9.71154L7.63704 13.8445L8.88142 15.0624C9.0994 15.0156 9.67609 15.229 9.7884 15.0411C9.83484 14.9635 9.85948 14.753 9.89075 14.6465C9.9571 14.4194 10.0069 14.1852 10.0794 13.9595C10.919 11.3406 12.4487 9.05812 14.6721 7.4229C14.3887 6.51209 14.4252 5.33914 14.9611 4.52107C15.2597 4.06589 15.7852 3.67602 16.3562 3.76686C16.7026 3.82175 16.6514 4.43448 17.14 4.59251C17.7721 4.79644 18.5611 4.40609 19.0705 4.05832C19.9434 3.46215 20.5968 2.81583 21.6104 2.38337C23.4064 1.61781 25.4881 1.98781 26.6505 3.61309C27.7887 3.53549 29.0388 3.7839 29.9349 4.52107C30.4817 4.97103 30.8532 5.74322 31.0503 6.41178C31.7095 6.75529 32.2284 7.20005 32.5966 7.84874C32.8828 8.35217 32.8491 8.40375 33.2543 8.84804C34.2205 9.9079 35.0882 11.1253 35.6772 12.4378C35.9767 13.1055 36.1771 13.8128 36.4738 14.4814L37.5783 14.4946L38.4076 13.7139L38.5138 10.0409C37.5812 9.60555 37.6087 8.29965 38.5569 7.90126C39.8832 7.34483 40.748 9.24785 39.6018 10.0092C39.4392 10.117 39.1478 10.1203 39.1312 10.3673L39.1032 13.9827L37.8949 15.1419L36.6164 15.1192C36.6458 15.2734 36.6448 15.4409 36.6638 15.5923C36.6936 15.8266 36.7856 16.0589 36.7581 16.3025L38.5256 16.2926L40.078 14.8145C40.2467 14.1227 40.1216 13.4064 40.1912 12.7038C40.5121 12.2311 40.9504 11.8478 41.3807 11.475C41.0442 10.4686 41.9138 9.40304 42.9681 9.88897C44.2566 10.4828 43.4543 12.4553 42.1128 12.1388C42.0436 12.1227 41.8545 11.9103 41.7351 11.9708C41.5024 12.259 40.8765 12.6929 40.8324 13.0605C40.7746 13.5403 40.949 14.7113 40.7585 15.0686C40.1012 15.6259 39.5529 16.2973 38.8929 16.8509C38.8592 16.8793 38.8455 16.9219 38.8431 16.965H36.8529V17.4386C37.5945 17.4154 38.3507 17.5053 39.08 17.3435C39.0578 17.5531 39.4207 17.3842 39.4833 17.3435L41.8768 14.9545L42.7269 14.928C42.8264 13.8194 44.3807 13.554 44.8702 14.5661C45.4554 15.7769 43.9045 16.8235 43.0605 16.0182C42.998 15.9586 42.8368 15.6127 42.8165 15.5999C42.7724 15.572 42.236 15.5834 42.1611 15.6169L39.6724 18.1H36.9002C36.8917 18.2562 36.9121 18.4175 36.9002 18.5732C36.8784 18.8538 36.8495 19.1462 36.8055 19.4249H41.094C41.5238 18.6924 42.4971 18.5259 43.0378 19.2347C43.8974 20.3608 42.3744 21.7769 41.3119 20.7686C41.2859 20.7435 41.1248 20.5727 41.1177 20.5604C41.0338 20.4156 41.0651 20.092 40.8068 20.0915L36.7856 20.0844C36.7221 20.0953 36.723 20.4852 36.7107 20.5604C36.4775 21.9728 35.9435 23.3118 35.2133 24.5349L35.2147 24.6295C35.8937 25.0611 36.6145 25.4259 37.2751 25.8881C38.8739 27.0062 40.4078 28.5752 41.3451 30.2936C42.1772 31.8186 41.9976 32.4422 41.3769 33.997C40.4898 36.2184 39.2094 38.3647 37.9427 40.3855M32.2568 9.67747C32.2009 8.83195 32.0033 8.10566 31.3318 7.54971C31.1006 7.35856 30.6333 7.20052 30.503 7.05243C30.3386 6.86553 30.1822 6.27551 30.0377 6.00298C29.4605 4.91331 28.4531 4.37628 27.2111 4.47375C26.6846 4.51539 26.3956 4.76001 25.9558 4.25894C25.5388 3.7839 25.4393 3.4508 24.7944 3.14751C21.5431 1.61923 19.6188 6.29302 16.894 5.4527C16.7467 5.40728 16.6069 5.34009 16.4813 5.24972C16.3685 5.16834 16.0477 4.7496 15.9861 4.76048C15.2545 5.40018 15.127 6.9119 15.8188 7.61453C15.9823 7.78061 16.4017 8.06734 16.6178 7.90173C16.877 7.70254 16.5216 7.5904 16.4358 7.42432C16.35 7.25825 16.3297 6.71318 16.5576 6.65545C17.0438 6.85891 17.4726 7.03445 17.9929 7.14706C18.99 7.36234 20.0969 7.42574 21.084 7.15699C21.772 6.96963 22.3535 6.56887 23.0624 6.43544C24.6403 6.13782 28.1223 7.08507 29.6491 7.71626C30.2045 7.94574 31.0015 8.14068 30.8821 8.89819L30.9305 8.99188L32.2568 9.67795V9.67747ZM29.6984 10.3872C29.2847 10.3616 28.6355 10.1132 28.564 9.65098C28.518 9.35478 28.682 8.84378 28.4166 8.66256C28.1124 8.45485 26.9452 8.21922 26.532 8.13121C25.2971 7.86719 23.8793 7.67935 22.616 7.6415C22.0763 7.62541 22.0976 7.73329 21.6673 7.88092C20.5831 8.25423 19.5287 8.25754 18.4104 8.05504C17.783 7.94148 17.6337 7.65333 17.2272 8.36826C16.0596 10.4208 15.2502 14.0811 15.4355 16.4194C15.7501 20.3977 18.6976 24.9891 23.2562 24.04C25.3772 23.5985 27.2793 21.6667 28.1427 19.74C28.2417 19.5195 28.4602 18.7402 28.573 18.6323C28.7554 18.4568 29.4605 18.8675 29.8898 18.7402C30.956 18.4251 32.5084 14.9848 31.0248 14.3853C30.7002 14.2543 30.3613 14.4014 30.0604 14.5571C29.914 14.6328 29.624 14.903 29.57 14.919C29.1246 15.0534 28.6881 14.4326 28.9867 14.0527C29.2212 13.7541 30.3159 13.5128 30.6935 13.5095C30.9731 13.5072 31.1442 13.5658 31.4039 13.6515L31.4929 13.3056L30.8589 12.8935C30.7438 12.8925 30.6675 13.0709 30.5988 13.1305C30.2505 13.4357 30.1211 13.502 29.6283 13.4608C29.361 13.4386 28.7156 13.2223 28.6298 12.9436C28.6313 12.329 28.5559 11.6292 28.6071 11.0231C28.6625 10.3673 29.2999 10.6313 29.7463 10.7648C30.1926 10.8982 30.5495 11.0534 30.767 11.4726C30.8447 11.6221 30.8556 11.8076 30.9755 11.9268C31.1555 12.1057 31.6569 12.2443 31.8782 12.4208C32.0644 11.8502 32.1668 11.2564 32.1649 10.6545L30.7641 9.86673C30.6319 9.86957 30.5381 10.1109 30.4343 10.1979C30.2187 10.3792 29.9704 10.4033 29.6989 10.3863L29.6984 10.3872ZM17.4252 23.2569C17.5214 23.1557 17.0248 22.7081 16.9528 22.6172C14.4541 19.4779 14.1456 16.0097 14.9758 12.1767C15.0422 11.8696 15.344 10.9999 15.3421 10.7894C15.3412 10.6612 15.0971 10.1979 15.0426 9.99922C14.9403 9.62874 14.8877 9.23602 14.9142 8.85088C14.9313 8.60862 15.0308 8.35549 15.0322 8.11702C11.1849 11.0965 9.4638 16.3555 10.5774 21.0814C10.8991 22.4464 11.4834 23.7935 12.2459 24.9631C12.353 24.9887 12.9263 24.7682 13.0775 24.7123C14.5072 24.1834 15.889 23.4575 17.4257 23.2574L17.4252 23.2569ZM29.6387 8.45721C28.7554 8.63086 29.208 10.0371 29.9789 9.60271C30.539 9.28712 30.2955 8.32804 29.6387 8.45721ZM38.9274 8.50406C38.4744 8.56935 38.3446 9.23744 38.7611 9.40541C39.6065 9.74561 39.7065 8.39192 38.9274 8.50406ZM15.7667 8.68385V9.41724C15.7667 9.45414 15.8293 9.57574 15.9084 9.53553C15.9302 9.28381 16.1221 9.08745 16.1941 8.84993L15.7667 8.68338V8.68385ZM29.2321 19.7163C29.0781 20.039 28.9341 20.3745 28.7587 20.6868C28.6156 20.9408 28.1086 21.6326 28.0588 21.8375C28.0332 21.9425 28.0806 21.97 28.1692 22.0163C30.2808 22.5992 32.3843 23.2167 34.3674 24.1554C34.4778 24.1535 34.5783 23.9491 34.6347 23.8564C34.864 23.4798 35.0706 22.9735 35.2308 22.559C36.869 18.3253 36.0568 13.4177 33.1339 9.96184C33.0373 10.4331 33.0733 10.9223 33.0103 11.3993C32.9477 11.8701 32.7875 12.4132 32.6245 12.8594C32.5326 13.1111 32.1317 13.8497 32.1156 14.0115C32.0976 14.1937 32.3478 14.5244 32.4212 14.7421C32.9217 16.2197 31.9265 18.5131 30.6613 19.3681C30.1775 19.695 29.8183 19.7461 29.2321 19.7159V19.7163ZM4.00248 10.4918C3.38693 10.6115 3.57126 11.5592 4.21525 11.4665C4.85923 11.3737 4.63083 10.3702 4.00248 10.4918ZM42.2891 10.4918C41.836 10.6257 41.9441 11.6231 42.6373 11.4068C43.1747 11.2393 43.0032 10.2807 42.2891 10.4918ZM29.4946 11.5327C29.1051 11.6491 29.0127 12.5978 29.4477 12.6957C30.7414 12.9867 30.3988 11.2621 29.4946 11.5327ZM3.05048 15.4334C3.50208 14.9593 2.70456 14.2992 2.30793 14.8102C1.9113 15.3212 2.62495 15.88 3.05048 15.4334ZM44.1841 14.7549C43.7817 14.3811 43.0638 14.8845 43.4619 15.4045C43.8978 15.9742 44.6603 15.1968 44.1841 14.7549ZM8.89516 29.5967C8.26302 29.7344 8.83166 29.2106 8.9525 29.0152C9.63913 27.9023 9.29179 26.4147 8.55587 25.4178C7.94932 24.5969 7.13427 24.2013 6.8092 23.1401C6.45664 21.9879 7.07361 21.132 6.95278 20.0632C6.86037 19.2427 6.03395 19.4258 5.55582 19.8039C4.34509 20.762 4.33466 22.6451 5.21984 23.8275C6.90634 24.146 8.35637 24.9995 7.97301 26.9489C7.937 27.1311 7.73892 27.6028 7.75646 27.7254C7.76736 27.8015 8.05404 28.2042 8.11375 28.4138C8.31988 29.1415 8.1564 30.0107 7.57639 30.5264C8.06589 31.379 7.384 31.9393 6.65329 32.2553L5.38902 32.6249C6.90823 32.8742 8.16303 32.2 8.71462 30.7649C8.78191 30.5894 9.04585 29.7003 8.89516 29.5967ZM41.7972 20.3087C42.1313 20.673 42.915 20.1748 42.5189 19.6591C42.1024 19.1168 41.3584 19.8299 41.7972 20.3087ZM20.6954 24.9603C20.594 25.0629 21.2901 25.4964 21.373 25.537C23.6244 26.6527 27.1698 25.3009 27.5181 22.6418C26.6244 23.4997 25.6464 24.2993 24.4631 24.7246C23.2799 25.15 21.9042 25.3019 20.6954 24.9603ZM31.0252 40.385C31.0717 40.3254 31.1124 39.9975 31.1195 39.8877C31.157 39.3176 31.1096 38.7323 31.1669 38.1612C29.0615 39.0564 26.7519 39.4099 24.4598 39.2987C24.0603 39.2793 22.8785 39.1529 22.5563 38.9755C22.2952 38.8317 22.2739 38.4162 22.2563 38.1394C22.1919 37.1416 22.2795 36.1039 22.3075 35.1113C22.3691 32.9215 22.4601 30.5591 22.7852 28.3963C22.8155 28.1957 22.8695 27.6833 23.097 27.6194C23.576 27.5574 24.067 27.5796 24.5442 27.503C25.9909 27.2716 27.8044 26.0698 28.49 24.7715C28.6531 24.4635 29.0464 23.5455 29.0791 23.2285C29.0895 23.1278 29.0748 23.1784 29.0151 23.1571C28.7819 23.0738 28.5261 23.0341 28.3 22.9243C27.7494 25.6525 24.7034 27.2248 22.0762 26.631C21.0574 26.4005 19.969 25.67 19.6396 24.6399L18.6564 24.1554C18.5478 25.7235 19.6344 26.9054 21.1233 27.212C20.9835 28.314 20.8087 29.4145 20.694 30.5198C20.5438 31.9672 20.4523 33.4363 20.4049 34.8775C20.4016 34.9722 20.3623 35.0587 20.3594 35.1543C20.3338 36.138 20.4864 37.4978 20.3585 38.4177C20.3514 38.4702 20.2997 38.6098 20.2694 38.6471C20.168 38.7706 19.4013 38.7399 19.2013 38.7276C18.0446 38.6561 17.4821 38.28 16.4775 37.9932C16.3979 37.9705 16.3211 37.9634 16.2392 37.9715L16.5216 40.3543C16.5334 40.412 16.5955 40.3751 16.6182 40.3841C16.6652 40.403 16.6874 40.4725 16.7604 40.3841H16.9026L16.9405 40.4162L16.9973 40.3841H18.0872L18.1441 40.4162L18.182 40.3841H18.3716L18.4284 40.4162L18.4663 40.3841H18.6085L18.6464 40.4162L18.7033 40.3841H19.5088C19.5401 40.4588 19.7145 40.4588 19.7458 40.3841H20.267C20.3144 40.4413 20.3618 40.4413 20.4092 40.3841H20.8357C20.8831 40.4413 20.9304 40.4413 20.9778 40.3841H21.2621C21.32 40.4489 21.392 40.4503 21.4517 40.3841H21.5939C21.6412 40.4418 21.6882 40.4413 21.736 40.3841H21.8308C21.891 40.4503 21.962 40.4489 22.0203 40.3841H22.1151L22.1724 40.4167L22.2099 40.3841H23.1102L23.1481 40.4162L23.205 40.3841H23.5841L23.622 40.4162L23.6789 40.3841H25.906C25.9534 40.4408 26.0008 40.4413 26.0482 40.3841H27.2803C27.3276 40.4413 27.375 40.4413 27.4224 40.3841H27.8489C27.8802 40.4588 28.0546 40.4588 28.0858 40.3841H28.2754C28.3356 40.4498 28.4066 40.4489 28.4649 40.3841H29.5074L29.5643 40.4158L29.6022 40.3841H29.8865C29.9339 40.4408 29.9818 40.4413 30.0287 40.3841H30.1709C30.2159 40.4602 30.4073 40.4617 30.4552 40.3841H30.929C30.9887 40.4475 30.9854 40.4333 31.0238 40.3841L31.0252 40.385ZM31.2484 37.1543L32.1644 31.8934C32.1635 31.8319 32.1284 31.8115 32.0862 31.7789C31.7242 31.4983 30.5523 31.2849 30.5021 30.7569C30.4907 30.6381 30.486 30.4952 30.5988 30.4242C30.7224 30.3632 30.8963 30.4384 31.0233 30.4749C31.592 30.6381 32.2976 30.9627 32.843 31.213C33.2922 31.4193 36.6638 33.1893 36.7112 33.4074C36.7728 33.6918 35.7895 33.4898 35.645 33.6185L33.7732 37.6147C34.3371 38.3703 35.2014 38.8927 36.107 39.1676C36.3581 39.2438 37.0846 39.4472 37.3082 39.4349C37.5073 39.4236 38.0645 38.4512 38.1892 38.2407C38.8251 37.1671 39.4677 35.9208 39.9899 34.7867C40.3623 33.9776 41.093 32.4328 40.9722 31.565C40.884 30.931 39.7046 29.3506 39.2473 28.8396C36.8012 26.1053 33.3292 24.349 29.8173 23.3965L29.7207 23.4457C29.026 26.2577 26.5714 28.3599 23.6372 28.4195C23.0387 31.6057 23.033 34.8501 23.0652 38.0898C23.0861 38.2468 23.2221 38.2487 23.3467 38.2819C24.3399 38.5487 26.2145 38.4579 27.2575 38.3505C28.6507 38.2071 30.0462 37.8896 31.2484 37.1548V37.1543ZM19.5576 36.4105C19.5998 34.5671 19.7022 32.7815 19.8889 30.9452C19.9017 30.8203 19.878 30.693 19.8898 30.5676L20.2675 27.8493C18.7862 27.2451 17.7342 25.6799 17.946 24.0613C15.5516 24.2662 13.5007 25.6695 11.1797 26.0816C10.7698 26.1545 10.349 26.1786 9.93767 26.2378C10.059 26.6078 10.2888 26.9532 10.4348 27.3265C11.2062 29.3019 10.9849 31.4089 9.41689 32.9083C11.4521 32.8595 13.3542 31.8607 15.008 30.7554C15.1711 30.4143 15.0701 30.0273 15.1042 29.6686C15.1497 29.1841 15.2507 28.6622 15.3161 28.1768C15.3824 27.9293 15.853 27.8148 15.9079 28.1077C15.9364 28.2596 15.9179 28.5983 15.9112 28.7706C15.8217 31.1122 15.6862 33.2229 15.9103 35.5811C15.9491 35.9899 16.0534 36.4053 16.0951 36.816C16.1676 36.9963 16.5633 37.1718 16.7452 37.2551C17.5949 37.6426 18.6038 37.812 19.5278 37.8787C19.587 37.8693 19.5477 37.8016 19.5576 37.7822C19.5671 37.7642 19.5908 37.7609 19.5576 37.7349V37.5456C19.5576 37.3412 19.5572 37.1349 19.5576 36.9305V36.8832C19.5576 36.8515 19.5567 36.8203 19.5576 36.7886L19.5899 36.7318L19.5576 36.694C19.5595 36.6154 19.5558 36.5359 19.5576 36.4574V36.4101V36.4105ZM7.28259 27.3251C7.94837 24.7474 4.28159 24.075 2.54392 24.9352C1.74972 25.3284 1.70091 26.2179 2.11601 26.9243C3.51155 26.6154 5.1535 26.428 6.51066 26.9863C6.64524 27.0417 7.20677 27.3885 7.28259 27.3251ZM3.53146 27.4822C3.19264 27.512 2.488 27.6345 2.21742 27.8262C1.70944 28.1853 1.92457 29.1675 2.35816 29.5281C2.47094 29.5778 2.81023 29.4122 2.96945 29.3819C4.31239 29.1283 5.88042 29.37 7.07977 30.0159C7.23189 30.0296 7.44086 29.5494 7.46266 29.4207C7.78678 27.5129 4.78483 27.3724 3.53146 27.4826V27.4822ZM9.98505 27.9411C9.85948 27.9298 9.90829 27.9388 9.8917 28.0121C9.83247 28.2714 9.78935 28.517 9.70263 28.7706C9.65003 28.9239 9.49839 29.1278 9.47423 29.2541C9.442 29.4211 9.52066 29.6558 9.51403 29.8598C9.48133 30.8903 8.85299 32.0717 8.01045 32.6641C7.86687 32.7649 7.71286 32.8146 7.58255 32.8979C7.53611 32.9277 7.4982 32.8931 7.52142 33.0039C8.49522 33.1851 9.39888 32.2686 9.79029 31.4604C10.3224 30.3627 10.3215 29.0961 9.98505 27.9411ZM3.87264 31.7741C4.55927 31.9402 5.26676 31.9364 5.95766 31.7983C6.53293 31.6833 7.5925 31.2556 6.70115 30.6764C5.91548 30.1664 3.59069 29.7665 2.81402 30.3149C1.86297 30.9868 3.4618 32.235 4.2034 32.1995C4.19724 32.0665 4.02996 32.0296 3.94277 31.9161C3.90628 31.8688 3.85037 31.8565 3.87217 31.7741H3.87264ZM31.972 39.1548L34.8048 33.3109L33.0382 32.2463C32.925 32.2255 32.9145 32.49 32.8956 32.5771C32.434 34.7361 32.1189 36.9362 31.8772 39.1307L31.972 39.1548ZM36.6169 40.385C36.7908 40.3822 36.8329 40.4115 36.8538 40.1962C35.5293 40.0368 34.2788 39.4742 33.3709 38.4934C33.0662 38.9386 32.8013 39.4146 32.535 39.8835C32.5065 39.9336 32.4246 39.9474 32.4118 39.9705C32.3753 40.0377 32.3734 40.2823 32.3047 40.385L32.3521 40.4323C32.4307 40.4342 32.5103 40.4295 32.589 40.4323C32.6359 40.4338 32.6842 40.4342 32.7312 40.4323C33.3898 40.4091 34.1613 40.3221 34.8162 40.385C34.8214 40.4073 34.8418 40.43 34.8636 40.4323C34.9199 40.4385 34.9943 40.4352 35.0531 40.4323C35.1048 40.43 35.1725 40.447 35.1953 40.385C35.337 40.3803 35.4801 40.386 35.6217 40.385H35.6691C35.7795 40.385 35.8904 40.385 36.0008 40.385H36.5695C36.5918 40.4153 36.6102 40.385 36.6169 40.385Z" fill="#092C2E"/>
<path d="M31.2484 37.1542C30.0462 37.8886 28.6506 38.206 27.2575 38.3499C26.2145 38.4573 24.3399 38.5481 23.3466 38.2813C23.2225 38.2477 23.086 38.2463 23.0652 38.0892C23.0329 34.85 23.0386 31.6056 23.6371 28.4189C26.5713 28.3593 29.0259 26.2571 29.7206 23.4451L29.8173 23.3959C33.3291 24.3484 36.8007 26.1047 39.2473 28.8391C39.7045 29.3501 40.8835 30.9304 40.9721 31.5644C41.093 32.4322 40.3623 33.977 39.9898 34.7861C39.4676 35.9202 38.825 37.1665 38.1891 38.2401C38.0645 38.4507 37.5072 39.423 37.3082 39.4343C37.0845 39.4471 36.3586 39.2437 36.1069 39.167C35.2019 38.8921 34.3375 38.3697 33.7731 37.6141L35.6449 33.6179C35.7899 33.4892 36.7727 33.6912 36.7111 33.4069C36.6637 33.1883 33.2922 31.4182 32.8429 31.2124C32.2975 30.9621 31.5919 30.6375 31.0233 30.4743C30.8963 30.4378 30.7224 30.3626 30.5987 30.4236C30.4859 30.4946 30.4907 30.6375 30.502 30.7563C30.5523 31.2843 31.7246 31.4972 32.0862 31.7783C32.1284 31.8109 32.1634 31.8317 32.1644 31.8928L31.2484 37.1537V37.1542Z" fill="#DCC698"/>
<path d="M29.6984 10.3871L29.7458 10.7656C29.2999 10.6327 28.6621 10.3682 28.6066 11.0239C28.5554 11.6305 28.6308 12.3303 28.6294 12.9445C28.7151 13.2232 29.3605 13.4389 29.6278 13.4616C30.1206 13.5028 30.2505 13.4361 30.5983 13.1314L30.6931 13.5099C30.3154 13.5132 29.2208 13.755 28.9862 14.0531C28.6877 14.4335 29.1246 15.0543 29.5695 14.9194C29.6235 14.9028 29.9135 14.6331 30.06 14.5574C30.3614 14.4018 30.6997 14.2542 31.0243 14.3857C32.5075 14.9852 30.9556 18.4255 29.8894 18.7406C29.4601 18.8674 28.7549 18.4572 28.5725 18.6327C28.4602 18.7406 28.2413 19.5199 28.1422 19.7403C27.2788 21.667 25.3767 23.5984 23.2557 24.0404C18.6971 24.9895 15.7497 20.398 15.435 16.4198C15.2502 14.081 16.0591 10.4207 17.2267 8.36862C17.6333 7.65369 17.7825 7.94184 18.4099 8.0554C19.5283 8.2579 20.5826 8.25412 21.6668 7.88128C22.0966 7.73318 22.0758 7.6253 22.6155 7.64186C23.8793 7.67971 25.2967 7.86755 26.5316 8.13157C26.9448 8.22005 28.1114 8.45521 28.4161 8.66292C28.6815 8.84414 28.518 9.35467 28.5635 9.65134C28.6351 10.1136 29.2842 10.362 29.6979 10.3876L29.6984 10.3871ZM18.1716 9.1692C17.6518 9.23733 16.831 9.7578 16.9519 10.362C17.0575 10.891 17.6645 10.2234 17.856 10.1311C17.9541 10.0838 18.1119 10.0351 18.219 10.0204C18.6274 9.96504 19.4155 10.2977 19.3705 9.65418C19.3406 9.22929 18.5052 9.12519 18.1716 9.16872V9.1692ZM26.37 11.1801C26.714 10.0038 25.1578 9.05706 24.1276 9.43794C23.7627 9.57327 23.7064 10.0351 24.013 10.1727C24.32 10.3109 24.8043 10.1907 25.1967 10.363C25.7596 10.6104 25.781 11.3921 26.37 11.1796V11.1801ZM18.2626 11.8695C17.3466 11.8846 17.2319 13.9684 17.9735 14.0758C18.9023 14.2106 19.1184 11.8548 18.2626 11.8695ZM24.2821 12.1008C24.0054 12.1647 23.7978 12.6341 23.7405 12.8844C23.4012 14.371 24.7531 14.7732 25.0796 13.4645C25.2199 12.9014 25.0526 11.9234 24.2821 12.1008ZM20.776 12.2892C20.7106 12.309 20.5973 12.4382 20.5594 12.4997C20.3438 12.8475 20.2016 13.3717 19.9747 13.7611C19.7121 14.212 18.8705 15.1006 18.8023 15.5236C18.69 16.2182 19.5055 16.9757 20.1547 17.0533C20.5613 17.1021 21.2494 16.9563 21.3091 16.4628C21.401 15.702 20.1144 16.221 19.7913 15.6651C19.6245 15.3784 20.1031 14.9909 20.2594 14.7552C20.5409 14.3299 21.2598 12.9762 21.1593 12.504C21.1195 12.3166 20.9584 12.2343 20.7755 12.2896L20.776 12.2892ZM30.6836 15.271C30.2505 15.315 29.4894 15.8799 29.4169 16.328C29.3549 16.7131 29.4956 16.98 29.9055 16.769C30.1202 16.6582 30.4997 16.0559 30.6319 16.0228C30.7182 16.001 30.7935 16.1089 30.9058 16.1174C31.4688 16.1605 31.3593 15.2024 30.6831 15.2714L30.6836 15.271ZM25.8956 18.4662C26.0819 18.2632 25.9231 17.5605 25.8042 17.3273C25.6364 16.9989 25.163 16.6298 24.7953 16.5844C24.6498 16.5664 24.3058 16.5447 24.257 16.7141C24.1504 17.0822 24.7365 17.1328 24.5328 17.3656C24.4456 17.465 23.8187 17.7172 23.6585 17.7701C22.1653 18.2679 20.2959 18.2802 18.7895 17.8496C18.6417 17.8075 18.0327 17.6627 17.9986 17.5473C17.9645 17.4318 18.1455 17.0722 17.7821 17.0637C17.2774 17.0519 16.8116 18.3512 17.5252 18.6857C17.6138 18.7273 17.7996 18.7377 17.8413 18.7723C17.8754 18.8007 17.9223 19.0145 17.9688 19.0945C19.37 21.4957 23.2396 21.1267 24.7906 19.0415C24.9228 18.8636 25.1701 18.2594 25.4033 18.3403C25.471 18.364 25.6535 18.7306 25.8961 18.4662H25.8956ZM19.6861 21.183C19.315 21.4991 19.8339 21.9982 20.1419 22.1766C20.8234 22.5712 21.7445 22.5002 22.2359 21.8383C22.3606 21.6708 22.4563 21.2923 22.1852 21.2682C22.089 21.2596 21.6209 21.4683 21.4157 21.4929C21.0636 21.5355 20.6452 21.5 20.3054 21.3978C20.0671 21.3264 19.9192 21.1551 19.6861 21.1825V21.183Z" fill="#DCC698"/>
<path d="M19.5575 37.7826C19.5476 37.802 19.5864 37.8696 19.5277 37.8791C18.6036 37.8124 17.5947 37.643 16.7451 37.2555C16.5631 37.1722 16.1675 36.9971 16.095 36.8164C16.0533 36.4057 15.949 35.9907 15.9102 35.5815C15.686 33.2228 15.8215 31.1126 15.9111 28.7709C15.9177 28.5987 15.9362 28.2599 15.9078 28.108C15.8528 27.8147 15.3823 27.9297 15.3159 28.1771C15.2505 28.663 15.1496 29.1845 15.1041 29.669C15.0705 30.0276 15.1714 30.4151 15.0079 30.7558C13.3541 31.8611 11.452 32.8599 9.41675 32.9086C10.9848 31.4092 11.2065 29.3018 10.4346 27.3269C10.2887 26.9536 10.0588 26.6081 9.93753 26.2381C10.3488 26.179 10.7701 26.1549 11.1795 26.082C13.5001 25.6694 15.5514 24.266 17.9459 24.0616C17.7341 25.6803 18.7861 27.2455 20.2674 27.8497L19.8897 30.568C19.8778 30.6929 19.9015 30.8206 19.8887 30.9455C19.702 32.7818 19.5992 34.5675 19.5575 36.4109C19.5575 36.4265 19.5575 36.4426 19.5575 36.4582C19.5556 36.5368 19.5594 36.6163 19.5575 36.6948C19.5566 36.7265 19.5585 36.7577 19.5575 36.7894C19.5566 36.8211 19.5575 36.8524 19.5575 36.8841C19.5575 36.8997 19.5575 36.9158 19.5575 36.9314C19.557 37.1358 19.5575 37.3421 19.5575 37.5465V37.783V37.7826Z" fill="#DCC698"/>
<path d="M17.4252 23.2568C15.8884 23.457 14.5066 24.1828 13.077 24.7118C12.9258 24.7676 12.3524 24.9876 12.2453 24.9625C11.4829 23.7929 10.8986 22.4458 10.5768 21.0808C9.46325 16.3549 11.1843 11.0959 15.0317 8.11643C15.0302 8.3549 14.9303 8.60756 14.9137 8.85029C14.8867 9.23544 14.9397 9.62815 15.0421 9.99863C15.0971 10.1974 15.3406 10.6606 15.3416 10.7888C15.343 10.9998 15.0416 11.869 14.9753 12.1761C14.1451 16.0095 14.4536 19.4773 16.9523 22.6166C17.0248 22.7075 17.5209 23.1551 17.4247 23.2563L17.4252 23.2568Z" fill="#235C57"/>
<path d="M16.6196 40.3849C16.5968 40.3759 16.5347 40.4128 16.5229 40.3551L16.2405 37.9723C16.3225 37.9643 16.3992 37.9714 16.4788 37.9941C17.4834 38.2808 18.0459 38.657 19.2026 38.7284C19.4026 38.7407 20.1693 38.7715 20.2707 38.648C20.3015 38.6106 20.3527 38.4705 20.3598 38.4185C20.4878 37.4987 20.3352 36.1384 20.3608 35.1552C20.3631 35.0596 20.4029 34.973 20.4062 34.8784C20.4536 33.4371 20.5451 31.9675 20.6953 30.5206C20.81 29.4158 20.9848 28.3148 21.1246 27.2128C19.6353 26.9062 18.5492 25.7243 18.6577 24.1563L19.641 24.6408C19.9703 25.6708 21.0588 26.4014 22.0776 26.6318C24.7042 27.2256 27.7507 25.6533 28.3014 22.9251C28.5274 23.0349 28.7833 23.0746 29.0164 23.1579C29.0756 23.1792 29.0903 23.1286 29.0804 23.2294C29.0477 23.5464 28.6544 24.4643 28.4914 24.7723C27.8052 26.0706 25.9917 27.2725 24.5455 27.5038C24.0683 27.58 23.5774 27.5582 23.0983 27.6202C22.8708 27.6846 22.8168 28.1965 22.7865 28.3971C22.4614 30.5599 22.3704 32.9224 22.3088 35.1121C22.2809 36.1048 22.1932 37.1424 22.2576 38.1403C22.2757 38.4171 22.2965 38.8325 22.5576 38.9763C22.8798 39.1538 24.0617 39.2801 24.4611 39.2995C26.7532 39.4107 29.0624 39.0572 31.1682 38.162C31.1109 38.7327 31.1583 39.3184 31.1209 39.8886C31.1138 39.9983 31.073 40.3262 31.0266 40.3858H16.621L16.6196 40.3849Z" fill="#AC3420"/>
<path d="M29.232 19.7162C29.8177 19.7465 30.1774 19.6954 30.6612 19.3685C31.9269 18.5135 32.922 16.2201 32.4212 14.7424C32.3472 14.5248 32.097 14.1941 32.1155 14.0119C32.1316 13.8501 32.5325 13.1115 32.6245 12.8598C32.7875 12.4131 32.9476 11.8699 33.0102 11.3996C33.0737 10.9227 33.0372 10.4335 33.1339 9.9622C36.0571 13.4186 36.8689 18.3261 35.2307 22.5594C35.0706 22.9739 34.8639 23.4801 34.6346 23.8568C34.5782 23.9495 34.4777 24.1539 34.3673 24.1558C32.3842 23.2175 30.2807 22.6001 28.1691 22.0167C28.0805 21.9698 28.0336 21.9424 28.0587 21.8378C28.1085 21.633 28.616 20.9412 28.7586 20.6871C28.934 20.3753 29.078 20.0394 29.232 19.7167V19.7162Z" fill="#235C57"/>
<path d="M32.2566 9.67736L30.9303 8.99129L30.8819 8.89761C31.0014 8.14009 30.2043 7.94515 29.6489 7.71567C28.1217 7.08449 24.6402 6.13724 23.0622 6.43485C22.3533 6.56875 21.7719 6.96904 21.0838 7.15641C20.0967 7.42516 18.9903 7.36175 17.9928 7.14647C17.4725 7.03433 17.0431 6.85879 16.5574 6.65487C16.3295 6.71259 16.3489 7.25482 16.4356 7.42374C16.5224 7.59265 16.8768 7.70242 16.6176 7.90115C16.402 8.06675 15.9821 7.77955 15.8187 7.61394C15.1268 6.91131 15.2543 5.39959 15.9859 4.75989C16.0475 4.74901 16.3683 5.16775 16.4811 5.24913C16.6062 5.3395 16.7465 5.40669 16.8939 5.45211C19.6186 6.29196 21.543 1.61864 24.7942 3.14692C25.4391 3.45021 25.5386 3.78331 25.9556 4.25835C26.3954 4.75942 26.6844 4.5148 27.2109 4.47316C28.4529 4.37522 29.4604 4.91272 30.0375 6.00239C30.1821 6.27493 30.3384 6.86495 30.5029 7.05184C30.6332 7.19994 31.1004 7.35797 31.3317 7.54912C32.0036 8.1046 32.2007 8.83136 32.2566 9.67689V9.67736Z" fill="#AC3420"/>
<path d="M8.89504 29.5966C9.04526 29.6997 8.78178 30.5892 8.7145 30.7648C8.16291 32.1999 6.90811 32.8741 5.3889 32.6247L6.65317 32.2552C7.38388 31.9396 8.0653 31.3794 7.57627 30.5263C8.15628 30.0106 8.31976 29.1419 8.11363 28.4137C8.0544 28.2036 7.76723 27.8014 7.75634 27.7253C7.7388 27.6027 7.93735 27.131 7.97289 26.9488C8.35625 24.9994 6.90622 24.1454 5.21972 23.8274C4.33454 22.645 4.34449 20.7619 5.5557 19.8037C6.03383 19.4252 6.86025 19.2421 6.95266 20.063C7.07302 21.1319 6.45604 21.9878 6.80907 23.1399C7.13415 24.2012 7.9492 24.5968 8.55575 25.4177C9.29167 26.4146 9.63901 27.9022 8.95238 29.0151C8.83202 29.2105 8.2629 29.7347 8.89504 29.5966Z" fill="#DCC698"/>
<path d="M7.28265 27.325C7.20684 27.3888 6.6453 27.0416 6.51072 26.9862C5.15357 26.4279 3.51162 26.6148 2.11608 26.9242C1.70097 26.2178 1.74978 25.3283 2.54398 24.9351C4.28118 24.0749 7.94844 24.7472 7.28265 27.325Z" fill="#DCC698"/>
<path d="M3.53133 27.4821C4.78471 27.3718 7.78666 27.5123 7.46253 29.4201C7.44074 29.5488 7.23176 30.029 7.07965 30.0153C5.88029 29.3695 4.31226 29.1277 2.96933 29.3813C2.81011 29.4116 2.47034 29.5767 2.35804 29.5275C1.92445 29.167 1.70931 28.1852 2.2173 27.8256C2.48788 27.6339 3.19299 27.5114 3.53133 27.4816V27.4821Z" fill="#DCC698"/>
<path d="M3.8727 31.774C3.8509 31.8563 3.90681 31.8686 3.9433 31.916C4.03049 32.03 4.19729 32.0669 4.20393 32.1994C3.46185 32.2349 1.8635 30.9867 2.81455 30.3148C3.59122 29.7664 5.91601 30.1662 6.70168 30.6763C7.5935 31.2554 6.53346 31.6827 5.95819 31.7981C5.26681 31.9363 4.5598 31.9401 3.87317 31.774H3.8727Z" fill="#DCC698"/>
<path d="M20.6954 24.9602C21.9037 25.3018 23.2912 25.1456 24.4631 24.7245C25.635 24.3034 26.6244 23.4995 27.5181 22.6417C27.1698 25.3008 23.6243 26.6526 21.373 25.5369C21.2901 25.4958 20.594 25.0628 20.6954 24.9602Z" fill="#DCC698"/>
<path d="M32.3047 40.3849C32.3734 40.2822 32.3748 40.0376 32.4118 39.9704C32.4246 39.9468 32.5066 39.9335 32.535 39.8834C32.8013 39.4145 33.0662 38.9385 33.3709 38.4932C34.2788 39.4741 35.5294 40.0367 36.8538 40.1961C36.833 40.4119 36.7908 40.3821 36.6169 40.3849H36.0009C35.8904 40.3849 35.7796 40.3849 35.6691 40.3849C35.6535 40.3849 35.6374 40.3849 35.6218 40.3849C35.4801 40.3859 35.337 40.3802 35.1953 40.3849C35.1432 40.3868 35.0759 40.3707 35.0531 40.4322C34.9944 40.4351 34.92 40.4384 34.8636 40.4322C34.8588 40.41 34.8375 40.3868 34.8162 40.3849C34.1613 40.322 33.3898 40.409 32.7312 40.4322C32.7245 40.3612 32.5956 40.3612 32.589 40.4322C32.5103 40.4294 32.4307 40.4341 32.3521 40.4322L32.3047 40.3849Z" fill="#DCC698"/>
<path d="M8.13727 10.0559C8.15481 11.2766 8.07567 12.4926 8.09937 13.7133C8.1169 13.7725 8.88504 14.5816 8.9547 14.61C9.19968 14.7093 9.61764 14.6114 9.89011 14.6459C9.85883 14.7524 9.83419 14.9629 9.78775 15.0405C9.67545 15.2284 9.09875 15.015 8.88077 15.0618L7.6364 13.8439L7.66341 9.71095C7.43169 9.56759 7.11893 9.35467 7.14263 9.04476C7.18765 8.45805 8.0643 8.31137 8.13633 8.99129C8.16192 9.23449 8.09084 9.42848 8.08704 9.65134C8.0842 9.80795 8.13538 9.95699 8.1368 10.0559H8.13727Z" fill="#AC3420"/>
<path d="M42.1137 12.1377L41.2868 13.0344C41.2735 13.7715 41.2802 14.5168 41.1778 15.2482L39.0814 17.3424C38.3521 17.5042 37.5958 17.4139 36.8538 17.4375V16.9639H38.8445C38.8468 16.9208 38.8606 16.8783 38.8942 16.8499C39.5543 16.2958 40.1026 15.6249 40.7598 15.0675C40.9503 14.7098 40.776 13.5392 40.8338 13.0594C40.8778 12.6918 41.5038 12.2579 41.7365 11.9698C41.8559 11.9097 42.0455 12.1217 42.1142 12.1377H42.1137Z" fill="#AC3420"/>
<path d="M4.48853 12.1851C4.56197 12.1713 4.72925 12.045 4.80507 12.0015L5.74238 12.9913L5.77744 15.1801L7.49758 16.9639H9.51152L9.46461 17.4375L7.3341 17.411C6.63609 16.786 6.00632 16.0895 5.36613 15.4015C5.31637 15.1697 5.34623 14.9275 5.34149 14.6928C5.33106 14.1841 5.3576 13.6736 5.33201 13.1645L4.48853 12.1851Z" fill="#AC3420"/>
<path d="M29.6982 10.3871C29.9698 10.4036 30.2181 10.38 30.4337 10.1988C30.5375 10.1117 30.6313 9.8704 30.7635 9.86757L32.1642 10.6554C32.1661 11.2572 32.0643 11.851 31.8776 12.4216C31.6563 12.2452 31.1554 12.1065 30.9748 11.9277C30.855 11.8084 30.8441 11.6234 30.7663 11.4734C30.5488 11.0542 30.1759 10.8938 29.7456 10.7656L29.6982 10.3871Z" fill="#AC3420"/>
<path d="M9.98507 27.941C10.3215 29.096 10.322 30.3626 9.79031 31.4603C9.39889 32.2685 8.49523 33.1849 7.52143 33.0037C7.49821 32.893 7.53612 32.9276 7.58256 32.8977C7.7124 32.8145 7.86688 32.7648 8.01046 32.664C8.85253 32.0716 9.48135 30.8902 9.51404 29.8596C9.52068 29.6562 9.44202 29.421 9.47424 29.254C9.49841 29.1277 9.65004 28.9237 9.70264 28.7704C9.78984 28.5173 9.83248 28.2713 9.89172 28.012C9.9083 27.9386 9.85997 27.9297 9.98507 27.941Z" fill="#DCC698"/>
<path d="M36.9011 18.5726C36.9129 18.4169 36.8925 18.2556 36.9011 18.0995H39.6732L42.162 15.6164C42.2364 15.5828 42.7732 15.5714 42.8173 15.5993C42.8377 15.6121 42.9993 15.958 43.0614 16.0176L42.3032 16.0412C41.8634 16.5726 41.3412 17.0377 40.8569 17.5307C40.529 17.8648 40.1177 18.5281 39.6272 18.574C38.7643 18.6549 37.7773 18.5102 36.9006 18.5721L36.9011 18.5726Z" fill="#AC3420"/>
<path d="M39.6021 10.0086C39.6149 11.3798 39.5807 12.7495 39.5187 14.1127C39.2571 14.3966 38.9884 14.6947 38.7022 14.9535C38.507 15.13 38.0577 15.5648 37.826 15.5927C37.4673 15.6358 37.0318 15.5591 36.6641 15.5918C36.6451 15.4408 36.6461 15.2729 36.6167 15.1186L37.8952 15.1413L39.1036 13.9821L39.1315 10.3667C39.1481 10.1198 39.44 10.1164 39.6021 10.0086Z" fill="#AC3420"/>
<path d="M9.46433 18.5726L6.66804 18.5021C5.92123 17.6173 5.09622 16.7988 4.384 15.8861L3.58838 15.8756C3.686 15.7611 3.75044 15.5577 3.82342 15.4243L4.48825 15.4271L6.90687 18.0749L9.38994 18.0573C9.50935 18.0853 9.46102 18.4548 9.46481 18.5721L9.46433 18.5726Z" fill="#AC3420"/>
<path d="M36.7117 20.5598C36.724 20.4846 36.723 20.0947 36.7865 20.0839L40.8078 20.091C41.066 20.091 41.0343 20.4151 41.1186 20.5598H36.7117Z" fill="#AC3420"/>
<path d="M29.4945 11.5326C30.3987 11.2619 30.7413 12.9861 29.4476 12.6956C29.0126 12.5977 29.105 11.6495 29.4945 11.5326Z" fill="#AC3420"/>
<path d="M29.6386 8.4571C30.2953 8.32793 30.5389 9.28701 29.9788 9.6026C29.2078 10.037 28.7553 8.63122 29.6386 8.4571Z" fill="#AC3420"/>
<path d="M4.0024 10.4917C4.63074 10.3696 4.83166 11.3769 4.21516 11.4663C3.59866 11.5558 3.38684 10.6114 4.0024 10.4917Z" fill="#AC3420"/>
<path d="M44.1841 14.7547C44.6603 15.1967 43.8979 15.9745 43.4619 15.4044C43.0638 14.8839 43.7818 14.381 44.1841 14.7547Z" fill="#AC3420"/>
<path d="M3.05036 15.4332C2.62483 15.8799 1.92019 15.3102 2.30781 14.8101C2.69544 14.31 3.50196 14.9592 3.05036 15.4332Z" fill="#AC3420"/>
<path d="M42.2889 10.4917C43.003 10.2806 43.1745 11.2392 42.6372 11.4067C41.9439 11.623 41.8359 10.6256 42.2889 10.4917Z" fill="#AC3420"/>
<path d="M38.9273 8.50394C39.7064 8.39181 39.6064 9.74549 38.761 9.4053C38.344 9.23733 38.4743 8.56924 38.9273 8.50394Z" fill="#AC3420"/>
<path d="M41.7971 20.3086C41.3578 19.8298 42.1018 19.1167 42.5188 19.659C42.9358 20.2012 42.1312 20.6729 41.7971 20.3086Z" fill="#AC3420"/>
<path d="M30.5986 13.1314C30.6673 13.0713 30.7432 12.8934 30.8588 12.8943L31.4928 13.3064L31.4037 13.6523C31.1441 13.5667 30.973 13.5075 30.6934 13.5104L30.5986 13.1318V13.1314Z" fill="#AC3420"/>
<path d="M15.7666 8.68374L16.194 8.85029C16.122 9.08781 15.9306 9.28417 15.9083 9.53589C15.8292 9.5761 15.7666 9.4545 15.7666 9.4176V8.68421V8.68374Z" fill="#AC3420"/>
<path d="M30.4564 40.3849C30.4086 40.4625 30.2171 40.4611 30.1721 40.3849H30.4564Z" fill="#235C57"/>
<path d="M28.0873 40.3849C28.056 40.4597 27.8816 40.4597 27.8503 40.3849H28.0873Z" fill="#235C57"/>
<path d="M19.7472 40.3849C19.7159 40.4597 19.5415 40.4597 19.5103 40.3849H19.7472Z" fill="#235C57"/>
<path d="M28.4664 40.3849C28.4081 40.4497 28.337 40.4507 28.2769 40.3849H28.4664Z" fill="#235C57"/>
<path d="M21.453 40.3849C21.3933 40.4511 21.3212 40.4497 21.2634 40.3849H21.453Z" fill="#235C57"/>
<path d="M22.0216 40.3849C21.9633 40.4497 21.8922 40.4511 21.832 40.3849H22.0216Z" fill="#235C57"/>
<path d="M20.4105 40.3849C20.3631 40.4422 20.3157 40.4422 20.2683 40.3849H20.4105Z" fill="#235C57"/>
<path d="M21.7374 40.3849C21.6895 40.4422 21.6426 40.4426 21.5952 40.3849H21.7374Z" fill="#235C57"/>
<path d="M20.9791 40.3849C20.9317 40.4422 20.8843 40.4422 20.8369 40.3849H20.9791Z" fill="#235C57"/>
<path d="M26.0496 40.3849C26.0022 40.4422 25.9549 40.4417 25.9075 40.3849H26.0496Z" fill="#235C57"/>
<path d="M35.1951 40.3849C35.1724 40.4469 35.1046 40.4298 35.053 40.4322C35.0757 40.3707 35.143 40.3868 35.1951 40.3849Z" fill="#235C57"/>
<path d="M32.731 40.4322C32.6841 40.4341 32.6358 40.4336 32.5889 40.4322C32.5955 40.3612 32.7244 40.3612 32.731 40.4322Z" fill="#235C57"/>
<path d="M27.4239 40.3849C27.3765 40.4422 27.3291 40.4422 27.2817 40.3849H27.4239Z" fill="#235C57"/>
<path d="M16.7618 40.3849C16.6888 40.4734 16.6665 40.4038 16.6196 40.3849H16.7618Z" fill="#235C57"/>
<path d="M30.0301 40.3849C29.9832 40.4422 29.9353 40.4417 29.8879 40.3849H30.0301Z" fill="#235C57"/>
<path d="M23.2063 40.3849L23.149 40.4171L23.1116 40.3849H23.2063Z" fill="#235C57"/>
<path d="M23.6802 40.3849L23.6229 40.4171L23.5854 40.3849H23.6802Z" fill="#235C57"/>
<path d="M22.2112 40.3849L22.1733 40.4176L22.1165 40.3849H22.2112Z" fill="#235C57"/>
<path d="M18.7046 40.3849L18.6473 40.4171L18.6099 40.3849H18.7046Z" fill="#235C57"/>
<path d="M18.4676 40.3849L18.4297 40.4171L18.3728 40.3849H18.4676Z" fill="#235C57"/>
<path d="M18.1834 40.3849L18.1455 40.4171L18.0886 40.3849H18.1834Z" fill="#235C57"/>
<path d="M31.0252 40.3849C30.9868 40.4341 30.9901 40.4483 30.9304 40.3849H31.0252Z" fill="#235C57"/>
<path d="M16.9988 40.3849L16.9415 40.4171L16.9041 40.3849H16.9988Z" fill="#235C57"/>
<path d="M19.5576 36.789C19.5586 36.7572 19.5567 36.726 19.5576 36.6943L19.5899 36.7322L19.5576 36.789Z" fill="#235C57"/>
<path d="M29.6036 40.3849L29.5657 40.4171L29.5088 40.3849H29.6036Z" fill="#235C57"/>
<path d="M34.8635 40.4322C34.8418 40.4299 34.8214 40.4071 34.8162 40.3849C34.8375 40.3868 34.8588 40.41 34.8635 40.4322Z" fill="#235C57"/>
<path d="M36.5693 40.3849H36.6167C36.6101 40.3849 36.5916 40.4152 36.5693 40.3849Z" fill="#235C57"/>
<path d="M19.5576 37.7826V37.7353C19.5908 37.7613 19.5671 37.7646 19.5576 37.7826Z" fill="#235C57"/>
<path d="M25.8956 18.4662C25.6525 18.7306 25.4705 18.3639 25.4027 18.3403C25.1701 18.2594 24.9227 18.8636 24.79 19.0415C23.2391 21.1267 19.3695 21.4957 17.9682 19.0945C17.9213 19.0145 17.8749 18.8007 17.8408 18.7723C17.7995 18.7377 17.6133 18.7269 17.5247 18.6857C16.8111 18.3512 17.2769 17.0519 17.7815 17.0637C18.145 17.0722 17.9654 17.4375 17.9981 17.5473C18.0322 17.6627 18.6411 17.8071 18.789 17.8496C20.2954 18.2802 22.1648 18.2684 23.658 17.7701C23.8181 17.7167 24.4451 17.465 24.5323 17.3656C24.736 17.1333 24.1498 17.0827 24.2565 16.7141C24.3057 16.5447 24.6493 16.5664 24.7948 16.5844C25.1625 16.6303 25.6359 16.9994 25.8036 17.3273C25.9231 17.5605 26.0818 18.2632 25.8951 18.4662H25.8956ZM24.4853 18.0526C22.8083 18.6909 21.1811 18.8735 19.4064 18.5579C19.1088 18.5049 18.7639 18.3706 18.4886 18.3379C18.4179 18.3294 18.4061 18.3308 18.4189 18.4075C18.4549 18.6218 18.5663 18.7728 18.7023 18.9284C19.8097 20.1998 22.4477 19.9632 23.7418 19.0841C24.084 18.8518 24.455 18.4818 24.4849 18.0521L24.4853 18.0526Z" fill="#092C2E"/>
<path d="M20.7759 12.2892C20.9588 12.2338 21.1199 12.3166 21.1597 12.5035C21.2597 12.9757 20.5413 14.3299 20.2598 14.7548C20.1035 14.9904 19.6248 15.3779 19.7916 15.6646C20.1153 16.2206 21.4018 15.7015 21.3094 16.4624C21.2497 16.9563 20.5617 17.1016 20.1551 17.0528C19.5059 16.9753 18.6904 16.2177 18.8027 15.5231C18.8709 15.0997 19.7125 14.2116 19.975 13.7607C20.202 13.3713 20.3447 12.847 20.5598 12.4992C20.5977 12.4382 20.711 12.3086 20.7763 12.2887L20.7759 12.2892Z" fill="#092C2E"/>
<path d="M24.2821 12.1008C25.0526 11.9229 25.2199 12.9014 25.0796 13.4645C24.7531 14.7732 23.4012 14.3715 23.7405 12.8844C23.7978 12.6336 24.0054 12.1647 24.2821 12.1008Z" fill="#092C2E"/>
<path d="M26.37 11.1801C25.781 11.3925 25.7597 10.6109 25.1967 10.3634C24.8043 10.1912 24.3201 10.3109 24.013 10.1732C23.7064 10.0355 23.7628 9.57326 24.1277 9.43842C25.1579 9.05706 26.714 10.0043 26.37 11.1806V11.1801Z" fill="#092C2E"/>
<path d="M18.2626 11.8695C19.1184 11.8553 18.9023 14.2106 17.9735 14.0758C17.2315 13.9679 17.3466 11.8846 18.2626 11.8695Z" fill="#092C2E"/>
<path d="M19.6861 21.183C19.9192 21.1555 20.0675 21.3268 20.3054 21.3983C20.6452 21.5 21.0636 21.5355 21.4157 21.4934C21.6209 21.4688 22.0886 21.2601 22.1852 21.2686C22.4563 21.2928 22.3601 21.6713 22.2359 21.8388C21.7445 22.5007 20.8234 22.5717 20.1419 22.1771C19.8339 21.9987 19.3155 21.4995 19.6861 21.1835V21.183Z" fill="#092C2E"/>
<path d="M18.1714 9.16919C18.505 9.12566 19.3409 9.22976 19.3703 9.65465C19.4153 10.2986 18.6273 9.96551 18.2188 10.0209C18.1117 10.0355 17.9539 10.0838 17.8558 10.1316C17.6648 10.2238 17.0574 10.8915 16.9517 10.3625C16.8308 9.75827 17.6516 9.2378 18.1714 9.16967V9.16919Z" fill="#092C2E"/>
<path d="M30.6835 15.271C31.3597 15.2019 31.4692 16.16 30.9062 16.117C30.7939 16.1084 30.7186 16.0006 30.6323 16.0223C30.5001 16.0559 30.1206 16.6578 29.9059 16.7685C29.496 16.98 29.3553 16.7127 29.4173 16.3275C29.4898 15.8794 30.2504 15.3145 30.684 15.2705L30.6835 15.271Z" fill="#092C2E"/>
<path d="M24.4853 18.0526C24.4549 18.4818 24.0839 18.8522 23.7423 19.0846C22.4481 19.9637 19.8101 20.2003 18.7027 18.9289C18.5671 18.7732 18.4553 18.6223 18.4193 18.408C18.4065 18.3313 18.4184 18.3299 18.489 18.3384C18.7643 18.371 19.1093 18.5054 19.4068 18.5584C21.181 18.874 22.8087 18.6918 24.4857 18.0531L24.4853 18.0526Z" fill="#DCC698"/>
</g>
</g>
<defs>
<clipPath id="clip0_14_584">
<rect width="440" height="956" fill="white" transform="translate(-388 -39)"/>
</clipPath>
<clipPath id="clip1_14_584">
<rect width="44" height="39" fill="white" transform="translate(1 2)"/>
</clipPath>
</defs>
</svg>
